<?xml version="1.0" standalone="no"?>
<!DOCTYPE svg PUBLIC "-//W3C//DTD SVG 1.1//EN" "http://www.w3.org/Graphics/SVG/1.1/DTD/svg11.dtd" >
<svg xmlns="http://www.w3.org/2000/svg">
<metadata>
This is a custom SVG webfont generated by Font Squirrel.
</metadata>
<defs>
<font id="webfontnx6xGMOt" horiz-adv-x="581" >
<font-face units-per-em="1000" ascent="750" descent="-250" />
<missing-glyph horiz-adv-x="500" />
<glyph unicode="&#x22;" horiz-adv-x="474" d="M334 632q19 -23 41 -38t39.5 -31.5t27 -38t3.5 -56.5q-13 -17 -19.5 -40t-11.5 -46.5l-10 -45.5t-14 -38.5t-24.5 -24.5t-41.5 -4q11 35 2 71t-24.5 71.5l-31 68.5t-18 61.5t14.5 52t67 38.5zM91 615q23 -13 40.5 -24t30.5 -24t21 -30.5t12 -43.5l-9 -35l-8 -41 q-16 -15 -24 -36t-12.5 -42t-7.5 -38t-9.5 -24t-18 0.5t-32.5 35.5q19 32 15 61t-18 55.5t-30 50.5t-21 47t9.5 44.5t61.5 43.5z" />
<glyph unicode="#" horiz-adv-x="627" d="M549 711q-19 -3 -23 -9.5t-1.5 -15.5t7 -20t1.5 -24q-11 -11 -13.5 -23t-2 -24t3 -23.5t1 -21t-8.5 -17t-24 -11.5q13 -6 30.5 -9t33.5 -7t27.5 -11.5t11.5 -23.5q6 -31 -2 -43t-24 -14t-36 0.5t-37.5 1t-29 -11.5t-9.5 -38q6 -22 18.5 -32t26.5 -14.5t28.5 -6t26 -5.5 t17.5 -14t4 -31q-13 -24 -34 -30t-44 -4.5t-45.5 5.5t-39.5 0.5t-25 -20t-2 -55.5q-17 -26 -26.5 -60t-17.5 -71.5t-17 -74.5t-24 -69q-14 -14 -28 -24.5t-33 -2.5q-26 36 -22.5 75.5t20 79t36.5 77.5t27 70q10 10 6.5 19.5t-7.5 19t-3 19t21 19.5q-29 -10 -53.5 -8.5t-44 0 t-34 -12.5t-24.5 -47q-19 -42 -20.5 -86t-4.5 -85.5t-18 -77.5t-60 -62q-26 39 -28.5 72.5t8 64.5t27.5 60t29.5 59.5t14.5 63t-18 69.5l-76 25q16 19 32.5 27.5t34 14.5l37 12.5t42.5 22.5l-17 86q-13 7 -28 1t-28 -10.5t-21.5 -1t-8.5 29.5v33q19 7 50 8.5t59 9t47 26.5 t15 61q10 32 17 67t17.5 68.5t28 65t49.5 56.5l36 -34q0 -39 -13.5 -69.5t-30 -60.5t-30 -63t-13.5 -75q8 -25 34 -33t53 -8q39 26 55 57t20 64.5t3 68t3 68t20 64.5t55 57q32 -16 41 -35.5t5.5 -41t-14 -46t-16.5 -50.5zM265 417q3 -16 -1 -28.5t-11.5 -20t-16 -8.5 t-14.5 6q16 -7 35.5 -17.5t37.5 -14.5t30.5 3.5t15.5 36.5q0 19 -9.5 25t-22.5 6.5t-25.5 1.5t-18.5 10z" />
<glyph unicode="$" horiz-adv-x="574" d="M266 855l17 -27l43 87l61 -52q-29 -10 -30.5 -24.5t7.5 -31.5l19 -36t4 -38q38 -20 72 -46.5t66 -65.5q-4 -20 -8 -37.5t-12 -32.5t-21.5 -28t-36.5 -23l-35 44q-3 -14 -11 -23t-14 -17t-7.5 -16.5t7.5 -21.5q28 -4 48.5 -17.5t37 -32t30.5 -39.5t31 -40q3 -23 2.5 -55 t-8 -64t-23 -61t-42.5 -45q-16 3 -27.5 0t-21.5 -8.5t-18.5 -12.5l-17.5 -14q-15 -13 -16.5 -28t3.5 -31.5t11.5 -33.5t8 -33t-7.5 -30t-35 -25q-15 28 -32.5 32.5t-36 -2t-36 -17t-31.5 -13t-23.5 9t-11.5 50.5q13 43 -1 75.5t-39.5 59t-55 49.5t-47 48.5t-16 54.5t38.5 68 q9 10 22.5 12t26 -2.5t23 -13.5t13.5 -22q10 10 15.5 23.5t10.5 29t10.5 30.5t15.5 28q-23 19 -46.5 30t-44.5 24t-37.5 34t-26.5 60q-16 32 -9 62t27.5 56.5t48 49t53.5 39.5q16 7 18 27t0.5 45t-0.5 50t17 42q6 -13 22.5 -18.5t32 -9.5t24 -10.5t-0.5 -21.5zM291 785 l-17 33l17 -49v16zM283 656q-9 -23 -16.5 -36.5t-9 -23t4 -19t21.5 -25.5l-43 -25l18 -9q26 0 35.5 7t9.5 19t-6.5 27t-12 30t-8 29.5t6.5 25.5zM136 613h-17l17 -86l-9 17l52 59h-43v10zM240 388l43 -77l-25 8q0 -10 -1 -19.5t1.5 -18t9.5 -16.5t23 -15q-11 11 -11.5 24.5 t2.5 28.5l6 29t1 26t-13 20t-36 10zM378 370q13 -19 16 -40t2 -42t-2.5 -41.5t1.5 -39.5q15 -7 21.5 -3t9 12.5t3 18.5t3 17t9.5 8t22 -10q0 20 2.5 37.5t16.5 31.5q-11 7 -23 11t-21.5 9t-14.5 12t-2 19h-43zM258 241q-3 -23 -2 -28.5t5.5 -5.5t12.5 1t17 -9q7 12 3.5 18 t-10.5 9t-15 6t-11 9zM274 26l-8 -35h17q0 6 -1 16.5t-8 18.5z" />
<glyph unicode="%" horiz-adv-x="684" d="M595 863q-7 -43 -23.5 -82t-37 -75l-42 -71t-39 -70.5t-26.5 -72.5t-5 -78q26 -13 51.5 -5t50.5 17t49 8.5t47 -28.5q22 -33 30 -65.5t6.5 -65t-10 -65t-18.5 -63.5q-15 -23 -35.5 -45.5t-46 -39t-54.5 -23t-61 4.5q-22 2 -34 13.5t-19.5 27.5t-13.5 34t-15 32.5t-24 23 t-41 6.5l-155 -328q-29 13 -35.5 31.5t-3.5 39.5t9.5 42.5t3.5 40.5q19 14 28.5 29t14.5 32.5t8 36.5t10 42q6 16 16.5 33.5l23 37l25 40t21.5 43.5q6 13 19.5 29.5t22.5 34t8 36.5t-23 38q3 -32 -15 -51t-41.5 -28t-45.5 -9.5t-29 2.5q-23 -3 -43.5 4t-36.5 20.5t-26.5 32 t-13.5 38.5q0 53 8 104.5t34 103.5l43 30t49 29t50 14t48 -14l53 22t52.5 29.5t43 40.5t24.5 56l8 -8q7 26 27 37.5t44.5 11.5t48 -11t36.5 -30zM326 647q-24 -91 0 -154l11 7q0 3 1 7.5t0.5 9t-3 7.5t-9.5 3q23 12 38.5 33.5t25.5 45.5t15.5 48.5t8.5 44.5q-23 9 -36 2 t-21.5 -19t-14.5 -23.5t-16 -11.5zM171 630q-44 -39 -55 -89t-4 -102q32 -6 50.5 0t29.5 19.5t17.5 32.5t14 38.5t19.5 36.5t34 28q-23 -6 -34 6t-19 25t-19 18.5t-34 -13.5zM414 414q-3 -10 -8 -22t-12.5 -21t-18 -12.5t-23.5 3.5v-25q13 -11 19.5 -9.5t9.5 9.5t4.5 20 t6 22t13.5 15.5t26 1.5zM439 181q14 -13 22 -22.5t22 -2.5q16 13 34 31.5t29 40t12.5 45t-15.5 46.5q-16 -7 -35 -19.5t-35.5 -30.5t-26.5 -40t-7 -48zM337 241v52l-11 -62z" />
<glyph unicode="&#x26;" horiz-adv-x="686" d="M370 670q-13 -17 -17 -30.5t-3.5 -25t3.5 -22t4.5 -22t-1 -24.5t-12.5 -30l-23 -33t-22 -42t-10.5 -48t11.5 -51q20 -20 43 -27t43 19q-12 32 -5.5 53t21 37t31 30.5t23.5 34.5q19 13 38 11.5t37 -10.5t34 -22t30 -22l-18 -70l-87 53q-39 -47 -55 -98t-22 -109 q9 -16 22 -31.5t29 -28t35.5 -20t41.5 -7.5q28 4 38 13t11 19.5t-3.5 22.5t-5 22t7 17.5t31.5 9.5q19 -13 28 -31.5t9 -38t-9 -38t-28 -31.5q-26 -23 -53.5 -29t-55 -2t-54.5 16t-53 25q-15 17 -28.5 20t-26 -3t-24.5 -17.5t-25.5 -23t-28 -20t-31.5 -8.5q-55 -11 -91 5.5 t-59.5 48t-38 72.5l-27.5 80q6 29 17.5 52.5t27.5 43.5t37 38.5t47 38.5q-2 35 -11 68t-14.5 64.5t-3 63t22.5 63.5q22 32 52.5 39.5t62 -0.5t60 -27t48.5 -38zM213 644q-23 -16 -24.5 -33.5t5 -34t14.5 -32t5 -28.5q13 -16 22 -17.5t15 5.5t10.5 19.5t10 25t12 22.5 t17.5 12q3 13 -4 24t-19.5 19t-29.5 13t-34 5zM196 376l-59 -52q-40 -45 -34.5 -92.5t50.5 -79.5q26 -13 51.5 -13.5t49 7.5t44 23t36.5 35z" />
<glyph unicode="'" horiz-adv-x="261" d="M31 679q17 39 49 50t65 3t60 -32t33 -56q-20 -15 -29 -42.5t-14.5 -59t-9.5 -62.5t-13 -54t-25.5 -33.5t-46.5 0.5q-18 40 -30 83.5t-12 90.5q-20 18 -27 49t0 63z" />
<glyph unicode="(" horiz-adv-x="249" d="M155 841q9 4 14.5 -1t10.5 -13l10.5 -16.5t14.5 -11.5q-6 -46 -29.5 -88.5t-55.5 -74.5q6 -29 1 -62.5t-13 -67.5l-16 -67.5t-8 -62.5q17 -46 33.5 -99t35.5 -107t40.5 -105t47.5 -93q-17 -7 -24 -22t-13.5 -27.5t-16.5 -16t-32 12.5q-52 87 -88.5 192.5t-47 214.5 t10 215.5t82.5 196.5l43 103v0z" />
<glyph unicode=")" horiz-adv-x="254" d="M37 830q30 6 43.5 -5.5t21 -31.5t13 -43.5t19.5 -40.5l15 26q0 -29 6.5 -61t18 -60t27.5 -49t35 -27q-22 -22 -28.5 -47.5t-5.5 -54t6 -58.5t7.5 -59.5t-1 -57t-20.5 -51.5q-20 -33 -28 -71.5l-16.5 -78.5t-22.5 -77t-46 -67l-44 10q27 80 50.5 164t35 172t5.5 180.5 t-38 189.5q-7 23 -22 47.5t-27 49.5t-15.5 50.5t11.5 50.5z" />
<glyph unicode="," horiz-adv-x="309" d="M44 148q22 26 48.5 34.5t54 4.5t52.5 -19.5t44 -38.5t28.5 -51.5t5.5 -58.5q6 -32 -8 -58.5t-38 -51t-54 -48.5t-56 -51h-86q-23 36 -18.5 57t21.5 35.5t39 28t35 35.5q-9 23 -28 42t-34.5 39t-20 44t14.5 57z" />
<glyph unicode="-" d="M387 375q29 -3 51 -12.5t41.5 -21.5t38.5 -26.5t41 -27.5q-21 -41 -55 -60t-74.5 -24t-86 -0.5t-90.5 11.5t-86 12t-74 1q-20 7 -35 18t-23 24.5t-7 29t13 32.5q22 6 49 15.5t55.5 14.5t57.5 1.5t56 -22.5q16 16 30.5 19.5t29.5 3.5t31.5 1t36.5 11z" />
<glyph unicode="." horiz-adv-x="298" d="M133 209q27 3 51 -4t42.5 -22t31 -35.5t15.5 -42.5q0 -33 -23.5 -61.5t-55.5 -41.5q-26 -14 -50.5 -11.5t-46.5 15t-39 34t-26 46.5q-14 23 -4.5 40t29 31t42 26t34.5 26z" />
<glyph unicode="/" horiz-adv-x="467" d="M339 900q11 4 28.5 13t37 17t38 11.5t32.5 -2t20 -22.5t0 -52q-56 -49 -97.5 -119t-78 -146l-72.5 -149.5t-81 -128.5q-6 -33 -21.5 -56l-31 -45.5t-26.5 -48.5t-8 -65q-16 -19 -24 -42.5l-16 -47.5t-20 -45.5t-35 -37.5q-5 13 -12.5 19t-21.5 6q10 55 29.5 95.5t40.5 79 t40 80t28 100.5h27q57 136 111 286.5t113 299.5z" />
<glyph unicode="0" horiz-adv-x="572" d="M428 600l57 -102t44 -98.5t15 -95.5t-31 -92q10 -20 4.5 -43t-17.5 -47t-26 -47.5t-21 -43.5q-29 -32 -65 -49t-75 -21t-78 3.5t-75 23.5q-39 26 -67.5 62.5t-45.5 80t-21.5 93t4.5 101.5q-3 45 8 93.5t34.5 92.5t59 81t80.5 59q29 -6 58 -8.5t56.5 -6.5t53 -12t48.5 -24 zM290 558q-26 -7 -34 -13.5t-13 -13t-14 -12.5t-35 -12l-34 -82t-28.5 -85t-8 -86t28.5 -85q26 2 42.5 -6t28.5 -21t20.5 -29t18 -29t22 -21t31.5 -6q35 42 61.5 89t39.5 98t10.5 105.5t-24.5 112.5q-6 26 -22 36t-34 15.5t-34 13.5t-22 31z" />
<glyph unicode="1" horiz-adv-x="573" d="M36 633q16 30 43 38t58.5 7t64 -4.5t59.5 2.5q22 -58 22.5 -112t-4 -108t-7 -110t14.5 -117q-7 -23 2.5 -41.5t28 -29t42.5 -11t47 12.5q10 -22 21 -23t23 3.5t25 6.5t26 -13l43 -61q-58 -26 -120.5 -29t-127.5 1.5t-131 10.5t-130 0q6 28 26.5 41.5t46 20.5t52 13 t45.5 19.5t26 39.5t-6 74q-10 19 -14 41t-7 45t-5.5 45t-9.5 41q10 16 12.5 36.5t1 42t-5.5 43.5l-8 42q-22 -3 -40.5 -1.5t-36 6t-36.5 12z" />
<glyph unicode="2" horiz-adv-x="552" d="M452 633q3 -38 15 -76t18 -74.5t-2.5 -70.5t-47.5 -62q-7 0 -18 10t-23.5 18t-24.5 8t-22 -19l34 -26h-68h9v-26h-9q-9 19 -17 25.5t-16.5 5t-17.5 -8t-20 -13t-23.5 -10.5t-27.5 1l18 -34q-19 9 -34 4.5t-27 -17t-22.5 -28.5l-19.5 -29l25 -36q-5 0 -15 1t-10 9l-17 -10 l61.5 -14.5l71.5 -16.5t69.5 -13.5t55.5 -5.5q30 0 44.5 6.5t22.5 18.5t13 30t15 41q-10 3 -8 7.5t8.5 10l14 12t10.5 13.5q27 -10 38.5 -29t15.5 -43t4 -52.5t3 -57.5q-13 -29 -31 -37.5t-38.5 -11t-40.5 -6t-37 -22.5q-32 9 -64.5 29.5t-65.5 35.5t-67 17.5t-69 -23.5 q-10 -9 -17 -17t-14 -12t-14 -3.5t-16 7.5q-13 16 -19 40t-6.5 50.5t2 53t6.5 46.5q8 39 30.5 66t53 46.5t66 34.5l69.5 29t63 30t47 38t21.5 52.5t-14.5 74.5q-29 33 -56.5 39.5t-56 2.5t-58.5 -12t-63 -5q10 -6 20.5 -22t15.5 -36.5t2.5 -41.5t-18.5 -38q-8 -13 -18.5 -18 t-22 -5t-22 4.5t-17.5 10.5q-23 13 -27 31.5t0.5 39.5t11.5 42.5t7 40.5q45 36 95.5 55t100.5 20t98 -17.5t87 -57.5z" />
<glyph unicode="3" horiz-adv-x="594" d="M72 662q55 0 116.5 0.5t122 -4t117 -15.5t101.5 -35q-9 -26 -23 -47t-31 -40.5t-36 -38l-38 -37.5q8 -19 24.5 -32t34.5 -23l34.5 -19t26 -20t9 -25.5t-17.5 -35.5l43 -78l9 9q19 -6 18.5 -18.5t-7.5 -25.5t-15 -24.5t-5 -17.5q-3 3 -4 13.5t-2.5 22.5t-5.5 23.5 t-14 17.5h-8q-7 -13 -5.5 -29t5.5 -33t7.5 -34t2 -32t-11.5 -26.5t-34 -18.5q-15 11 -22.5 10.5t-12 -7.5t-7.5 -17t-7.5 -18.5t-12 -12.5t-22.5 2q-42 -19 -83 -23.5t-80 0.5t-76 16.5t-72 24.5q-27 23 -42.5 50t-19 54t7 53.5t36.5 49.5q16 16 25.5 14t17.5 -10t17.5 -16 t25.5 -5q-3 -32 5 -63t25.5 -54.5t44.5 -37t63 -10.5q26 10 52.5 22t49.5 29t41.5 40.5t27.5 55.5q-9 16 -14.5 45.5t-17.5 57t-35.5 46.5t-69.5 16q-19 -7 -35.5 -11l-32 -8t-30.5 -9.5t-31 -14.5q-11 23 -4 45.5t23.5 44t36.5 42.5t36.5 42t23.5 42t-4 43q-50 17 -77.5 15 t-43 -15.5t-24.5 -35t-21 -43.5t-32.5 -41t-59.5 -27q-10 29 -18.5 61.5t-9 65t9 62.5t35.5 53z" />
<glyph unicode="4" horiz-adv-x="560" d="M385 618q0 -84 5.5 -173.5t37.5 -181.5q13 13 25 7t23 -18t22.5 -23t24.5 -8q3 -13 -0.5 -20.5t-11 -12.5t-16 -9t-14.5 -10l-61 -9q-13 -32 -9 -49.5t17 -27t31.5 -14t35.5 -11t28 -18t9 -35.5q-39 0 -77 -5t-76.5 -9t-79.5 -4t-86 9q-11 28 -2.5 41.5t26 20.5t40 11 t39 13t23.5 26.5t-6 51.5q-28 9 -56 11t-55.5 1.5t-53.5 -1.5t-51.5 1.5t-49 11.5t-44.5 28q39 55 75.5 113l72.5 115.5l74 113.5t80 108q13 3 23 -1t17 -11.5t12 -16.5t8 -15zM316 497q-23 -16 -43 -39.5t-36.5 -50t-27 -54.5t-13.5 -54q18 -20 39 -28t47 -8q28 11 39.5 28 t13 37.5t-3.5 42.5l-10.5 44.5t-8 43.5t3.5 38z" />
<glyph unicode="5" horiz-adv-x="527" d="M63 651q46 -3 96.5 -0.5t101.5 2.5t100 -5t91 -22q-19 -30 -52 -39t-71 -9.5t-77 2.5t-70 -3.5t-49.5 -27.5t-16.5 -69q42 -10 86.5 -8.5t87 0t82 -13t71.5 -47.5q26 -29 40 -72t17 -91t-3 -95.5t-19 -86.5q-29 -26 -61 -49.5t-67 -38.5t-72.5 -20t-76.5 6 q-29 -4 -53.5 5.5t-45.5 25.5t-38.5 35.5t-33.5 35.5q-7 45 2.5 78.5t47.5 59.5q26 -7 41 -22t25.5 -34.5t20 -41t25.5 -40.5v43q17 3 19.5 -3.5t0 -16l-5 -19.5t4.5 -13q22 3 51 9t57.5 16.5t53 26.5t37.5 41q9 36 8.5 75t-12.5 73.5t-37 60t-64 35.5q-26 13 -50.5 7.5 t-47.5 -18.5t-45 -29t-43 -24t-41.5 -3t-39.5 33q3 35 0.5 72t-3.5 74t4 73.5t24 71.5z" />
<glyph unicode="6" horiz-adv-x="506" d="M387 573l-35 -96q-23 0 -41 11.5t-32 28t-24 34t-16 30.5q-6 -3 -23.5 -7t-35.5 -12t-32 -21.5t-14 -36.5q7 -10 7 -21t-4.5 -20t-14 -14.5t-21.5 -5.5q15 -22 35 -31t41.5 -9.5t43 4l40 8.5t31.5 5.5t18 -5.5l-10 -17q7 -13 16 -16t19.5 -1t21.5 5.5t21 3.5 q10 -20 33.5 -49.5t43.5 -61t27 -62.5t-15 -54q-6 -52 -33 -98t-73 -85q-33 -10 -72 -12.5t-78.5 6t-75.5 28.5t-62 55q-32 63 -39.5 125t0.5 123.5t27 122t40 119.5q13 22 36 41.5t51.5 33t59 20t58 2t49 -21t32.5 -49.5zM230 346q-20 0 -40 -11.5t-36 -28t-26.5 -34.5 t-10.5 -31q0 -16 -4.5 -38.5t-4.5 -43.5t9 -37.5t35 -19.5q23 -14 47.5 -25t49 -17t49 -5t47.5 11q29 27 43 51t17.5 49.5t0.5 54.5t-9 65q-26 6 -45.5 17l-38 21.5t-38 17.5t-45.5 4z" />
<glyph unicode="7" horiz-adv-x="513" d="M435 651q12 -19 22.5 -30.5t16 -22.5t5 -26t-10.5 -40q20 -20 23 -34t-3 -26t-19 -22.5t-25 -22t-21 -26t-7 -33.5q-35 -42 -56 -96t-40.5 -109.5t-44 -108t-66.5 -90.5q-26 12 -34.5 33.5t-8.5 47t4.5 53t4.5 52.5q19 49 50 98l60 97t50 95t21 92q-22 16 -44.5 21t-44 6 t-40.5 1t-35 7q-28 -18 -40.5 -40t-17 -45t-7 -45t-10 -39t-26 -27.5t-55.5 -10.5q4 35 1 69t-6.5 67t-3.5 65.5t9 64.5q46 20 95.5 20.5t100.5 -4t102.5 -6t100.5 14.5z" />
<glyph unicode="8" horiz-adv-x="592" d="M484 583q13 -39 18 -76.5t6.5 -73.5t2.5 -72t6 -71t17 -70t36 -70q-6 -35 -15 -62.5t-26.5 -48t-44.5 -35.5t-69 -24q-48 -10 -97.5 -12.5t-96.5 5t-89.5 25.5t-78.5 50q-23 26 -28 57.5t-1 65t13.5 66.5t15.5 62q21 17 27 36.5t3.5 40t-10 42.5t-12.5 45.5t-4.5 47 t14.5 47.5q19 35 44 48t54 17.5t61 8t64 19.5q29 -3 53 -7.5t45.5 -13t43.5 -20t48 -27.5zM294 583q-3 -13 -13 -16t-23 -2t-26.5 3t-23.5 -1q-17 -20 -32.5 -31t-27.5 -23t-19.5 -30.5t-7.5 -54.5q23 -26 53 -38.5t64 -17t70 -4.5h71q20 3 36 14.5t27.5 27t17.5 32t6 29.5 q-9 33 -28.5 52t-44 30.5t-50.5 17.5t-49 12zM148 256q-32 -20 -38 -44.5t4.5 -50.5t32.5 -51t45 -44q38 -3 75 -8t72.5 -4.5t69.5 10.5t66 36q13 22 13.5 42t-5.5 39t-14 37t-11 38q-72 32 -155 32t-155 -32z" />
<glyph unicode="9" horiz-adv-x="500" d="M474 376q-3 -29 -4 -69.5t-6 -82.5t-16 -80t-33 -60q-20 -40 -62 -75t-95 -55q-17 6 -35.5 8.5l-36 5t-33.5 7t-27.5 14.5t-17.5 28.5t-4 48.5q3 16 5 31.5t7 28t14 21.5t26 13q19 -9 40 -28.5t43.5 -34t46.5 -17.5t50 20q23 13 25.5 28.5t2 32t3.5 32t30 28.5 q-42 3 -77.5 -3.5t-69 -10.5t-69 1t-77.5 31q-22 26 -39 63t-25.5 79t-6 85.5t19.5 82.5q32 32 70.5 61t84.5 41q65 10 111 -14.5t77.5 -67t50 -95.5t27.5 -98zM242 567q-32 -7 -62.5 -20t-50.5 -33q-9 -20 -14.5 -36.5t-7.5 -33.5t-2.5 -35.5t-0.5 -40.5q19 -16 35 -32 t32 -29t35 -22.5t45 -12.5q13 9 32.5 19.5t40 23t39.5 27.5t31 33.5t14 40t-11 46.5h-25q3 19 -9.5 39t-33 36t-44.5 24.5t-43 5.5z" />
<glyph unicode=":" horiz-adv-x="264" d="M108 501q28 12 49.5 5t38 -23.5t28.5 -36t22 -32.5q-11 -15 -24 -34.5t-28 -38t-32 -33.5t-35 -20.5t-38.5 1t-41.5 30.5q-19 32 -20.5 57t9 46t30 40t42.5 39zM133 180q19 -3 34 -14.5t25.5 -28t17.5 -35t10 -34.5q6 -23 0.5 -39.5t-18 -28.5t-29.5 -21t-33 -16 q-19 -3 -39.5 -0.5t-37.5 10.5t-27.5 22.5t-7.5 37.5q7 23 13 48t16.5 46t28 35.5t47.5 17.5z" />
<glyph unicode=";" horiz-adv-x="319" d="M172 534q13 -19 36 -33.5t43.5 -30t31.5 -34.5t1 -48l-21.5 -27.5t-25 -27.5t-30 -24t-35.5 -17q-23 10 -45 21t-40 25.5t-32 34t-20 48.5l25 42.5t27.5 34t35.5 24t49 12.5zM146 180q19 -13 41 -23.5t41.5 -22.5t34.5 -28t21 -38q0 -32 -4.5 -72t-18 -79t-38.5 -72.5 t-67 -52.5l-104 10q-3 35 6 65t15.5 59t2.5 59.5t-32 66.5q-10 28 -4 50.5t22 39t38.5 26t45.5 12.5z" />
<glyph unicode="&#x3c;" horiz-adv-x="1304" d="M880 778q6 -10 15.5 -13t19.5 0q4 0 1.5 4t-2.5 6t-2 2.5t-2 2.5q4 3 10 3q3 -6 3 -16t9 -10q0 6 4 9.5t9 8.5q14 -11 29.5 -19t29.5 -23q-4 -2 -6.5 -1t-2.5 -1q1 -4 3 -3.5t5 1.5t6 1t5 -6h1q1 1 1 2l27.5 -16.5t26.5 -19.5v-18q7 -4 11 0.5t11 2.5q-3 -2 -7.5 -4.5 t-9.5 -2.5q3 -7 8.5 -8t8.5 -2q0 1 2 0.5t0 0.5q5 6 7.5 1.5t8.5 -1.5q-6 3 -4 9.5t-4 8.5q0 -2 -1 -3t-4 1h-2q-1 0 -1 2h3q0 3 -4 5.5t-5 2.5q3 4 8.5 4.5t8.5 0.5q0 6 -2.5 7t-5.5 2q3 2 6.5 1t8.5 -1q19 -11 22 -31.5t3 -40.5q4 -3 2.5 3t2.5 7v-10q2 0 4 2t5 2 q3 4 -0.5 2t-5.5 -1q2 6 8.5 6t10.5 2q0 1 1 1q1 -1 2 -1q-2 -6 -3.5 -15t-8.5 -7q0 -2 -2 -1.5t-2 -1.5l-4 3q0 -2 -1.5 -1t-3.5 1q-4 0 -3.5 2.5t-1.5 2.5q-2 -1 -2 -3t2 -2l-8 -8q8 0 16 2t16 2q0 -3 1.5 -5t1.5 -4q-6 -3 -13 -4t-9 -5q2 2 4 1t5 -1q10 -2 21.5 -1 t16.5 -9q1 -8 4 -15.5t5 -14.5t1 -13.5t-7 -13.5q-4 -4 -10 -4.5t-12 -0.5q2 -9 5 -18.5t3 -17.5q-1 -9 -6.5 -14t-7.5 -11q-6 -7 0 -11q-2 -36 -15.5 -67t-19.5 -65q-2 -15 -4.5 -31t-2.5 -32.5t3.5 -32.5t13.5 -29l65 -129q21 -57 67 -103q10 -13 5 -29l-9 -29 q3 -5 0.5 -7t-2.5 -7q-11 -7 -24.5 -11t-27.5 -7t-28 -7t-26 -10q-26 -8 -53.5 -15t-56.5 -18q5 -3 11.5 -6.5t11.5 -5.5q13 2 23 5.5t21 6.5q5 0 9.5 2.5t8.5 2.5q0 2 5 2q12 2 20 5.5t19 5.5q5 0 9 2q7 -2 9.5 3t7.5 0h1h4q0 -2 -2 -3.5t-3 -1.5h1q-1 0 -3 -3t-4 0 q-2 -3 -6.5 -4.5l-10.5 -3.5q-2 0 -7 -1t-7 -1q0 -5 -4.5 -5t-6.5 -2q-7 0 -13 -3t-11 -3q-14 -3 -28.5 -8.5t-31.5 -7.5q-20 -8 -39.5 -14.5l-41.5 -13.5q-37 -13 -74.5 -22.5t-74.5 -21.5q-57 -20 -116 -35l-116 -29q-2 0 -6 -2t-7 -2q-12 -4 -23 -7t-22 -10h-11.5 t-9.5 -1q-6 1 -8.5 -1t-9.5 2q-3 -4 -6.5 -2t-5.5 1q-5 1 -8.5 1h-7.5q-16 7 -27.5 16.5t-17.5 23.5q0 7 -9 13q0 4 -4 7.5t-4 6.5q-4 11 -9 17t-11 14q-2 2 -1 4t-1 2q-7 6 -11.5 14t-10.5 14q-3 6 -6 9t-3 8h-4l4 2q-6 0 -6.5 5t-5.5 7q0 2 -2 4t0 4q-2 0 -4 4t-4 6 q-3 5 -6 8.5t-3 9.5q0 2 -1.5 5.5t-3.5 5.5q-2 9 -7 11.5t-6 9.5q-3 0 -4 0.5t-3 -0.5v1q-2 0 -5 2t-1 6q-2 0 -3.5 -1t-1.5 1h3q-2 3 -4 8t-4 5l-3 2l-4 2l-5 6q-2 2 -6.5 4t-6.5 8q-4 0 -4 -2q-1 -1 0 -1q0 4 -2.5 4.5t-4.5 0.5q2 2 -2 2.5t-6 1.5q-3 0 -5.5 3.5t-3.5 3.5 h-4q-2 5 -6 4t-4 6q-2 0 -4.5 1.5t-2.5 -1.5v4q-1 0 -0.5 -2t-0.5 -1q0 3 -3 3h-3q-2 2 -4 1.5t-4 3.5l-3 -3q0 3 -2 3h-2h-2q0 3 -2 3h-1q-2 -2 -3 -1t-2 3t-2 3t-3 -2q-4 5 -5.5 3t-3.5 0q-3 0 -3.5 2t-2.5 3q-2 -1 -2.5 0.5t-3.5 -0.5q-2 7 -6 4t-8 -1v2q-2 3 -2 2t0 2 q-2 -3 -4 -0.5t-2 0.5v3q-4 0 -7 3.5t-8 5.5v-3l-4 3h4h-4q5 0 5 1q-1 3 -3 1.5t-2 2.5l-3 -5v5h-3v5q-2 0 -4 1.5t-4 -1.5q2 3 -0.5 4t0.5 1q4 -1 5 2t3 6q-1 -1 -1 0v1q0 2 1 3h4q5 0 -1 2l-3 -2q0 2 -1.5 3t-1.5 -1q5 -2 6.5 2t6.5 1l1 4l-1 2q0 2 -0.5 1.5t-3.5 1.5l4 3 v-3q0 3 4 3l-3 2q2 0 4 -1t5 1v3q2 -4 2.5 -2t2.5 2v2q0 1 -1 1.5t-2 -1.5q-2 3 -5 1t-1 3v3q-1 1 0 1h1q1 0 1.5 -0.5t1.5 -0.5q0 2 2.5 2t2.5 -2v2h4v4h-7q1 0 1 1t-1 1v-2q0 -2 -0.5 -2t-0.5 1q-1 1 -1 3q0 5 4.5 2t4.5 0h-4q3 3 0.5 4.5t-0.5 4.5v-4q0 3 3 4t1 4v1 q0 2 -1.5 3t1.5 4l2 -7q0 7 2 8h-2q0 3 0 1t2 -1v4h4v5v6l-4 -2v1q-1 1 -2 1q0 2 -2 1t-7 1q7 3 14 2t9 2q2 -4 4 -2q1 0 2 2h2l-2 2q2 4 -2 4t-4 1l-3 -1q0 -3 -0.5 -1.5t-3.5 2.5h4l3 4v-4q2 0 1 2t1 2l4 -4h-4h8q6 6 6 0q2 0 2 2v2h-1q-2 0 -3 3v-3q0 2 -3 2.5t-1 2.5h4 v3q3 -4 6.5 -1t7.5 1l-3 3h1q2 0 2 -3l3 3q-2 0 -3 1t-3 1q5 3 8 2.5t5 6.5l-2 4q5 1 8.5 -1t8.5 2q-2 2 -5 3t-1 5q2 -1 3 -0.5t3 0.5q-2 5 -1 10.5t3 11t2.5 11t-2.5 11.5q0 9 9 18l-14 170q0 23 -8 45q-5 3 -10 3.5t-9 1.5q0 3 -3 3h-2q-8 -2 -17.5 -2.5t-16.5 2.5 q-5 4 -6.5 9.5t-1.5 11t-1 10.5t-4 8h-2q-3 5 -4.5 11t-9.5 9q0 -11 1 -25t-9 -20q-11 0 -20 -2.5t-16 6.5q-5 10 -7.5 19.5t-5.5 17.5l-9 4q-3 0 -2 -2t-2 -2q-2 3 -1 4t1 3q3 -2 4.5 -1t3.5 1q-2 4 -5 2.5t-3 2.5t-1.5 5t-1.5 6q2 0 6 0.5t2 5.5q-1 2 -6 0t-7 2 q-1 2 -5 1.5t-5 1.5q1 -8 3 -17.5t6 -17.5q-4 6 -6.5 15t-6.5 17l4 3q7 3 13 2t10 4q0 8 0.5 17.5t7.5 12.5q5 4 13 5t15 4q9 -2 11.5 -8.5t4.5 -13t5.5 -9.5t13.5 3q-2 3 -1.5 7t1.5 7.5t0 6t-6 2.5q-2 1 -4 1.5t-2 3.5q0 4 3 5q0 -1 1 -1h2v1q0 1 2 1h1v-1q2 0 3 1.5 t4 -1.5q0 9 -2.5 18.5t2.5 17.5q1 5 -1 9.5t2 7.5h3q0 -13 8.5 -22t10.5 -23q0 -3 2.5 -1.5t6.5 -0.5q0 2 0.5 3.5t2.5 -1.5q2 -2 10 -2q0 2 2 4t4 2v-2q0 -2 2 -2v4q2 0 4 -2q1 -1 1 -2q2 5 0 10l-57 84q-1 0 0 0.5t3 0.5q5 0 7.5 -5.5t7.5 -7.5q0 -5 4 -6.5t4 -8.5v4 q0 -3 0.5 -4t0.5 -3q3 -1 6 -4.5t3 -9.5q16 -11 24 -26.5t19 -31.5q-2 0 -3 -1q-2 -2 0 -4h3q8 0 16.5 0.5t19.5 3.5l5 -4q-3 3 1 3.5t-1 1.5q3 3 4.5 2t1.5 2q0 2 0 1t-2 -1h-2q-2 0 -2 2l-7 9t-7 8q7 2 13 3t9 5q0 3 -4 3q-7 -2 -11.5 -1.5t-9.5 -1.5q-13 13 -22 31 q-7 -3 -5.5 -8t-5.5 -4q-2 -1 -2.5 -3t-0.5 -4h3q-2 -2 -2.5 -1.5t-0.5 -1.5q-2 7 -6 6t-4 4q0 11 8 16q4 -3 4.5 -1.5t2.5 2.5q0 4 -2 6t-4.5 2.5t-5 2t-3.5 6.5l-5 10q-3 6 -5 13t-11 5q-2 -2 -4 -1t-5 -1q-1 2 -0.5 2.5t0.5 2.5q4 1 4 10h21q0 -4 4 -4.5t6 -0.5 q4 4 2 8.5t-2 5.5q2 9 0 18t3 16q5 -7 14.5 -3.5t14.5 3.5h4q3 -3 6 -2t6 2.5t5.5 1.5t4.5 -4l614 69q5 1 7.5 -1.5t3.5 -6t2 -7.5t3 -7zM967 769v-4l2 4h-2zM953 743q0 -1 -1 -4.5t1 -5.5q8 0 5 2q0 5 -0.5 8t-4.5 0zM1094 733q-2 -2 -2 -5v-6q-2 -2 -5.5 -4.5t-5.5 -6.5 q6 -3 5.5 -9.5t7.5 -3.5q0 4 -5 4q0 4 3 7t5 7q-1 1 -1 3q0 3 5 3q0 3 -2.5 6t-4.5 5zM353 731h3h-3zM254 726q-6 5 -7.5 2.5t-5.5 2.5q0 -4 -1.5 -2.5t-3.5 -2.5q-2 4 -4 1t-4 -1h-4q-5 0 -10.5 -1t-13.5 -1q-2 -3 -1 -8.5t3 -8.5q13 0 25.5 2t26.5 4l3 3t-1 6zM807 720 q0 -3 0.5 -6t5.5 -3q2 -3 5.5 -3t5.5 3q2 2 -2 9q-2 2 -7 2t-8 -2zM685 716q5 -4 -0.5 -3.5t-5.5 -1.5q-6 0 -6 -5t-2 -7q-2 0 -2 5q-4 2 -6 4t-7 -1q-1 0 -1 -3h1q8 -2 8 -10q0 -4 -4 -4q-9 0 -7 6t-1 6t-3.5 -1.5t-1.5 -2.5q-8 6 -15 6q-7 2 -8 -1.5t-3 -4.5q2 -3 1.5 -6 t3.5 -7q6 -6 12 -4q0 7 -3 6t-5 3q-3 0 -3 4t3 5q2 2 2 1t2 -1q3 -1 4.5 -5.5t-0.5 -8.5l2 -2l2 -2q5 3 3 6.5t3 6.5l7 -4q0 -4 3 -4.5t6 -0.5q5 0 6.5 3t3.5 6q4 -7 12.5 -5.5t14.5 1.5l-5 21q-2 2 -4 6.5t-7 -1.5zM1045 716h3v-1q1 0 1 1q-1 0 -2.5 1.5t-1.5 -1.5z M922 716q2 -2 1 -5.5t-3 -3.5q-4 3 -7 0.5t-4 -0.5q-66 -7 -129 -15.5l-128 -16.5l-117 -17l-139 -21q-30 -4 -59.5 -6t-58.5 -9l-2 5l-18 75q-2 4 -7.5 2t-9.5 -2q-6 0 -15 -0.5t-17 -2.5h-2q-1 0 -1 3h-2q-2 0 -2 -3q0 -1 -1 -3.5t1 -5.5l4 4q2 -13 5.5 -26.5t5.5 -27.5 q2 -6 3 -11.5t8 -6.5q6 -5 6 0.5t5 8.5l19 -4q0 -3 0.5 -6.5t3.5 -5.5q8 -4 19 -1t22 1q21 2 43.5 5.5l42.5 6.5l196 26l16 2l198 30q30 4 60.5 9t60.5 8l2 2q8 -4 15.5 -1t15.5 1q4 2 6 4t4 -1q8 3 14.5 4t11.5 5q-11 -2 -22.5 -1.5t-21.5 -1.5q-7 0 -12.5 -2t-10.5 5z M977 704q6 0 6 3h-3q-3 0 -3 -3zM685 707q-2 -2 -3.5 -4t0.5 -4q0 -1 2 -4.5t4 -0.5q3 0 3 4q0 1 -0.5 5t-5.5 4zM233 704h3h-3zM615 702q0 -2 1 -3.5t-4 -4.5q-4 0 -2.5 2.5t-2.5 2.5q-1 1 -2 1t-1 -1l-1 -1h1q-1 -5 -2 -5.5t-2.5 1t-3 3.5t-3.5 2v-1q4 -6 5 -12.5t9 -8.5 v4q2 7 3 3t5 -4h2q2 0 2 1v21h-4zM535 699q-4 0 -2.5 -3t-1.5 -6h-1q-3 0 -6 -0.5t-7 -4.5v-4q-2 -5 3 -6.5t10 -6.5q7 -1 14 4q2 4 -1.5 7.5t-3.5 10.5q-3 0 -2 4.5t-2 4.5zM574 694q-2 -3 0 -4t2 -5q-4 -3 0 -4.5t0 -3.5q3 -2 9 -2q-3 4 -3.5 7.5t-2.5 7.5q0 6 3.5 3 t6.5 -3v8q-8 2 -15 -4zM552 694l-4.5 -4.5t-1.5 -8.5q5 -1 6 -5t6 -4q4 2 6.5 1.5t2.5 3.5q-1 0 -4 -2q-4 2 -6.5 2.5t-4.5 3.5q2 3 4.5 2t6.5 2q-4 4 -6.5 1t-4.5 4q2 3 4 2t4 -3t3.5 -4t3.5 0v5q-3 3 -6.5 5t-8.5 -1zM986 694q-8 0 -14.5 -2t-13.5 -2q0 -1 1 -3q2 -4 2 -6 q5 -10 13.5 -5.5t16.5 4.5q-2 4 -2.5 7.5t-2.5 6.5zM995 694v-13q3 -1 6 -3t3 -6t1 -4q0 -1 1 0q0 3 1 4t-1 3q2 2 5 1t5 1q-2 6 -8 10t-13 7zM482 694v-4h3zM464 690q-1 0 -1.5 -0.5t-2.5 -4.5q3 -4 8 -4q0 2 -2 6q-1 2 -2 3zM492 681v-1h3q-2 -6 2 -9.5t2 -7.5h2v5 q2 5 -2 9.5t5 7.5q2 0 4 -0.5t5 -3.5v4q-11 9 -21 -4zM531 685q-4 4 -5 0t-4 -5q1 -2 2.5 -2.5t1.5 -2.5h4q1 -2 3.5 -2t2.5 4q-1 2 -1.5 3.5t-3.5 4.5zM485 681q0 -3 0.5 -6t4.5 -3v3q-2 2 -1.5 4t-3.5 2zM509 680l-2 -3q2 -2 3 -9t7 -1q-2 4 -3 8.5t-5 4.5zM464 680v-5v2 v3zM1116 677v-2h4v2h-4zM152 667q-2 0 1 -2.5t3 -5.5q4 0 4.5 1t0.5 3t1 3.5t4 1.5q-2 3 -6 1.5t-8 -2.5zM470 668q-2 0 -3.5 -1t1.5 -4q2 -3 5.5 -3.5t8.5 -0.5q-3 4 -10 4q-3 3 -1.5 4t-0.5 1zM983 668v-1v1zM482 663q0 -4 1 -4q1 -1 2 0q2 3 3.5 4t1.5 4q-2 4 -4 1.5 t-4 -5.5zM973 668l-4 -1q0 -3 2 -3.5t4 -0.5v4zM975 668q0 -2 1 -3q0 -1 1 -2v4q0 1 -2 1zM166 667v-4q1 -1 2 0q2 0 2 4h-4zM195 663l2 -4q-2 -1 -4 1t-4 -1q5 -1 7 -4l4 -6q0 -2 -2.5 -1t-0.5 -1q0 -3 1 -3h2q4 2 1.5 5.5t4.5 3.5q0 -5 -1 -8t6 -8q0 -1 0.5 -3t2.5 -2 q2 4 -0.5 7t-4.5 8q0 2 1 4t-1 4q-2 3 -6 7t-8 1zM1014 663q0 -4 1 -4q0 -1 1 0v4h-2zM321 655q-3 -2 -1.5 -5.5t1.5 -5.5q3 0 5.5 -2t4.5 -2q4 3 3.5 5t-0.5 4q-6 11 -13 6zM999 653q-6 -5 -12 -5.5t-14 -0.5v-3q3 -3 3 -8t5 -4q6 4 15 5.5t8 11.5zM192 644h-3h3zM187 636 h-5l5 -4v4zM576 636h3h-3zM563 632q0 3 1.5 2t1.5 2q-1 -1 -2 -1q-1 -1 -1 -3zM558 632h-4h-2h6zM548 632h4h-4zM546 632q-15 -1 -28 -3.5t-26 -5.5zM1070 622q-7 0 -11.5 -3.5t-9.5 -3.5q-11 -5 -23.5 -8t-21.5 -8l2 -3q5 -2 10 -5t10 2q14 -2 25 5t24 7q10 -7 17.5 -2 t17.5 5h-16q-4 2 -3.5 6t-2.5 4q1 4 2.5 4.5t1.5 4.5q-7 -3 -12.5 -2t-9.5 -3zM487 623h-2v-1zM273 622q0 -3 1.5 -4.5t1.5 0.5v4q0 1 -1.5 1t-1.5 -1zM200 622v-4q1 2 1 3zM763 622l-3 -4h3q-2 0 -2.5 -2t-2.5 -1v3h-3l-1 1l-1 -1q-5 0 -6 -1.5t-3 -1.5t-2.5 -0.5t0.5 -0.5 h2l-4 -4v4h-2q0 1 -2 1q-3 -1 -5 0.5t-4 -1.5h-4q0 -3 0 -1.5t-1 1.5h1h-1q1 1 0.5 -1.5t0.5 -4.5l4 2v-2l-4 2q1 -1 2 0q2 0 2 4l3 -6q2 0 4 2.5t2 -0.5h2q6 -2 4.5 1t3.5 4q2 -1 4 -1.5t-1 -3.5q5 0 3 2t1 3q0 -4 2.5 -2t2.5 1q2 1 4 0.5t4 -0.5q-3 1 -3 8zM738 615h-2v-1 zM715 614q2 0 0.5 -2t-0.5 -4v2q0 1 1 1q1 -1 2 -1v4h-3zM295 614q0 -4 5 -4v4h-5zM276 610q0 -2 3 -1t5 -1q-2 2 -4 3.5t-4 -1.5zM707 610v-2v2zM701 610v-5h4q0 2 -2 2.5t-2 2.5zM997 610q-6 -2 -11.5 -2.5t-8.5 -8.5q3 -5 0.5 -7t-0.5 -4q5 0 7.5 1.5t6.5 1.5q7 0 4 5h-9 q1 4 4.5 4.5t6.5 0.5t5.5 0.5t1.5 6.5q0 5 -2.5 3.5t-4.5 -1.5zM718 610v-2v2zM696 608q-2 0 -2 -3t2 0v3zM710 608h4h-4zM200 601q0 -5 9 -5q4 2 -0.5 4t2.5 5q-9 0 -11 -4zM669 605v-4v-2q2 0 2 1v1h-2v4zM641 601v-2v2zM597 601q1 -6 -2 -3t-6 1q3 0 1.5 -0.5t-1.5 -2.5 q-3 2 -5.5 0t-4.5 0h-3v-3q-7 2 -5.5 -1t-3.5 -1q-1 0 -2 1.5t1 3.5l-3 -5q-4 4 -6.5 1t-4.5 1q0 -2 -2 -1t-4 -1q-5 2 -8.5 -1.5t-7.5 -3.5q-1 -1 -1 -2q-1 -1 -3 -1q0 2 -1.5 1.5t-1.5 1.5q-1 2 -4 0t-5 0q-2 -5 0 -9l8 2q0 -1 1 -1t3 1q7 -2 15 0.5t16 -0.5q1 5 4 3t6 1 l4 3v-3l2 2q2 2 3 1q2 2 4 1t5 1l4 -2q4 2 15 2q2 0 5 1.5t1 3.5q0 6 1.5 1t3.5 -3q3 4 4.5 2t3.5 0q0 2 -1 1.5t-1 1.5v3q-2 -5 -3 -6.5t-6 0.5h3v6q-3 0 -5 -3q-2 2 -4.5 2.5t-4.5 2.5h3q-2 -2 -4 -1t-3 1zM655 599v2v-2zM217 601l-3 -2h3v2zM634 601v-8q-1 1 -1 3 q0 3 1 3v2zM648 596v5l-1 -2zM1008 599l4 -3q2 0 1 0.5t1 2.5q0 -3 1 -3h1v3h6q-2 2 -6.5 2t-7.5 -2zM626 599q3 -2 1.5 -3t-1.5 -3h4q1 1 1 2q0 2 -1 4h-4zM303 599q-9 -2 -17 -3t-17 -3q0 -5 3.5 -8t5.5 -8l6 2q4 0 10 1t12 6q-2 2 -1 2.5t1 4.5zM641 599v-3h1zM262 593h5 v3q0 2 -2.5 0.5t-2.5 -3.5zM715 591q-4 -9 -4.5 -20t-0.5 -23l5 -1q2 -5 -3 -4.5t-7 -1.5q7 -7 9.5 -3.5t7.5 3.5q8 5 14 0.5t13 -7.5q3 -2 5.5 -5.5t-1.5 -7.5q4 -5 6.5 -11t8.5 -6q5 2 3 7t1 8q24 4 49 7.5t48 7.5l-94 -10q-5 2 -7.5 7t-7.5 10h3q-4 0 -8 6q4 0 6.5 0.5 t4.5 -0.5q2 1 5.5 1.5t3.5 2.5q-2 3 -4.5 3.5t-4.5 0.5v-4q-5 3 -4.5 0t-1.5 -3q-2 -1 -3.5 1t-3.5 2q0 4 5 4h-9q-7 11 -11 19t-11 19q-3 0 -6.5 -1t-5.5 -1zM723 586q-1 2 -3.5 -1t-4.5 -6q2 -5 0.5 -8t-0.5 -6q5 0 9 0.5t8 3.5q0 3 -3 7.5t-6 9.5zM531 586l4 -3v3h-4z M507 583q-2 0 -1 -2t3 -4h-2h2q3 0 2 1t2 1h-4q3 3 1.5 3.5t-3.5 0.5zM589 583q-3 -14 -9 -27t-6 -27q4 -2 6.5 -3.5t8.5 0.5v6q0 2 2.5 4t5.5 2q1 -3 2.5 -5t1.5 -4q0 -1 4 -1q1 0 2 1q9 4 5.5 12.5t-5.5 14.5q-9 13 -10 23q-4 0 -6 2q-2 1 -2 2zM492 583q-2 -5 -0.5 -6 t3.5 -4q3 0 2 2t2 4q-3 0 -4 2t-3 2zM501 583q0 -3 0.5 -6.5t2.5 -3.5v4q0 2 -3 6zM485 579v-2q1 -2 2 -3t1 -1.5t-1 0.5l3 4q0 2 -5 2zM482 579q-5 0 -4 -1.5t1 -4.5l3 6v-2v2zM317 577l-3 -6q-6 5 -12 2.5t-13 -4.5v-4l19 4q5 2 7.5 1t5.5 -1q0 4 -4 8zM468 577v-4h-4 l4 -2h2zM463 573h-3h3zM425 571q-2 0 -2 -1t2 -1l1 2h-1zM418 569q-3 0 -1.5 -0.5t1.5 -3.5q-6 6 -12 4h3l-3 -4q-2 5 -4 2.5t-5 -2.5q-1 3 -3.5 1t-4.5 -1q-2 -4 -5.5 -0.5t-8.5 -0.5v1h-1q0 -4 -5 -2t-7 1l2 -4h-2v-4h4q0 -1 4 -0.5t4 -0.5h5q7 0 13 5q0 4 4.5 4h6.5v-4 l3 4q2 1 4 -1t4 1q0 1 2 1.5t4 3.5q-2 2 -1 2t-1 -2zM278 569q0 -5 3 -5q0 1 -0.5 3t-2.5 2zM589 565q0 -4 -1.5 -8t1.5 -10q3 1 6.5 0.5t5.5 0.5q0 6 -2.5 11t-9.5 6zM150 565q2 -4 8.5 -4t11.5 3q-5 1 -7.5 0.5t-6.5 -0.5q-3 0 -3.5 2t-0.5 -2zM122 564v-2q0 -1 3 2 q0 1 -2.5 0.5t-0.5 -0.5zM182 560q7 0 7 4q-2 0 -4 -2q-2 -1 -3 -2zM727 560l-5 -5q4 -3 6.5 -1.5t7.5 1.5q-3 1 -5 1.5t-4 3.5zM343 556h-9t-9 -1l4 -4q0 -2 2.5 -3t2.5 0h2q2 0 3 3t5 0zM125 555l5 -4v4q5 0 9 1q-10 0 -14 -1zM1145 555h-5h-3q-5 -11 2 -14q3 -3 12 -3 q3 0 5 2t0 7q-1 1 -3.5 4.5t-5.5 3.5q-2 -3 -1 -6t-1 -6v12zM241 555q-8 -3 -16 -4t-16 -4q0 -3 3 -3.5t5 -0.5q2 -2 -2 -2.5t-4 -2.5q6 0 12.5 0.5t12.5 2.5v-3q-4 -3 -9 -5l-10 -4l11 -19q-9 -10 -19 -6q-3 3 -3 6q-5 4 -5.5 9.5t-5.5 9.5q-6 4 -11.5 9t-13.5 3q4 0 4 -7 h-4q6 -6 12 -8t10 -7q0 -3 2.5 -6.5t2.5 -5.5q-4 2 -7.5 7t-7.5 5q14 -10 18 -21q0 3 -2 5t2 4q3 -2 4 -5l2 -6t3 -6t8 -5q35 6 72 10.5t73 11.5l8 -3q-5 5 -7.5 11.5t-9.5 8.5q-17 0 -31.5 -3t-30.5 -6q-8 -4 -14 -2t-10 6.5t-7 10.5t-6 11q-3 1 -3.5 3t-1 4.5t-2 4.5 t-6.5 2zM172 555v-4v4zM1097 551l-166 -25h-11q-8 -4 -16 -4.5t-16 -0.5q-31 -7 -62.5 -10t-62.5 -9v-5h-5t-3 1l-192 -31l-282 -45q-6 -3 -12 -2.5t-11 -4.5q28 2 55.5 8.5t56.5 8.5h5l39 5q3 -4 3.5 -8t2.5 -6q0 2 -0.5 7t-5.5 7h4q4 5 4.5 1t2.5 -6q0 -2 -2 -2.5t0 -3.5 q0 -3 5 -3q4 3 3.5 4.5t-2.5 3l-4 3t-2 3.5q6 6 7 1.5t3 -4.5q0 2 -1 4t1 2q5 3 6 -1.5t3 -4.5q0 6 -2 6q5 6 6.5 1.5t3.5 -4.5q0 2 -1 3t-1 4q6 3 6.5 -3.5t5.5 -8.5q0 4 -2 6.5t-2 5.5q5 3 6.5 -0.5t5.5 -3.5l-4 5q5 5 5.5 1.5t2.5 -6.5v5q5 5 6.5 2t3.5 -3v1q0 1 -1 1 t-2 2q5 2 6.5 0t2.5 -5t2 -5.5t5 -0.5q5 -2 4.5 -7t-0.5 -7q2 -8 8.5 -7t9.5 -1l84 17l268 48l-80 -15l-272 -47v4q0 4 5 4l152 26l348 60q0 2 -1 3t1 4q-2 2 -4 1.5t-2 3.5h4v2q-4 0 -4 1q-1 1 0 2q-2 2 -3 4t1 5q2 2 2.5 -2t3.5 -4v6q2 4 4 -1t3 -5q0 1 -0.5 2t-0.5 2v2 q3 4 4 0t4 -6v6q1 3 2 2.5t1.5 -2.5t1.5 -4t3 -2l-4 9q5 2 6.5 -1t3.5 -6q0 7 -3 7q3 5 4 1t4 -4q2 2 -0.5 2.5t0.5 2.5q4 3 3.5 0t1.5 -5q2 2 1 2.5t-1 2.5q5 4 6 1t3 -3q0 2 -2.5 2.5t2.5 3.5q2 0 2.5 -2t2.5 -4q-4 -5 1.5 -8t5.5 -9q-5 -2 -8.5 -0.5t-5.5 -2.5 q-7 0 -12.5 -1t-10.5 -1q-3 0 -4.5 2.5t-1.5 4.5q-5 5 -7.5 1t-6.5 -6q6 0 5 -3.5t0 -7.5q4 -8 15 -3l3 8q19 3 36 6t35 5q-2 6 -5 12.5t-9 12.5h-5zM844 551q-5 0 -2 -3q2 0 5 3h-3zM312 548q-7 -1 -15 -1.5t-13 -3.5q0 -7 2 -12.5t9 -9.5v-2h3q0 4 5 7q2 -4 7.5 -4t10.5 2 h-4q0 2 2 2h2q-3 6 -1 14t-8 8zM669 548h-5h5zM1089 548q2 -1 7 -1.5t5 -5.5q-3 2 -8 1t-10 1l5 5q-5 -1 -9.5 -0.5t-6.5 -0.5q2 -5 4.5 -6t4.5 -3q-2 -5 2.5 -6t4.5 -3l-5 -3q7 0 14 2t15 4q-11 10 -10 16q-4 0 -6.5 1t-6.5 -1zM647 547h-5l5 -4v4zM696 547q-2 -3 1 -5 q2 -1 4 -1l-2 2q2 4 4 2.5t2 1.5h-9zM777 543h4q0 3 -0.5 1.5t-3.5 -1.5zM180 541h7q-7 3 -7 0zM189 541q5 0 4.5 -3.5t3.5 -5.5v2q0 4 5 4q-3 6 -13 3zM1083 541l5 -7q3 -2 6.5 -2h6.5q0 7 -6.5 7t-11.5 2zM699 532q6 0 13.5 1t14.5 1h-13.5t-14.5 -2zM1006 534 q2 -2 2.5 -4t3.5 -4v6q0 1 -1 2q-2 2 -5 0zM999 534q-1 -3 1 -4.5t4 -2t3 -2t-1 -4.5q-2 4 -5.5 5t-3.5 6q-2 2 -2.5 1t-3.5 -1l4 -3v-3q-3 0 -3.5 2t-2.5 4q-6 0 -3.5 -3t0.5 -3q-3 0 -3 6q-2 -2 -2.5 -1.5t-3.5 -1.5q3 0 4.5 -1.5t-0.5 -3.5q-3 0 -3.5 2.5t-2.5 2.5l-1 1 q-1 0 -1 -1q2 -2 3 -5t-1 -5q-2 2 -2.5 5t-3.5 5q-6 0 -3 -3t1 -5q-4 0 -4 2q-1 1 0 3q-2 0 -2.5 1t-2.5 -1q6 0 3 -5q-2 0 -3 1.5t-3 3.5h-2v-5q-2 -2 -2.5 0.5t-0.5 4.5q-2 0 -2.5 -1t-2.5 -1q2 -4 5 -5.5t3 -6.5q0 -2 1 0t1 -2h-2v-6q6 2 11.5 3t10.5 3l-2 2l-4 -2 q-2 0 -1 1t-1 1q5 5 10.5 6t11.5 1q0 2 1.5 3t4.5 -1q2 -2 5.5 -1t5.5 -1q0 2 3 1t3 1q-5 2 -6.5 7.5t-6.5 5.5zM172 529l-2 3zM691 532h-9l-5 -3zM62 532v-3h2zM152 526q-2 -2 -7 -1t-1 -6q0 -3 2.5 -2t5.5 -2q3 3 4.5 5t4.5 4q-4 2 -9 2zM566 512l30 4.5t30 2.5 q5 0 1.5 -2t-1.5 -2q3 0 7 0.5t1 5.5q13 5 26 5q-23 -4 -48.5 -6.5t-45.5 -7.5zM1014 524h-2l2 -3v3zM938 524q0 -2 2 -4t2 -5l3 4q0 2 -1 4.5t-6 0.5zM931 524q0 -7 5 -7t2 -7h4q-3 2 -4.5 8t-6.5 6zM928 521h-4q0 -2 1.5 -2.5t-1.5 -3.5q-2 0 -2 2t-2 4q-5 0 -1.5 -3 t1.5 -3q-4 0 -4.5 2t-1.5 2q-4 2 -2.5 -1.5t-1.5 -5.5q-1 0 -1 7q-5 0 -2 -5t2 -7q-5 2 -6 5.5t-3 6.5q-5 0 -2.5 -3.5t2.5 -5.5q-4 0 -6 2q-1 1 -1 3h-5q0 -2 2.5 -2.5t0.5 -2.5q-2 0 -4 5h-4q0 -2 1.5 -4t-1.5 -4q-3 1 -3 4v1h-2v-2q7 -5 5 -9t0 -8h4q-2 1 -2 2q-2 2 2 2 q1 4 2.5 2t3.5 -6q7 0 9 4v1l-2 2q-2 2 0 4h2h8v-2h-1q-1 0 -1 -2q0 -1 1 -2q0 -1 1 -1q0 1 -0.5 1.5t0.5 3.5l4 -4h6h2q2 0 1 2t1 2l4 -4q0 6 3 6v-2h5v8q-4 2 -4.5 5.5t-3.5 5.5zM749 519h-5l-413 -71l-33.5 -4t-30.5 -7h11q6 6 15 5t15 3l58 7l383 63v4zM334 515 q1 0 3 -2q1 -1 2 -1l-5 3v-3q0 -2 5 -2q3 2 7.5 2.5t4.5 2.5q-10 6 -17 0zM182 512l-2 3v-5l2 2v-2l5 2q0 -2 1 -4t-1 -6q0 2 -2.5 2.5t-2.5 2.5q0 -3 5 -5h-5v2h-2v-6q-12 -1 -24 -3.5t-23 -4.5h1q1 -1 1 -2l4 -7q4 0 8 -2t9 1v-4q11 0 20.5 2.5t20.5 1.5l3 1 q0 12 -3.5 18.5t-9.5 12.5h-5zM989 515l2 -3q2 0 3 1q0 1 1 2h-6zM1008 515q-2 0 -2 -2v-1q2 0 2 3zM967 515h-9l5 -5zM563 512h-5l-118 -19zM945 512v-10q6 0 3.5 3t1.5 5zM861 510q2 -5 4 -4.5t4 -3.5q-2 2 -3 7t-5 1zM869 512l2 -8q3 0 3 1v2q-2 0 -1.5 2.5t-3.5 2.5z M125 510v-3q4 0 5 3q-1 1 -3 1q-1 0 -2 -1zM856 510v-3v-3q-4 0 -4 6q-5 0 -5 -3l2 -2q2 -2 -1 -3q-3 0 -2.5 4.5t-3.5 0.5q0 -2 1 -3.5t-1 -1.5t-3 1.5t-4 3.5q-4 0 -0.5 -4.5t0.5 -5.5q-2 0 -2.5 2.5t-2.5 4.5q0 1 -2 1q-1 0 -2 -1q0 -2 1.5 -2.5t-1.5 -3.5q-2 0 -2 2 t-2 4h-2q0 -3 1 -4q0 -1 1 -2q-5 -1 -4.5 2.5t-4.5 1.5v-5q-5 0 -4.5 4.5t-4.5 0.5q-1 -4 5 -7t2 -7q0 -2 1 -4.5t1 -3.5q2 0 4.5 2t4.5 -1q6 -1 3.5 3t0.5 4l4 -7q2 0 1 3.5t-1 5.5q-3 0 -4.5 -2t-1.5 2q2 0 4.5 1t6.5 -1v3q3 0 5 1.5t4 -1.5q0 -2 -3 -2.5t-6 -0.5 q0 -5 4 -5q5 0 8 3q0 4 4 4t1 5q7 0 4 -3.5t0 -5.5h5q-3 4 -1.5 7.5t1.5 6.5q0 2 -0.5 5t-4.5 3zM986 510h-5h5zM182 507h-2h2zM1145 507v-5q2 -3 6.5 -4t7.5 -1q-2 4 -5.5 6t-8.5 4zM910 504q3 -5 6.5 -1.5t5.5 1.5v3q-2 0 -5 -1.5t-7 -1.5zM938 507v-5q0 2 1.5 3.5 t-1.5 1.5zM1116 504q3 -5 4 -8.5t3 -5.5q1 2 4 1t5 -1v8q-5 11 -16 6zM1036 502q-5 0 -4 -3t-2 -6q3 -4 6 -3.5t6 -1.5v10q0 5 -2 4.5t-4 -0.5zM874 502v-4h-5l1 -1h-1l-5 1q0 -1 2 -1q0 -4 -2 -7q2 -2 5 -1t5 1q0 2 -1.5 3t-1.5 4h3q-2 1 1.5 1.5t-1.5 3.5zM902 502v-4h4v4 h-4zM797 498l6 -1v-2q0 -1 0.5 -0.5t0.5 2.5q-1 1 -1.5 3.5t-5.5 -2.5zM790 498l4 -5v5h-4zM785 498v-1l4 -7l1 3q-1 0 -1.5 2t-3.5 3v0zM1094 497q-11 -5 -25.5 -7.5l-26.5 -4.5v-4l-6 -1q2 0 2 -2t-2 -2q-4 -4 -9 0q2 4 -1.5 4t-5.5 1q0 -4 3.5 -6t6.5 -4q0 -3 -2 -4.5 t-1 -3.5v2q2 5 5.5 2.5t5.5 -2.5q0 -2 2.5 -4t4.5 -2q0 -2 1.5 -2.5t1.5 -2.5q0 -1 5 3q-3 5 -4.5 6t-3.5 4h3q6 0 9.5 -5t3.5 -10q11 2 17.5 8t13.5 14q2 5 8.5 5.5t13.5 1.5v4q-3 2 -9 -0.5t-11 0.5q5 4 11 4.5t11 0.5v3q-1 4 -3.5 4.5t-5.5 0t-6.5 -1.5t-6.5 1zM781 497 q-7 1 -4 -2t0 -5q-2 0 -2.5 2t-2.5 5l-4 -4l2 -2q2 -2 2 -3q-5 0 -5.5 3t-0.5 6q-6 -3 -2 -7t2 -9q-5 3 -5.5 6.5t-2.5 5.5l-3 -3q4 -2 2 -4t-2 -6q8 0 11 1q5 0 10.5 1.5t8.5 -1.5q0 -1 -2 -0.5t-2 -0.5v-4q6 -1 7 0t-0.5 2.5t-3 4t0.5 5.5zM129 493h4q-4 5 -4 0zM847 497 q0 -4 5 -4zM27 493l4 -8q0 5 -4 8zM425 490q5 0 7 0.5t6 2.5q-4 0 -6 -1.5t-7 -1.5zM749 493q-2 -2 0.5 -4t-0.5 -4q-4 0 -4 3.5t-5 1.5q0 -2 1.5 -4t-1.5 -5q-2 3 -2 5t-2 4h-2q-2 0 -2 -2l4 -7h2l2 -5l4 5q2 -1 1 -4.5t-1 -5.5h2q-2 3 3 9q5 -3 4.5 1t1.5 4q-2 2 -2.5 5 t-3.5 3zM202 488v2v-10v8zM144 485q4 -4 13 -4q3 0 5 2.5t4 4.5q-4 4 -10.5 2.5t-11.5 -5.5zM423 490h-5l-15 -2zM789 488v-3h1q0 3 -1 3zM723 488l7 -7h2q-2 3 -3 6t-6 1zM718 488q3 -2 2 -5t2 -2q1 3 0 6t-4 1zM403 485h-6h6zM714 485q-5 0 -2 -2t2 -3h-4q-3 0 -3 -4 q-8 0 -8 9q-3 0 -3 -2v-2q1 0 1 -1q0 -2 -1 -4q-2 0 -2.5 2.5t-2.5 2.5h-3q2 -1 2.5 -4.5t2.5 -5.5q-4 0 -5 4.5t-3 5.5q-3 0 -6 -1q2 0 2.5 -2t0.5 -4q-3 0 -4 3q-1 1 -1 3q-6 1 -3.5 -1.5t0.5 -4.5q-2 0 -5 6h-5l5 -9q-3 0 -5 2q-1 1 -1 3q-2 0 -3 1.5t-4 -1.5q0 -4 4 -5 t3 -6q-2 -1 -4 -1q-3 0 -3 1v-6h-1q-2 5 -3.5 11t-9.5 4q0 -5 5 -6.5t5 -4.5h-5q-5 0 -5 4q-1 0 -1.5 3.5t-2.5 3.5q-5 0 -1.5 -2t1.5 -5q-5 0 -5 3.5t-3 3.5h-2q-2 0 -2 -3q3 0 3.5 -2t0.5 -4h-4v2q0 4 -5 4q0 -3 1 -3.5t-1 -2.5h-2q0 2 -1 5t-6 1q0 -5 1.5 -7t1.5 -5 q-2 0 -3 2t-1.5 4.5t-2 3.5t-4.5 -2q3 -2 3 -4q-5 0 -4.5 1t-1.5 3h-4q1 -2 2 -3.5t-1 -4.5q-1 0 -1.5 3t-3.5 5h-2q-2 0 -2 -2t3.5 -4.5t0.5 -6.5l-4 -2l8 -4q-4 0 -6 2q-2 1 -2 2v-7q-1 0 -1 1q-2 2 -3 2q-8 3 -5 7.5t-1 9.5q-5 0 -5 -2q2 -3 3.5 -6.5t1.5 -8.5 q-4 5 -5.5 11t-6.5 4v-6q3 0 6 -0.5t1 -4.5v-2q0 -2 -3 -2v4q-4 2 -5 4t-3 7q-7 2 -4 -2.5t-1 -6.5q-1 0 -1.5 2.5t-2.5 2.5q-1 0 -1 1q-1 0 -1 -1q0 -2 1 -3.5t-1 -3.5q-3 0 -2 2.5t-2 4.5q-4 0 -4 -2q0 -1 1 -2q0 -1 0.5 -1.5t0.5 -1.5q-5 0 -6 1.5t-1 3.5q-2 0 -2.5 1 t-1.5 -1q1 -2 2.5 -6t1.5 -6q-3 0 -4 5t-4 7q-6 0 -3 -3t2 -6q-5 0 -3.5 4t-4.5 2q0 -2 0.5 -4t-0.5 -2q-4 0 -3 3t-5 3q-5 0 -1.5 -3.5t1.5 -5.5h-1q-4 2 -4 5q-1 1 0 2q-2 0 -2.5 1t-2.5 -1q2 -3 1.5 -5.5t3.5 -2.5q0 -1 1 -2q0 -1 0.5 -2.5t-1.5 -2.5l4 -3v3 q3 2 1.5 -0.5t-1.5 -4.5q3 -2 7.5 -1t9.5 1v2q1 3 5 3v-3h-4v-2q4 2 9.5 2h11.5v3q2 -2 5 -1t9 1q8 2 15 3t16 5q-6 2 -2.5 3t3.5 4l-1 -4v4q0 2 0 1t1 -1v2q0 -2 2 0t4 0v-9q8 2 18.5 3t18.5 4q5 2 9.5 1t5.5 1q5 0 10.5 1.5t7.5 1.5q0 2 1 4t-1 4h5q0 -2 -1 -4t1 -4 q3 2 9 2q4 -2 5 2t3 4h-8q0 2 5 2q2 -2 3 3t5 1v3q3 -2 5 -1t4 1q4 -2 4 -4.5v-4.5q3 -2 4 0t4 0l1 9l-5 2l-2 2q-2 2 -1 3zM1123 485l1 -4l-1 -1h6q3 0 3 5h-9zM356 481q8 -4 16.5 -1.5t16.5 5.5q-8 0 -16.5 -2.5t-16.5 -1.5zM701 485l4 -5l2 1q0 4 -6 4zM898 481h2h-2z M353 481h-2h2zM723 480q3 0 2 -4t2 -2zM768 480v-6q5 0 6 1.5l3 4.5h-9zM1008 480q-77 -16 -154 -28t-158 -26l-157 -27q-3 6 -9 3t-13 -3q4 -2 2 -5t-2 -4q-2 0 -2.5 0.5t-1.5 0.5q-5 -1 -5.5 -4t-0.5 -8q2 2 4 2h3q6 -2 3.5 -5t4.5 -3q0 -6 4 -10t5 -6h4q0 2 -0.5 5.5 t-4.5 5.5l1 1q0 -4 4 -4q8 0 8.5 4.5t2.5 9.5q13 6 28 6.5t27 5.5l171 32l63 11l177 31q-3 5 0.5 4.5t1.5 4.5q0 5 -1.5 5.5t-4.5 0.5zM49 480q0 -4 -3 -4q-1 -1 -2 0v-2h-3q0 -2 -0.5 -4.5t-0.5 -4.5l9 6v9zM1134 467q2 0 3.5 4t1.5 9q-5 1 -5 -4.5v-8.5zM214 480l-3 -26 q0 -7 -5.5 -8.5t-10.5 -1.5q2 -3 5 -3.5t6 -0.5q6 6 7 17.5t1 22.5zM760 476l3 -2v2h-3zM656 471q-1 2 -1.5 5t-2.5 0l3 -11v4q0 1 1 2zM1038 476v-1q0 -2 -2 -4q2 -4 9 -4q2 0 1 2.5t-1 4.5t-2 1t-5 1zM749 476v-5h4q0 5 -4 5zM727 471l-4 -6h7q-3 1 -3 4v2zM710 471 q0 -4 -3 -6l-1 2h-1q-4 -2 -6 -4q2 -4 2 -2v2q3 -3 5 -0.5t4 0.5q3 2 1.5 3.5t-1.5 4.5zM298 471h2h-2zM682 465q0 -2 1.5 0t1.5 0q2 5 -1.5 3.5t-1.5 -3.5zM1020 467v-10q0 -1 1 -1q4 0 5 1q-3 2 -2 5t-4 5zM581 465l4 -6h4q0 10 -8 6zM75 459h-3l3 -2v2zM634 457 q-1 -1 -1 -2q0 -2 1 -3q4 2 4 7zM610 454h-3v-2zM501 452l-6 -4l6 -4q5 0 2.5 2.5t-2.5 5.5zM487 448q2 0 2.5 -2t2.5 -2v1l3 3q0 3 -3 1.5t-5 -1.5zM585 448h-4h4zM1045 448v-3q4 0 8 3h-8zM574 444q0 1 2 1q-2 2 -3 0.5t1 -1.5zM558 445l-1 -1zM699 440q6 0 11 2t8 2 q-6 0 -10 -2t-9 -2zM693 440h6q-2 0 -3 -1t-3 1zM691 437h-3l-152 -25q-4 5 -9 2.5t-10 -2.5l-1 -2v-1h1l22 3zM1048 432q-2 -5 1 -7.5t0 -6.5h4q-3 4 1 5.5t2 6.5q-2 3 -4.5 2.5t-3.5 -0.5zM406 432l3 -6q-2 0 -3 -1.5t-3 -1.5q0 -1 0.5 -3.5t2.5 -4.5q5 0 5 7q2 0 1 -2.5 t-1 -4.5q-2 0 -1 -1.5t-1 -1.5l-25 -5v11q0 4 -3 6.5t-7 5.5q4 -6 5 -14t5 -12l56 8.5t55 10.5v3q-4 0 -6.5 -1.5t-6.5 -1.5q-9 2 -14.5 -1t-11.5 0q-11 -3 -21 -6.5t-21 -3.5q0 5 2 6t4 4l-2 1q0 5 -5 4.5t-7 4.5zM384 430q2 -3 4.5 -1.5t7.5 1.5q-3 2 -6.5 1t-5.5 -1z M909 426q0 -8 -1 -16.5t1 -18.5q1 0 1.5 2.5t3.5 2.5l1 27q-1 2 -3 2.5t-3 0.5zM396 422q0 -7 5 -7q2 2 -1 3t-4 4zM336 418h3h-3zM928 418q-3 -5 -3.5 -9t-0.5 -10q0 -2 2.5 -5t4.5 -3q4 6 3 11.5t2 9.5q-3 2 -4.5 4t-3.5 2zM329 415l15 -6q-1 7 -6 5.5t-9 0.5zM245 415v-8 h1q-1 2 -0.5 4t-0.5 4zM495 412l-5 3q-36 -8 -73 -13.5t-73 -14.5l148 25h3zM1110 404q3 0 3.5 3t0.5 5q-3 0 -3.5 -3t-0.5 -5zM334 401h5q3 0 4 1t1 2q-1 2 -6.5 2.5t-3.5 -5.5zM487 407q-4 -2 -8.5 -2.5t-10.5 -0.5v-3q6 0 10.5 0.5t8.5 2.5v3zM1042 404q-3 0 -4.5 1 t-3.5 -1q0 -6 4.5 -5.5t9.5 0.5v2q-1 0 -2 1q-2 2 -4 2zM803 399q0 -2 1 -5t3 -3v5q0 3 -4 3zM470 391q0 -3 2.5 -5t-0.5 -5q3 -6 3.5 -13.5t0.5 -17.5q2 4 4.5 2.5t4.5 2.5q-2 6 0.5 11t6.5 11q2 3 8 2.5t4 5.5q-4 8 -14.5 9t-19.5 -3zM936 390q0 -2 1.5 -1.5t4.5 -1.5 q0 3 -3 3.5t-3 -0.5zM1094 390q2 -2 5.5 -7.5t10.5 -5.5q-4 3 -7.5 8t-8.5 5zM343 390l-13.5 -4t-12.5 -5q4 3 11.5 3.5t14.5 0.5v2v3zM468 385q-11 0 -21.5 -2t-23.5 -4l-3 2q-2 5 -5.5 2.5t-5.5 -2.5q2 -3 3 -8.5t6 -7.5q0 -5 -3 -6.5t-1 -3.5q3 0 7 0.5t4 3.5 q11 3 21.5 5l21.5 4q3 1 2.5 5.5t-0.5 7.5zM303 381q2 -2 2.5 -1t2.5 1h-5zM663 365q14 0 27 5t25 11q-14 -3 -27 -8t-25 -8zM932 379q0 -2 -1.5 -1t0.5 -1h1l4 -4q0 4 -4 6zM924 377q1 0 3 -2q0 -1 1 -2zM499 377q-12 -11 -12 -22q2 0 5.5 1t6.5 1l-4 16q3 0 5 2.5t4 -2.5 q0 -6 4 -11t1 -12q3 0 3.5 -1.5t1.5 -1.5q0 6 -2.5 8t-2.5 4q3 3 4.5 2t3.5 2q0 2 -4 2.5t-4 2.5v-2q0 -1 -2 -1v4q0 6 -3 7t-5 1zM981 377q0 -7 1.5 -11l3.5 -9q4 0 5 1t6 1q-5 3 -6.5 10.5t-9.5 7.5zM401 373l-31 -5l-4 -5q3 -6 6.5 -4t8.5 -4q-2 -4 -5 -1t-6 1v-5 q15 7 31 7q2 2 5 1t3 1q-5 0 -5.5 1t1 2.5t2.5 3t-1 2.5q0 1 -1.5 3t-3.5 2zM351 373q-2 -3 -4.5 -4.5t-2.5 -3.5q6 -9 14 -2v5q-2 1 -3.5 3t-3.5 2zM915 369v-1h5q0 1 -5 1zM922 365q2 -2 4 -2.5t2 -3.5q2 5 -1 4.5t-5 1.5zM381 359q2 -2 7 -0.5t9 4.5q-4 0 -7.5 -2 t-8.5 -2zM312 355v4v-4zM909 357l1 -2v2h-1zM314 350l-2 -4q4 -3 4 -7t5 -2q0 4 -3.5 7t-3.5 6zM433 350q-2 0 -2.5 -1.5t-2.5 -1.5q-4 -1 -10 -4t-4 -11h4zM1081 350q-2 -4 -2 -13q2 -2 3.5 -1t5.5 1q-4 4 -0.5 4t1.5 5q0 3 -3 2.5t-5 1.5zM898 346v-4v4zM1081 334v-2 q2 0 4.5 -1.5t2.5 1.5q3 0 4.5 3t-0.5 5q-2 0 -4 -3t-7 -3zM566 325q-2 -2 -4.5 -3.5t1.5 -3.5q2 2 5 2.5t3 2.5q-4 2 -5 2zM269 315v-9q3 -4 6 -5t3 -5q3 0 3 2q-6 2 -5.5 8.5t-6.5 8.5zM567 310q0 -4 7 -4h-3l3 4q0 2 -3.5 2t-3.5 -2zM887 310h1q0 2 0 1t-1 -1zM579 301 q-2 0 0 -1.5t0 -3.5v2q0 -4 1.5 -1t4.5 1q-3 0 -3.5 2.5t-2.5 0.5zM861 301l2 -2q1 -1 3 -1v3q-2 2 -2.5 1t-2.5 -1zM880 301h-2v-3h2v3zM852 296v-3v3zM589 293q0 -2 -1.5 -4.5t1.5 -5.5h4q0 5 3 5t5 2q-2 0 -5.5 2.5t-6.5 0.5zM869 293v-3h2q-1 1 -1 2v1h-1zM546 290 q-15 2 -28 -1t-26 -8q-4 -2 -9.5 -0.5t-10.5 -1.5q-9 0 -18.5 -2t-20.5 -4q4 -6 2.5 -11t2.5 -9q26 4 55 9t55 11q5 2 4.5 5t-0.5 5zM284 287q0 -10 5 -25q0 -3 -1 -4t1 -1v-4q0 -5 2 -9v4q-2 2 1.5 4t-1.5 5q3 -3 4 -3.5t3 -2.5q0 -1 1 -1q3 0 4 1l3 -3q2 -3 5.5 -1.5 t5.5 1.5q0 4 2.5 7.5t1.5 6.5q-5 0 -9.5 -1t-8.5 4q-6 1 -10 8t-9 10q0 4 2 4h-2zM861 287q-3 -3 -1 -3.5t4 -2.5v2q0 1 -2 3q-1 0 -1 1zM833 283l6 -2q0 2 -3 3.5t-3 -1.5zM598 281q-1 0 -1 -6q0 4 1 4h3zM826 279l4 -4v4q0 1 -2 1q-1 0 -2 -1zM852 279h4h-4zM612 275h3h-3 zM604 273l6 -2l2 2q-2 2 -4 1t-4 -1zM842 266q2 0 2.5 3.5t2.5 3.5q-2 2 -4.5 -0.5t-0.5 -6.5zM820 271h2q0 2 -1 2t-1 -2zM621 273q0 -2 5 -2q-3 2 -5 2zM619 271v-5h-4v-1q3 1 4.5 0.5t3.5 -0.5q0 1 -1 3.5t-3 2.5zM630 271l2 -6q-2 -2 -2.5 -0.5t-3.5 0.5q3 -2 -1 -3 t-2 -5q2 1 5.5 1h5.5q0 3 -1 5t1 2q-2 1 -2 3.5t-2 2.5zM833 265q0 -1 1 -1t1 1q3 0 3 0.5t-3 0.5h-2q-1 0 -1.5 -0.5t1.5 -0.5zM799 266q-2 -1 1 -2.5t4 -1.5v3h-3q-1 0 -2 1zM826 265q0 -3 4 -3zM638 262l3 -4q0 4 -3 4zM790 262v-4h4q0 3 -0.5 2t-3.5 2zM822 262v-4h2v2 q0 2 -2 2zM781 253h4q0 4 -2 3.5t-2 -3.5zM634 253l4 -2h-4q-2 -2 0.5 -2.5t-0.5 -0.5v3h4q2 0 1.5 1.5t1.5 4.5q0 3 -7 -4zM648 257q0 -3 -3 -5t-3 -4q5 -3 6 0t4 5q1 1 -1 3q-1 0 -3 1zM656 257l4 -4v4h-4zM418 257q-3 -3 -4.5 -6.5t0.5 -6.5h7t2 7q0 2 -1.5 2.5t-3.5 3.5 zM803 251h1h3q4 0 0 2h-2q-2 0 -2 -2zM772 251q0 -1 4 -1q1 0 1 1q-1 4 -3 2zM1070 251v-4q0 -3 2 -3l-2 -2q0 -2 5 -2q-4 3 -0.5 6t0.5 7h-2q-1 0 -3 -2zM664 251v-3h5v3h-5zM671 251v-3q0 -4 6 -4v4q0 3 -6 3zM766 251v-3l2 3h-2zM682 251q0 -2 -1 -4.5t1 -2.5h3v3 q0 4 -3 4zM797 251q-2 -2 -4 -3t1 -4q5 0 5 4q0 2 0 1.5t-2 1.5zM691 248v-6h5v2q-2 0 -2.5 2t-2.5 2zM749 248q-1 -1 -2 -1q-2 -2 -1 -3t2 0q1 0 5 4h-4zM755 244q3 0 3 4q-1 -1 -2 -1q-2 -2 -1 -3zM1081 248q0 -3 -1 -4.5t1 -3.5l1 1q0 1 0.5 1.5t0.5 1.5v2q0 2 -2 2z M655 248q0 -4 5 -4v4h-5zM718 248v-6h4zM727 248q2 -3 1.5 -5.5t3.5 -0.5q0 2 -1.5 2.5t-3.5 3.5zM699 244q0 -3 4.5 -2t6.5 -2q2 0 3 1l1 1q-5 0 -7.5 2.5t-7.5 -0.5zM669 244h-5v-4h5v4zM671 244v-2q0 -2 1 -3q1 -3 5 -3v4q0 4 -6 4zM785 244v-2h4v2h-4zM777 242h-2v-2h2 v2zM785 242h-4h4zM763 242q0 -5 -3 -2.5t-7 0.5q0 -4 1 -4q0 -1 1 0q4 3 6.5 0.5t6.5 -0.5q0 3 -1.5 3.5t-3.5 2.5zM682 240q0 -5 3.5 -4.5t5.5 -1.5v2q-3 4 -9 4zM693 236v-2q1 -1 2 -1q3 0 4 1q0 2 -3 2h-3zM701 236q4 -2 9 -2q-3 2 -9 2zM746 234h-2h2zM714 234 q0 -3 4 -3q0 3 -2 3h-2zM839 234q-21 -3 -42.5 -11l-41.5 -15h5q22 5 42 10t37 16zM723 234v-3q2 0 3 1q0 1 1 2h-4zM1105 222q5 -4 7.5 -9t7.5 -6l-4 7q-2 5 -4 11t-7 -3zM446 225q0 -2 -2 -2.5t-2 -2.5q5 -2 7 0t5 0v2q-2 0 -3 1q-4 2 -5 2zM880 220q-2 0 -5.5 -2t-3.5 -4 l22 3q-2 3 -13 3zM454 214v-3.5t2 1.5l1 1q0 1 0.5 1.5t-1.5 2.5h-3q-1 0 -1 -1t2 -2zM526 217v-3l4 3q0 -1 -2 -1q-1 0 -2 1zM490 214v-2l-3 -5q2 -6 4.5 -3.5t7.5 -0.5v9q0 -4 -4 -4zM530 212h1l4 2q-5 0 -5 -2zM501 214v-2h-2l5 -4q0 -1 -1.5 -0.5t-1.5 -0.5q0 1 1.5 -1 t1.5 1q0 4 2.5 2t0.5 -1q-1 -1 -2 0q-1 0 -1 4h3q-2 2 -3 1t-3 1zM438 208l2 -1q2 0 4 -1.5t2 1.5q-3 0 -0.5 1t2.5 4q-2 0 -5 -2t-5 -2zM900 208q-7 0 -13 -0.5t-13 -0.5q3 -7 9 -8.5t8 -7.5h2q1 0 2 -0.5t3 0.5q0 3 2.5 5.5t5.5 6.5q-5 -4 -11 -4h-12q4 3 8 3.5t9 0.5v4v1 zM820 199q5 3 12.5 2t11.5 2q-7 4 -14 3t-10 -7zM485 203h2v-4l-2 4l2 -4v4v1h-1q-1 0 -1 -1zM1075 203q-2 -3 -6 -2.5t-2 -5.5q2 0 4 2t4 1q-6 -3 -5.5 -5.5t3.5 -4.5l6.5 -4.5t3.5 -6.5q7 3 12.5 -1t6.5 5q0 5 1 7.5t-1 6.5v-4q0 -4 -5 -4q-3 3 0 4q-3 4 -8 4q-1 2 -3.5 0 t-2.5 3q4 1 7 0.5t7 0.5q-4 0 -10 3.5t-12 0.5zM552 203v-4h5zM546 199h-7v-1l5 1h2zM531 199l4 -1zM1075 198q3 0 4 -3.5t-4 -4.5q4 -3 6 -3t5.5 -0.5t5.5 3.5q0 1 -4 1q-5 0 -6.5 3.5t-6.5 3.5zM799 191q-7 3 -13.5 4.5t-13.5 -0.5q-3 0 -7 -3t-2 -7q4 -7 10 -9.5t12 -2.5 q1 -1 2 -1q1 -1 2 -1t1 -2q3 5 8.5 7.5t4.5 10.5zM839 195q-3 0 -6.5 -2.5t-6.5 -1.5q-2 -1 1 -1.5t3 -2.5h-4q5 -2 10 -6t11 -4q0 3 4.5 7t4.5 6l-4 -3q-3 0 -5.5 -1t-4.5 1q0 3 1.5 2t3.5 1v1q-3 4 -8 4zM785 191q-6 -1 -12.5 -1t-6.5 -5q2 -6 6 -7.5t9 -1.5q-6 1 -6 9 q2 0 4 -0.5t2 -3.5q0 4 4 6q3 -2 5.5 -4.5t-0.5 -5.5h-9v-1q7 0 12 1.5t10 7.5q3 0 -4 5q-2 1 -6 1h-8zM499 191v-1q2 0 4 0.5t4 -0.5q-2 0 -2.5 0.5t-2.5 0.5h-3zM485 191l2 -1h-1v-1q0 -2 1 -2h3q0 1 -1 2q-2 2 -4 2zM1026 191q-3 -1 -7.5 -2t-4.5 -8q5 -9 12 -11.5 t16 -2.5q5 2 9.5 3.5t4.5 10.5q-5 7 -13.5 8.5t-16.5 1.5zM1129 190q2 -7 5 -12.5t5 -10.5q5 -13 11.5 -24t8.5 -24q-7 9 -17 9q-10 3 -12 12t-7 15h-3l-4 -31q-2 0 -3 1.5t-1 -1.5q-13 16 -29 16q-3 0 -7.5 -1t-8.5 -6q0 -1 -0.5 -3.5t3.5 -5.5v4q2 9 10.5 8.5t13.5 -0.5 t7 -2.5t4 -5.5q0 -3 -1.5 -4.5t-2.5 -4.5q-12 0 -13 4v-4q-9 -3 -18 4l2 -4q8 0 14 -4.5t15 -0.5q0 2 1.5 4t7.5 5q2 0 3 0.5t3 -0.5q0 -7 7 -10.5t11 -3.5t5 -4t6 -3v-1q-2 -5 -3 -10.5t-3 -10.5q-4 2 -8 4.5t-11 2.5q-5 0 -8.5 -1t-9.5 -6q-1 -5 0.5 -6.5t7.5 -4.5 q5 -3 15.5 -6.5t16.5 3.5q2 2 2.5 5.5t0.5 6.5q5 -4 10 -9t9 -8q-2 9 -6 18.5t-7 17.5q-3 3 0.5 4.5t4.5 4.5q2 2 2.5 6.5t0.5 6.5q11 -18 18.5 -38.5t18.5 -38.5h-4q-7 6 -17.5 6.5t-19.5 -4.5q-6 0 -8 -4.5t0 -6.5q9 -10 21.5 -14.5t23.5 -2.5q3 5 3.5 2.5t2.5 -2.5 q2 4 2 14q-2 15 -8 27.5t-11 25.5l-25.5 54t-26.5 53zM1034 187q-5 -2 -10 -2t-8 -8q8 -6 15.5 -5t16.5 1q1 2 3 3t2 5q-4 5 -10 5.5t-9 0.5zM714 177q6 3 12.5 4t11.5 4q-6 0 -14.5 1t-9.5 -9zM963 176q-1 -5 2 -7.5t6.5 -4.5t6.5 -4t3 -6h2q0 4 6 -4q2 0 6 4q0 6 5.5 7.5 t3.5 5.5q-4 -2 -5.5 -3.5t-3.5 -1.5q-3 4 -7.5 3t-4.5 4q-2 0 -2.5 2t-3.5 2q7 -7 4 -11q-5 0 -8.5 0.5t-5.5 4.5q5 11 15 10t15 -1q-6 4 -16 5.5t-18 -5.5zM1034 176v1v-1zM723 176q3 -2 5 -5.5t2 -5.5h-3l3 -3q-2 -5 3 -5t7 -2q3 2 3.5 6t2.5 6q-2 0 -5.5 -1t-8.5 1h4 q-5 2 -6.5 6t-6.5 3zM660 169q-3 -2 -5.5 -4t-2.5 -7q6 7 13.5 8t13.5 1q-4 5 -10 3.5t-9 -1.5zM915 165q0 -2 -0.5 -5t0.5 -5q4 9 14 9.5t18 0.5q6 -6 6 -10t-3 -5t-5 -3q-5 5 -10.5 7t-10.5 8q0 -3 2 -4t2 -3q3 0 2 -1t1 -4q0 -3 -2 -3h-1q2 -2 6.5 -2.5t7.5 -4.5 q2 4 7.5 7t3.5 11q-5 8 -16.5 10.5t-21.5 -3.5zM986 165v-3h3v1q0 2 -3 2zM693 155q-12 -12 -29 -8q4 0 8.5 -0.5t6.5 -5.5h3q0 3 0.5 2t2.5 2h-3q2 2 6.5 4t4.5 6zM861 150q-2 -7 1 -9.5t7.5 -4t9.5 -4t8 -8.5q3 6 9 10.5t4 12.5q-7 6 -19 7.5t-20 -4.5zM671 155v-1h3 q2 1 0.5 0.5t-3.5 0.5zM869 150q-2 0 -4.5 -2t-0.5 -7t14 -5q-2 1 -2 2q-1 1 2 3q8 0 13 -5q2 0 4.5 3t4.5 6q-5 7 -14 6t-17 -1zM932 150h4q0 1 -2 1q-1 -1 -2 -1zM920 150l4 -3zM871 147q0 -2 3 -2h4q-4 2 -7 2zM835 141q-8 3 -16 3.5t-15 -4.5q0 -6 3 -9.5t7.5 -5.5 t9 -3.5t6.5 -4.5q0 -1 4 -1q1 0 1 1q3 5 7.5 7t4.5 9q-2 5 -5.5 6.5t-6.5 1.5zM820 140q3 -7 10 -8q2 -3 1.5 -6t3.5 -2q3 3 7 4t2 5q-4 6 -11.5 6.5t-12.5 0.5zM880 136l3 4q0 1 -1.5 0t-1.5 -4zM501 140h3h-3zM813 140q-2 -3 -4 -4t-2 -4q3 -6 8.5 -7t8.5 -2q2 1 2 5h-4 q-5 0 -6 3.5t-3 8.5zM758 132q-2 -3 -6.5 -6t-2.5 -7q5 -8 13.5 -9.5t18.5 -3.5q3 4 7.5 7t1.5 10q0 -5 -5 -9q-3 -6 -6.5 -1t-10.5 4q-3 0 -3 -3q0 -2 1 -3q-5 -2 -7 -0.5t-4 3.5q-3 4 0 9q6 4 15 5.5t15 -4.5q-3 6 -11 7.5t-16 0.5zM1079 132v-8q3 0 4 2t5 2 q-4 -3 -5.5 0.5t-3.5 3.5zM200 128l-3 -4q0 3 1.5 2t1.5 2zM1045 124q-7 3 -15.5 3t-13.5 -4q-2 -3 -1 -5t1 -4q15 -12 32 -12q1 3 4.5 5.5t3.5 6.5t-4.5 6.5t-6.5 3.5zM1155 123q-10 1 -19 0.5t-16 -4.5q2 -2 1.5 -2t1.5 0q1 5 5.5 4t8.5 2q4 0 8 -3.5l10 -8.5q0 2 0.5 3 t0.5 3zM758 119q10 0 10 4q-2 0 -5 -0.5t-5 -3.5zM1045 123q-7 0 -15.5 -0.5t-13.5 -8.5q3 -2 6.5 -3.5t4.5 0.5l-1 3q-2 0 -2 1q-2 2 2 2q1 2 5.5 2t6.5 -2q5 -2 2.5 -4t-2.5 -4q5 0 10 1t5 7q0 2 -2.5 4t-5.5 2zM450 119q-2 0 -2 -5q2 2 5.5 1.5t6.5 1.5q0 2 -3.5 3.5 t-6.5 -1.5zM701 117l-4.5 -4.5t-0.5 -6.5q4 -8 12 -8.5t14 -2.5v-6h5q-2 3 0 5t4.5 3.5t4 4t0.5 7.5v-3q-5 -5 -13 -5h-2q-1 0 1 1q-7 0 -8 -1v-4q-3 -2 -5 -1t-4 1q-3 3 -6 5t-3 7q17 12 40 2q-7 6 -16 7t-19 -1zM991 114q-6 2 -13 1.5t-15 -6.5q-1 -1 0 -2q0 -1 4 -1 q5 6 13.5 5.5t16.5 -0.5h-2q-1 0 -4 3zM501 109q-8 6 -19.5 6t-18.5 -6q-2 -2 -2.5 -4.5t-0.5 -3.5h3q0 4 1 5t4 3q8 2 17 3.5t16 -6.5q2 -3 1 -3.5l-3 -1.5q-3 0 -4 -2.5t-3 2.5h3v1h-5q0 -2 -5 -7h-6t-7 2q-1 -4 -5 -2q-2 1 -3 2q5 -2 7.5 -4t7.5 -2q2 -2 7.5 0.5 t5.5 -2.5l7 6q2 2 1 -1t1 -3v4q-2 2 0.5 5t2.5 6zM1030 114h4q0 -2 0 -1t2 1h-6zM772 111h3q0 2 -3 1t0 -1zM172 111h-2h2zM714 111q-3 0 -4 -1t-3 -1q-2 -2 1 -3t6 -4q0 5 1 4.5t3 -0.5q0 4 -2 3.5t-2 1.5zM476 106q0 -3 -3 -2t-3 -2h-1h-1q3 -5 7.5 0.5t9.5 3.5 q-2 2 -4.5 -0.5t-4.5 0.5zM648 106l-7.5 -4.5t-2.5 -6.5q2 -5 3.5 -6.5t6.5 -1.5q3 -3 8 -2.5t7 -6.5q1 0 3.5 -1.5t4.5 1.5q-1 3 1 5t4.5 4t3.5 4t-1 6q2 -2 0.5 -5t-5.5 -3q-4 -7 -7.5 -2.5t-6.5 2.5q0 -9 -12 -2q-1 0 -4 1.5t-3 6.5q1 2 4.5 4t6.5 2v-4q2 -2 3 -5t5 -1 q0 3 -2.5 5t-2.5 5q4 1 10.5 1h8.5q-4 3 -12 3.5t-14 0.5zM977 106q-3 -3 -2.5 -6t2.5 -5q-2 -3 -3.5 -0.5t-4.5 2.5q5 -5 10 -4.5t7 -5.5q2 0 4 -2.5t5 2.5q-2 3 0 4.5t4.5 3t4 3t0.5 4.5v-1q-8 -6 -13 -6v6q-2 4 -5.5 4.5t-8.5 0.5zM1120 106l3 -5q1 -3 3 -1.5t-2 2.5 q0 4 -4 4zM910 97q0 -2 0.5 -4t3.5 -4v2q5 8 15 8.5t18 -2.5q-7 7 -17.5 8t-19.5 -8zM977 101q1 0 3 -2q0 -1 1 -2q2 0 3.5 -1t1.5 1q0 3 -3 5.5t-6 -1.5zM967 101h-4l6 -4zM172 95q0 -2 1 -2q0 -1 0.5 -0.5t0.5 2.5v1q-1 0 -2 -1zM463 95l1 -6q4 -2 4 2l-2 2q-1 0 -1 0.5 t-1 0.5t-1 1zM589 91l-4 -2q-4 -2 -4 -6q0 -9 8 -9q6 -4 13.5 -3t7.5 -6h2v1q2 5 7.5 7t3.5 7l-8 -6q-4 -1 -7 3.5t-10 0.5v-4q1 -1 4 2l2 2q3 0 3 -4h-3l3 -1h-10t-8 1q-5 4 -3 9q1 2 3 4q7 3 16 3.5t16 -1.5q-13 8 -32 2zM180 95h-2l4 -4zM928 91q-3 -2 0.5 -3.5t3.5 -4.5 q-3 -2 -8 -1t-9 1q5 -2 10.5 -3t6.5 -6q3 0 5 -0.5t5 0.5q0 7 6 8.5t2 6.5q0 -2 -1.5 -2.5t-3.5 -3.5q-10 -4 -12 2t-5 6zM866 89q-7 -2 -8.5 -6t-0.5 -9q5 -7 13.5 -7t12.5 -6q0 3 2 3t2 -3v2q0 2 1 2q2 3 7.5 6.5t2.5 8.5q-5 8 -14 9.5t-18 -0.5zM485 87h5q-2 1 -3 1 q-2 0 -2 -1zM598 87q-2 -7 0 -7q6 0 6 3q0 2 -1 2t-2 1q-2 0 -3 1zM869 83q-8 0 -8 -9q2 -1 5.5 -3t7.5 -2q-2 3 -5 3.5t-5 1.5h5q0 5 1.5 4.5t3.5 -2.5t3.5 -4t2.5 1q0 1 -2.5 3t0.5 4q2 0 5.5 -3.5t3.5 -7.5h4q2 3 4.5 4.5t2.5 6.5q-5 7 -13.5 6.5t-15.5 -3.5zM1112 83 q-2 -2 -4.5 -3t-2.5 -6q8 -8 18 -8q0 9 3.5 4.5t7.5 -4.5q2 2 5 3t3 5q-4 7 -13 8t-17 1v0zM530 80q-3 -2 -7.5 -5.5t-0.5 -8.5q6 -8 15 -8.5t15 -1.5q2 1 8 6t3 11q-5 8 -15.5 8.5t-17.5 -1.5zM1114 80q-2 -7 2 -7q3 0 7.5 0.5t-0.5 4.5q0 4 -3.5 3t-5.5 -1zM526 69 q-1 -1 -1 -3q0 -1 1 -1q7 -3 11 -4.5t9 4.5q-2 1 -6 -3t-4 3q3 1 8 1q2 0 5 -1t3 -4q4 0 7.5 3.5t3.5 8.5q-8 5 -19 4t-18 -8zM804 73q-1 0 -1 -4t1 -4l7 8q7 0 14 0.5t14 -0.5q-7 4 -17.5 4.5t-17.5 -4.5zM1079 74q-15 7 -26 -5q0 -2 0.5 -5.5t2.5 -6.5q4 -1 8 -1.5t6 -5.5 h2q2 2 4.5 1t4.5 -1t2.5 1t4.5 1q3 0 5.5 5t0.5 9q-2 5 -7 6t-8 2zM539 73q-2 0 -0.5 -2t5.5 -2v4h-5zM535 73q0 -4 1 -4q0 4 -1 4zM401 69q-3 -3 0 -6t5 -7q-2 4 0.5 6.5t2.5 3.5q0 5 -4 5.5t-4 -2.5zM1070 73q-4 -3 -9 -4t-5 -4q4 -6 8.5 -7.5t10.5 -1.5l-3 1q5 3 6.5 1 t4.5 -2v1l5 -1l3.5 3.5t0.5 5.5q-3 6 -9 7t-13 1zM842 69l2 -4q-2 -6 -6 -7.5t-8 -1.5q-5 1 -5.5 5t-0.5 5q-2 2 -1 0.5t-1 -1.5q-5 -3 -7 -1t-4 1q4 -3 7.5 -2.5t5.5 -6.5q-6 -3 -10.5 -1t-10.5 6q7 -9 21 -9q0 -2 3.5 -2t-1.5 -2h7q-2 3 2.5 6t8.5 7q0 5 -2 8zM1067 66 q0 -1 1.5 -2.5t1.5 1.5q0 4 -3 1zM150 66q0 -1 -1 -1.5t-1 -3.5h2q1 2 1 4q0 1 -1 1zM777 65q-7 0 -15 -0.5t-13 -7.5q-4 -1 -1.5 -4t5.5 -3q0 2 1.5 4t3.5 2q0 1 -1.5 -1t-3.5 2q4 3 6 2t7 2q5 0 12 -0.5t7 -4.5q0 1 -8 9zM1006 61q-2 0 -2 -3v-6q2 0 2.5 2.5t5.5 2.5 q6 3 15 0.5t15 -7.5q0 -2 -2 -4t-4 -2t-4 -2t-2 2q-6 -4 -10.5 0t-7.5 6q0 -2 2 -4t2 -4q-3 0 -6.5 3t-5.5 3q6 -7 15 -8t17 -1q2 2 5 4.5t1 8.5q-6 10 -15.5 11.5t-20.5 -2.5zM830 61h3h-3zM768 52q-8 0 -10 -2q4 2 6 -2t4 -4q-4 -4 -9 -2.5t-10 6.5q5 -5 12 -6t14 -3 q-2 -3 -1.5 -3.5t-1.5 -2.5h5v2h-2q2 5 8 7t6 8l-6 -4t-6 -2q-4 -4 -6.5 0t-4.5 6zM701 50q-2 0 -5 -1.5t-3 -6.5h3q13 9 34 6q-6 3 -14 3.5t-15 -1.5zM958 50q-4 0 -6 -3.5t-2 -7.5q2 -8 9 -10t16 -4q8 0 16 8q3 -2 0.5 -5.5t-0.5 -5.5q5 -5 9.5 -10t7.5 -6q3 8 -0.5 14.5 t-8.5 12.5q-2 2 -3.5 1t-4.5 1q-4 11 -14.5 14t-18.5 1zM775 48h6h-6zM963 48q-4 0 -7 -3.5t-3 -5.5q0 -5 4 -7t6 -2q0 2 -2.5 4t-2.5 5q2 2 4 -1t5 -3q0 3 0.5 6t5.5 1q-2 -3 -1 -5t3 -2.5t4 -1.5t2 -3q8 0 8 9q-5 7 -11 8t-15 1zM1081 48q0 -3 1 -3t1 3h-2zM130 44v-2h3 q-3 -3 -3 -7q0 2 1 3q1 0 2 1q0 2 -1.5 2.5t-1.5 2.5zM1129 42q-4 -5 -0.5 -7.5t5.5 -6.5q-4 0 -11.5 2t-10.5 0v5q-2 0 -2.5 3t-4.5 1q-3 -3 -1 -6t6 -3q-6 -4 -7 -6.5t-1 -7.5q15 -15 35 -10q4 1 6 4.5t2 5.5q5 -2 8.5 -6.5t7.5 -6.5q0 8 -2 10q-11 5 -15.5 14.5 t-14.5 14.5zM1159 42q-2 -2 -5 -4.5t-3 -4.5q4 0 5 2q6 3 11.5 3.5t13.5 0.5l4 -6t4 -3q7 -2 3.5 -4t-5.5 -4h5q8 6 6 11q-2 2 -4.5 4t-4.5 2q-6 4 -15 3.5t-15 -0.5zM705 39q0 -4 5 -9q-4 -2 -7.5 0t-3.5 0q6 -2 12 -2.5t11 -2.5v-3h1l-1 3q4 4 9 5.5t5 8.5q-3 -5 -5.5 -6 l-7.5 -3q0 4 -3.5 3.5t-1.5 1.5q-4 9 -13 4zM642 39q-1 -3 -5.5 -5t-2.5 -6q6 5 15.5 6t19.5 -1v2q-7 3 -13 3.5t-14 0.5zM707 35h3q1 -1 2 0q1 0 3 4q-1 0 -3.5 -0.5t-4.5 -3.5zM902 35l-6 -4t-3 -6q5 -11 15 -12.5t20 0.5q3 0 6.5 4.5t1.5 10.5q-4 5 -14 7.5t-20 -0.5z M714 33v-3h4zM906 30q-8 0 -8 -8q3 -5 7.5 -5.5t8.5 -0.5l-4 4q3 0 4.5 -3t5.5 -1q0 5 -3 7.5t-2 4.5q4 0 4.5 -3t2.5 -5q2 0 2.5 -3t3.5 -1q2 0 5 3.5t3 5.5q-6 6 -14.5 7.5t-15.5 -2.5zM969 33q-1 0 -1 -2q0 -1 1 -1q3 -2 4.5 -1t3.5 1q-2 0 -3.5 1.5t-4.5 1.5zM1030 30 q-4 -11 -4 -19l32 -34q5 9 -2 11.5t-8 9.5v3t1 2q0 -5 7 -5q7 -6 13 -7.5t14 -0.5q4 3 7.5 6.5t1.5 9.5q-2 4 -6 6t-7 4q-5 3 -10 1t-8 5h-5q0 -2 1 -2.5t1 -3.5q-8 0 -10 -10q-8 5 -10.5 11.5t-7.5 12.5zM647 25l5 -9q-4 -2 -7 -1t-4 1q5 -2 12.5 -3.5t10.5 0.5q5 2 9 5 t4 7q-4 -4 -13 -9q-1 5 -5 2t-7 2q2 2 3 1t1 1q-1 2 -3 0.5t-5 2.5q3 2 5 1.5t3 1.5q-1 2 -4.5 0.5t-4.5 -3.5zM125 25l-3 3v-3h3zM585 25q-9 -5 -9 -14q4 -10 13.5 -11t17.5 -1q4 3 9 6t3 8q0 -5 -3.5 -6t-5.5 -1q-7 -2 -7 3t-5 7q0 -2 1.5 -4t1.5 -5q-2 3 -3.5 4.5 t-4.5 1.5v-6q-3 0 -4 3t-4 1q3 -3 4 -4.5t4 -3.5v-4q-6 3 -10.5 5.5t-6.5 6.5q13 16 36 11q-6 5 -13.5 5t-13.5 -2zM947 25q-1 1 -3 1q-1 0 -2 -1l13 -18q-4 10 -8 18zM847 22q-4 0 -5.5 -4.5t0.5 -6.5q4 -9 12.5 -11t16.5 -1q5 3 7.5 5t4.5 3q4 -7 10.5 -15t12.5 -11 q4 12 -6 26q-2 7 -7.5 4t-9.5 0q-4 11 -14.5 13.5t-21.5 -2.5zM1110 25q-4 -2 -4.5 -4t-0.5 -5q5 -4 9 -6.5t9 -2.5l1 6q4 0 6.5 -3t6.5 -3q2 3 3.5 5t1.5 4q-4 9 -14 9h-18zM125 22l-6 -2h6q-1 0 -1 1zM852 20q-4 -3 -7 -5.5t-3 -7.5q4 -3 7.5 -3.5t7.5 -0.5q-1 2 -4.5 3.5 t-0.5 6.5q3 0 3.5 -1.5l1.5 -4.5l2 2q2 2 5 2q-3 0 -3 5q4 -2 7 -6t3 -7q2 2 6.5 3.5t2.5 6.5q-5 7 -13 8t-15 -1zM1083 22q5 -8 13 -16.5t16 -15.5q3 10 -4 12.5t-7 8.5q-3 4 -7 8.5t-11 2.5zM133 20v-4v4zM1116 20q0 -4 2 -4q1 -1 2 0q0 3 -2 4.5t-2 -0.5zM116 20v-4 q0 1 1 1q1 -1 2 -1zM977 16l-2 -13q12 -20 33 -40q3 9 -4 11.5t-9 9.5v3q0 1 2 3q0 -4 4 -6.5t7 -2.5q9 -3 15 -2.5t13 5.5q2 0 2 2.5v3.5q-3 10 -10.5 11.5t-13.5 1.5q-12 0 -19 -9q-7 4 -10 11t-8 11zM113 11q-2 2 -4.5 1t-5.5 -1v-4l4 4v-4zM1067 13q-5 0 -9.5 -1.5 t-4.5 -5.5q4 -12 17 -12q1 3 2 3t2 -1t3 -2.5t4 0.5q2 3 5 4.5t3 4.5q-8 10 -22 10zM523 7q-9 0 -9 -9q6 -11 15 -12t19 -1q5 3 9.5 6.5t0.5 7.5q-3 11 -14.5 12t-20.5 -4zM116 11q-2 0 -2.5 -2.5t-0.5 -1.5h3q-1 -1 -2 0q-1 0 -1 4h3zM129 11h-4q1 -1 2 -1q2 -2 2 -3v4z M794 7q-9 0 -9 -9q4 -10 13 -12t18 -2q5 1 8.5 4.5t8.5 9.5q0 -10 5 -17.5l10 -14.5h4q0 8 -1 16.5t-9 15.5h-2h-5q-4 -6 -5 -1.5t-4 9.5q-5 4 -14.5 5t-17.5 -4zM660 7q2 0 1.5 0.5t1.5 3.5q-3 0 -3 -2v-2zM544 7q-7 -1 -15 -2.5t-12 -10.5q4 -4 9 -5t9 -4l-5 5q0 3 -1.5 6 t1.5 3q4 3 7 1.5t7 -1.5q3 -1 2.5 -5t1.5 -5q5 1 7 5t2 5q-2 5 -6 8t-7 0zM97 6q1 -2 4 -0.5t6 0.5q0 1 -4.5 0.5t-5.5 -0.5zM598 7q-1 -1 -1 -2.5t1 -1.5h3zM807 7q-3 -1 -10 -2t-8 -7q1 -7 6 -8t9 -1l-5 5q-2 0 -2 2.5t2 2.5q9 5 12.5 -0.5t8.5 -9.5l4 5q5 3 3.5 6.5 t-3.5 5.5q-3 0 -7.5 0.5t-9.5 0.5zM861 6v-2q0 -1 3 -1q2 -3 2.5 -1.5t2.5 1.5q-4 4 -8 3zM924 6q0 -5 -1 -7.5t-1 -8.5q8 -11 17 -20.5l19 -20.5q1 5 -0.5 7.5t-4 3.5t-5 2.5t-3.5 5.5q-2 3 -1 5t1 4l8 -9q14 -9 33 -2q0 5 1.5 7t1.5 4q-5 9 -12 11t-16 2q-5 0 -8.5 -2.5 t-7.5 -3.5q-5 4 -9.5 10t-7.5 12h-4zM1061 6h6q-2 1 -2.5 0.5t-3.5 -0.5zM1139 -1q-2 5 -2.5 0.5t-4.5 -1.5q2 -10 -3 -15t-5 -15q8 3 11.5 5t9.5 2q11 -5 23 -3.5t21 3.5l16 -13q0 -13 -1 -16q-16 -5 -30.5 -10.5t-28.5 -8.5q-23 0 -43.5 -5t-40.5 -13l-3 -8l12 4 q7 -3 10 -9t8 -10q7 0 13 3t13 6q6 1 8.5 3.5t4 5.5t3.5 6.5t7 6.5q18 5 35 10.5l37 12.5q-3 3 0 8.5t0 13.5q-7 8 -15 16t-17 16q-3 -7 -2.5 -13t-7.5 -6zM535 -1q-1 0 -2 -1q-2 -2 -2 -4q1 0 3 -2q0 -1 1 -2q1 3 3 2t6 2q0 3 -3 4t-6 1zM811 -2q-6 2 -8 0v-6q0 -2 1 -2 q5 -2 9 0q-2 3 -5.5 2t-3.5 2zM1008 -2q-2 0 -5.5 -2.5t-3.5 -6.5q8 -8 21 -8v3q2 4 4 -0.5t3 0.5q11 0 9 6q-5 7 -12 8t-16 0zM738 -2q-5 -3 -7.5 -7t-0.5 -10q6 -7 15.5 -9.5t17.5 0.5q4 2 7.5 6.5t1.5 10.5q-7 7 -16.5 8.5t-17.5 0.5zM1008 -6q3 -3 5 -4.5t7 -4.5 q-5 3 -5.5 8t-6.5 1zM607 -6h-3v-4zM753 -6q-7 -3 -14 -4t-9 -6q2 -5 6.5 -7t9.5 -2q-2 2 -4 4.5t-4 5.5q5 0 7.5 1.5t7.5 -1.5q0 -1 -3.5 -0.5t-5.5 -0.5q2 -2 4 -1.5t5 -1.5l-4 -4q0 -7 5 -3.5t9 3.5q2 0 5 3.5t0 4.5q-2 7 -6 8t-9 1zM869 -23q7 -11 14.5 -21t16.5 -20 q2 8 -4 9.5t-8 6.5q-1 2 -1 6t1 5q4 -8 12 -11t14 -3q11 0 17 6q1 10 -3 13q-10 5 -20 7.5t-17 -7.5q-11 12 -17 26q-6 0 -5.5 -6t0.5 -11zM125 -10v-1h4h-1q-1 0 -1 0.5t-2 0.5zM1089 -11q-5 0 -6 -2.5t-4 -2.5q0 -9 -4.5 -16t-2.5 -13q12 2 20.5 5t19.5 6zM958 -15 q-7 -1 -11 -10q5 -2 7 -4.5t7 -4.5l-8 11q4 0 7.5 -2.5t6.5 -2.5q0 2 -1.5 4t1.5 5h2q8 -8 8 -13q-2 0 -2 2.5t-2 4.5v-9q3 2 7 3t6 6q2 2 0.5 4.5t-3.5 4.5q-6 4 -12 2.5t-13 -1.5v0zM785 -16q-3 1 -3.5 -0.5t-0.5 0.5q0 -12 5 -18t11 -14q3 17 -3 29q-3 0 -4.5 1.5 t-4.5 -1.5v3zM682 -16q-4 -2 -7.5 -3t-5.5 -6q0 -9 2 -12q8 -4 16.5 -5.5t17.5 0.5q4 3 6 6.5t-1 10.5q-4 7 -12 8.5t-16 0.5zM679 -23q-2 -2 -5 -5.5t-3 -5.5q5 -3 7 -3.5t7 -0.5q0 1 -3 3t-3 7q7 2 11 1.5t9 -5.5q0 -2 1 -3.5t-1 -2.5h2q3 1 6 3t3 7q-15 15 -31 5z M816 -23q-7 -11 2.5 -19.5t14.5 -16.5q-1 1 -1 2q0 3 1 3q5 -8 13.5 -9t17.5 -1q4 0 7.5 2.5t6.5 5.5q2 6 -7 14q-5 4 -16 4t-20 -4q-4 4 -7 10t-6 13q-2 0 -2.5 -3t-3.5 -1zM1036 -23q-2 -2 -4.5 -5.5t-5.5 -3.5q0 -8 -3 -14.5t-3 -12.5q11 2 20.5 4t17.5 7q-4 8 -9.5 13 t-12.5 12zM135 -25q3 0 3.5 -1.5t2.5 -1.5q-2 3 -6 3zM898 -34q-5 -2 -7 -4t2 -7q4 0 7 -1.5t6 -1.5q-3 2 -4.5 6t-1.5 5q8 0 14 -5q-5 5 -4 8q3 -2 6.5 -5.5t3.5 -5.5q-5 -2 -8 0.5t-6 2.5l3 -3q1 -5 4.5 -4t8.5 1q9 4 9 11q-7 7 -17 7.5t-16 -4.5zM685 -32l6 -5q5 0 5 3 q-2 2 -5.5 3.5t-5.5 -1.5zM963 -32l2 -2q3 -3 4 0zM642 -32q-6 0 -13.5 1t-13.5 -6q-3 -6 4 -17q5 -4 14.5 -4t14.5 2t8 5.5t0 8.5q0 4 -4.5 6t-9.5 4zM758 -37q0 -13 8 -21.5t15 -18.5q0 3 -1.5 5.5t1.5 2.5l4 -4q4 -4 12 -5t14 -3q4 2 7.5 3.5t5.5 4.5t1 8t-3 6 q-8 4 -19 5t-18 -5q-6 6 -9 12.5t-8 14.5q-4 0 -5 -2.5t-5 -2.5zM740 -37q-3 0 -6.5 2t-3.5 -2h-3h1q2 0 2 3l-3 -3q2 -8 6 -13t7 -10q3 3 1.5 5t-1.5 4v14zM626 -37q-7 -1 -7 -11q2 -5 6.5 -6.5t6.5 -1.5l-2 2v1q0 2 2 2q2 -2 5.5 -2t3.5 2h-9q-2 0 -4 2t-2 4t2 2.5t4 0.5 q2 3 5.5 2.5t4.5 -5.5q-3 -2 -5.5 0t-4.5 0q2 -2 4.5 -1.5t4.5 -1.5q5 0 5.5 -2t0.5 -4h1q5 2 6.5 6t1.5 6q-6 8 -15 7.5t-15 -2.5zM975 -45q0 -8 -2.5 -14.5t0.5 -13.5q6 0 13.5 2.5t17.5 6.5q-5 6 -10.5 10.5t-10.5 11.5q-5 3 -5.5 -1t-2.5 -2zM847 -45q-2 0 -6.5 -2 t-1.5 -7q2 -4 6 -5t7 -1q0 1 -3.5 3t-1.5 6h10q3 0 4 -2.5t5 -2.5v-4h3q2 1 5 3t0 6q-4 7 -11.5 7.5t-15.5 -1.5zM710 -42l-9 -9q0 -10 7 -18.5t10 -13.5l4 2q1 -8 9.5 -10t14.5 -4q11 0 20 9q2 -7 -3.5 -10.5t-9.5 -6.5q0 -8 -2 -15.5t-2 -15.5l45 11q-4 11 -12 19.5 t-16 20.5q0 5 -3 6q-6 6 -15.5 7t-17.5 0q-6 8 -10 14.5t-10 13.5zM585 -48q-7 2 -17.5 1.5t-13.5 -7.5t4 -15q7 -3 18 -4.5t17 4.5q6 7 4 15q-8 6 -12 6zM932 -48l-4 -6q-11 -4 -12 -15l-2 -22l44 13q-4 7 -11 15.5t-15 14.5zM566 -51q-12 -5 -9 -9q1 -7 5 -8t5 -2 q3 5 2 8.5t2 5.5l8 -4t10 -9q0 4 4.5 7t3.5 6q-6 6 -15.5 6.5t-15.5 -1.5zM671 -54q0 -5 4.5 -11t9.5 -12l-3 23q0 5 -4.5 2.5t-6.5 -2.5zM848 -54l4 -2q5 0 5 2q-1 2 -3.5 1t-5.5 -1zM856 -59v-1q1 0 3.5 0.5t4.5 0.5q-6 6 -8 0zM803 -59q-7 0 -13 -1.5t-9 -8.5 q6 -6 10.5 -7.5t11.5 -1.5l-13 9q5 4 7.5 0t5.5 -4l1 9q5 0 3 -5t0 -8q0 -1 2 -0.5t4 0.5t6.5 4t2.5 9q-2 4 -7.5 5.5t-11.5 -0.5zM574 -59v-5q0 3 1 2t1 2h-1q-1 0 -1 1zM442 -60q6 -24 14.5 -47l15.5 -43h4q-6 22 -14.5 44.5t-19.5 45.5zM655 -64q-2 4 -3 -1t-5 -4 q-4 -7 2.5 -15.5t10.5 -14.5l3 4q0 -3 0.5 -4.5t0.5 -3.5q8 -5 14.5 -5.5t14.5 -0.5q10 0 14 8q2 -3 -0.5 -6t-5.5 -7l14 -20q0 -5 2.5 -6t6 0t7.5 2.5t7 1.5q-8 14 -20.5 28t-18.5 30q-2 0 -1.5 -2.5t-1.5 -2.5q-14 3 -27 0zM878 -64q-5 -5 -10.5 -8t-3.5 -11 q0 -7 -1.5 -12t-1.5 -8q10 2 20 5.5t21 5.5q-7 7 -12 14t-12 14zM619 -64q0 -2 -2 -4q-1 -1 -2 -1q6 -11 15 -22q-3 8 -2 14t-2 13q-2 0 -3.5 -2t-3.5 2zM576 -64q0 -4 -2 -2.5t0 -2.5q4 -2 11 0q-3 4 -5 4.5t-4 0.5zM839 -69l8 -9q1 6 -1.5 7t-6.5 2zM758 -73q-20 5 -35 -8 q3 -8 9 -9.5t12 -1.5q-5 0 -8 3.5t0 7.5v1q0 2 2 2t6.5 -0.5t4.5 -2.5q-2 -2 -4 0t-5 0l-2 -2q2 -2 4 -5t4 -3t3 3t4 5v-2q0 -1 2 -1q0 -2 -0.5 -3t-0.5 -2l-1 -1h2v1q4 0 7.5 4.5t3.5 8.5q-2 1 -4 1.5t-4 3.5zM824 -78q-2 -4 -6.5 -6.5t-6.5 -6.5q0 -6 -3 -13t-1 -14 q11 3 21 6.5t20 6.5q-3 5 -9 13t-13 14h-2zM601 -81h-12q0 -4 2 -7.5t2 -6.5q3 -6 7.5 -11.5t9.5 -14.5q7 -4 15 -4.5t16 -0.5q1 2 4.5 4.5t6.5 7.5v-4v-5q-14 -7 -16 -18t-2 -25q11 5 22.5 8t22.5 8l-18.5 26.5t-18.5 28.5l-1 -6q-7 2 -13.5 3.5t-12.5 -1.5q-2 5 -5.5 9.5 t-5.5 8.5l-3 -2v2zM785 -81l9 -11q2 7 -2 8t-7 3zM566 -81q-2 -2 -5 -2h-4q0 -7 3.5 -12t6.5 -8v11zM674 -91q-9 0 -11 -8q1 -3 6.5 -4.5t9.5 -1.5q5 3 2 5t-7 5q2 0 4 -2t4 -2l3 7h1q2 0 2 -3q-5 -6 0.5 -6t7.5 -2q9 0 9 8q-5 9 -14 8.5t-17 -4.5zM1145 -92q0 -7 5 -3t6 3 v1q-9 0 -11 -1zM531 -92q-1 1 -5 -0.5t-9 0.5q-3 -3 -4 0v-3q1 -6 3 -13t7 -13q-1 -4 -3 -7.5t2 -5.5v7q7 7 20.5 10t24.5 -1q3 -4 7 -7t2 -9q-4 -8 -13 -11t-17 -5q-8 0 -13 2.5t-10 3.5q9 -5 19 -5.5t21 -0.5q3 2 8.5 5t7.5 9q2 0 0 -2.5t0 -5.5q-2 -3 -7.5 -7t-8.5 -6 q-7 0 -6.5 -4.5t-2.5 -5.5q-2 -8 0.5 -14.5t-2.5 -11.5l-12 18.5t-10 17.5q-3 5 -9 8t-4 9q-3 11 -7 20.5l-9 20.5q-7 -3 -13.5 -3.5t-11.5 -2.5q2 -17 9 -34.5t14 -37.5q5 -8 9 -19t10 -21t15 -16.5t24 -4.5l40.5 10l40.5 10q13 5 24 10t23 5q6 -3 9.5 -9t10.5 -6 q0 2 -2 4.5t-4 4.5t1.5 4t0.5 4q8 8 22 8q5 -2 6 -5t3 -5q3 -3 4.5 -1.5t1.5 3.5q0 11 -6 20l-39 -12q-28 -12 -56.5 -22.5t-60.5 -16.5q-7 6 -12 15t-1 19q0 7 6 6.5t10 2.5q7 0 12 3.5t9.5 7.5t10 7.5t12.5 3.5q-10 17 -23 33t-19 33l-2 -26q-2 1 -5.5 4t-6.5 5 q-11 0 -15.5 9.5t-7.5 17.5q-5 -1 -13 -1zM1036 -99q-12 -2 -23 -4.5t-22 -5.5l-169 -48l-69 -20q0 -8 -3 -14.5t-1 -15.5h4l295 81q-5 4 -6 9.5t-4 11.5zM969 -99q-25 -5 -50 -11t-48 -13l-233 -62l-4 -2v-2l141 35zM632 -101q-7 -2 -15 -2.5t-10 -10.5q4 -5 9.5 -7t9.5 -2 q-2 2 1 5.5t3 4.5h-9q2 3 5.5 5t5.5 -1q0 -4 -1 -7t-1 -5q2 0 5.5 1t5.5 -1q5 0 6 4t1 8q-1 5 -6 5.5t-10 2.5zM732 -101l4 -4v2q2 2 -1 2h-3zM685 -103l-1 -1q0 -1 1 -1h8q-2 0 -4 1t-4 1zM1124 -118q-1 0 -1.5 -1.5t-2.5 -1.5l4 -2q8 3 8 5q0 3 -2 1.5t-6 -1.5zM674 -118 l3 -5v2q0 3 -2 3h-1zM693 -123q0 -7 -1 -13t-1 -12q4 0 9 0.5t7 2.5zM558 -126q-1 1 -2 1t-2 -1q2 -1 2.5 -3.5t1.5 -2.5v6zM548 -126q-2 -1 -5.5 -1t-3.5 -5q0 4 -2.5 2t-5.5 -2l4 -4h1h5t3 2h2h2q-2 -5 -3.5 -3.5t-5.5 1.5q0 -3 2.5 -5.5t2.5 -3.5q2 1 5 0.5t5 0.5 q-2 4 -2 5v3l6 -8v6.5t-1 3.5v-2q-2 2 -4 1t-5 1q2 0 3 1l1 1q2 5 0.5 5.5t-4.5 0.5zM621 -134l-2 2zM1214 -145q-1 0 -3 -1.5t-2 -3.5q4 0 5 -1.5t4 1.5q3 2 1 4t-5 1zM1008 -150q5 2 12 2.5t10 2.5q-6 0 -11.5 -1.5t-10.5 -3.5zM370 -150q0 -5 2 -9t3 -8q1 0 3 -2 q0 -1 1 -1q8 -13 10.5 -28t11.5 -28q2 -15 14.5 -26t22.5 -21l-5 -3q4 -5 3 -10.5t4 -8.5q6 -5 14 -8t14 -7q3 -9 9.5 -20.5t21.5 -13.5v-2q8 -6 17.5 -3.5t18.5 8.5q29 10 57.5 15t55.5 13q11 5 22.5 7.5t20.5 10.5q0 3 -0.5 7.5t-5.5 8.5q-17 -3 -33 -8.5t-33 -7.5 q-14 -6 -30.5 -11t-33 -6.5t-32 2.5t-28.5 17q-23 35 -39.5 72.5t-37.5 72.5q-13 -2 -25 -3.5t-23 1.5zM1079 -162h-2q-2 0 -2 3v2h-5q2 -2 0.5 -6t4.5 -3q6 -1 7 5t1 11q-3 0 -2.5 -5t-1.5 -7zM989 -154q-9 -6 -20 -7.5t-22 -5.5q-4 0 -7 -2.5t-8 -0.5q-4 -2 -12 -2v-5 q-4 0 -4.5 2t-1.5 -2h-5t-7 -2l-90.5 -23.5t-93.5 -26.5v-3q5 0 9 3q4 -2 9.5 -0.5l12.5 3.5l165 47q0 2 3 0.5t3 1.5h8q6 5 12 5.5t10 4.5q13 0 23 4t18 6l4 3h-6zM1058 -157q-7 0 -5 -4.5t0 -5.5q4 -2 4.5 -1t0.5 2q2 0 3 -0.5t4 -0.5q0 4 2 6t0 4q-2 -2 -4.5 -1t-4.5 1z M1061 -157l-3 -2v-2q0 -1 3 -1q0 1 1 2q0 2 -1 3v0zM1048 -159q-8 0 -9 -6.5t-3 -11.5q5 0 6 3.5t3 3.5l3 -2q1 1 1 2q0 2 -0.5 4t-0.5 7zM1027 -166q-8 3 -5 -2.5t0 -10.5h5q7 0 7 6v7h-7zM1027 -177q2 4 2.5 6t0.5 4q-6 1 -4.5 -2.5t1.5 -7.5zM1014 -167v-10q-2 0 -4 2 t-4 -2l-2 -8q6 -2 4 3t0 5l4.5 -3t3.5 -1q3 3 0 7.5t0 6.5h-2zM995 -172l-9 -15q4 -2 7 1.5t6 -1.5q-2 5 -1.5 10t-2.5 5zM975 -179l-1 -1q0 -1 1 -1h2q3 -3 1.5 -5t-1.5 -7h4q2 3 1 6t1 6q0 2 1 2h2v2q-2 0 -5.5 -1t-5.5 -1zM967 -179v-2q2 2 2 1t0 1h-2zM1034 -179 l-316 -89l-22 -8q2 -8 11 -11.5t15 -3.5q45 11 86 23l83 25l47 13.5t45 11.5q16 5 28.5 10t26.5 7q5 0 8 3.5t2 8.5q0 3 -4 7.5t-10 2.5zM955 -185l3 -2zM967 -187q2 -5 2.5 -2.5t3.5 0.5v2h-6zM955 -193v-5q5 2 8.5 1.5t5.5 3.5q-5 3 -7 -0.5t-7 0.5zM922 -193 q-6 0 -4 -5.5t2 -8.5q2 -2 3.5 -1t4.5 1q4 5 3 12q-1 0 -2 1q-2 0 -3.5 0.5t-3.5 0.5zM924 -195q-2 -3 -2 -8h2q4 2 4 5zM900 -207q2 -3 4.5 -5.5t4.5 1.5q4 2 4.5 6.5t0.5 6.5q-6 0 -11 -1t-3 -8zM906 -209q3 0 3.5 3t-0.5 5q-2 0 -4 -3t1 -5zM893 -201q-4 0 -10 -6v-2 q4 0 5 3t3 3v-4q2 -3 -0.5 -6t-2.5 -5q5 0 10 2q-4 5 -2 7.5t-3 7.5zM878 -207q0 -7 -6 -8.5t-1 -4.5q2 -3 2.5 -0.5t0.5 4.5q6 7 6 9h-2zM579 -211q9 0 19 4q-7 0 -10.5 -1t-8.5 -3zM847 -216q3 -5 9 -2q0 5 -4 3.5t-5 -1.5zM857 -216q3 -2 4 -5t3 -3q5 0 5 8q-4 0 -5.5 2 t-6.5 -2zM677 -218q-23 -8 -46.5 -13t-49.5 -12q-4 -2 -9.5 -2.5t-8.5 -2.5q31 4 62.5 11.5t62.5 16.5q2 3 1 3t-3 -1t-4.5 -1.5t-4.5 1.5zM842 -218v-14h2v3q0 2 1.5 2.5t2.5 2.5v-5q8 0 8 3q-1 0 -2 1q-2 2 -2 5h-5h-1v1l1 1q0 2 -1.5 1t-3.5 -1zM883 -218h4h-4zM833 -218 q-8 0 -8.5 -6t-0.5 -10q5 -3 4.5 0.5t4.5 -0.5q0 2 2.5 1t-0.5 1q0 2 -1.5 1t-3.5 -1v3q3 3 3 5q-1 -1 -2 -1t-1 1t2 3q1 0 3 1q0 2 -2 2zM476 -218q0 -8 5.5 -16.5t3.5 -17.5q5 7 0.5 16.5t-9.5 17.5zM813 -224q0 -2 3 -4t0 -4q0 -2 -1.5 -3.5t-3.5 1.5v8h-4v-14h4q7 0 9 5 t0 11q-3 -2 -4 -1t-3 1zM803 -229l-6 -5q-2 0 -3 1t-4 1q-4 0 -2 -4.5t1 -9.5q4 0 3 3t2 5q2 0 3 -3.5t6 -1.5v14zM781 -240q0 -2 -2 -4l-4 -4q-5 2 -4 5t1 5h-4q0 -2 -1 -5t-1 -5q2 -3 4.5 -2t6.5 -2q9 3 6.5 9t-2.5 11q-3 0 -1.5 -3t1.5 -5zM487 -252q1 -2 2 -3 q2 -2 -2 -2h3v-3q0 6 -3 8z" />
<glyph unicode="?" horiz-adv-x="522" d="M168 718q79 6 147.5 -7.5t120.5 -53.5q11 -9 15.5 -21t6.5 -25.5t3 -25.5t5 -20.5t12.5 -12.5t25.5 1q-16 -10 -25 -26.5t-15 -36l-12 -39.5t-16 -36q-13 -6 -30 -11.5t-35.5 -13t-37.5 -18t-35 -26.5l-25 -103q-26 3 -37.5 12.5t-16 24t-4.5 33.5t-3 42q0 28 24 50 t55 41.5l61 37.5t42.5 37.5t-1 42t-69.5 50.5l-8 -34q3 16 -4 29.5t-18 22.5t-24.5 11.5t-23.5 -3.5q-32 6 -60.5 -7t-42.5 -45q26 -26 26 -53t-26 -59q-17 0 -35 -0.5t-35 4.5t-30.5 17t-19.5 38q-7 33 5 60.5t34.5 50t51 40.5t54.5 32zM168 113q10 26 33 49t49 32t49.5 -2 t33.5 -53q0 -23 -7.5 -35.5t-19.5 -21t-28 -14.5t-32 -15q-6 0 -21 2t-29.5 8.5t-24 18t-3.5 31.5z" />
<glyph unicode="@" horiz-adv-x="724" d="M442 681q25 -13 54.5 -23t58 -23.5t53.5 -35t41 -57.5q15 -15 17.5 -37.5t2.5 -44.5t3 -40t18 -25q-19 -32 -34 -63l-29.5 -62l-30 -63.5t-34.5 -68.5l-17 26q-13 -10 -24.5 -20t-23.5 -17t-25.5 -7.5t-29.5 8.5q-11 22 -22 27.5t-22.5 2t-23 -12t-24.5 -14.5t-26.5 -6.5 t-28.5 13.5h-70q8 0 14 9.5t12 16.5l-26 25q-26 -6 -33.5 -23.5t-3.5 -37t17 -37t30 -23.5q26 -6 53 -14t54.5 -12t54.5 -1.5t52 18.5q-6 -10 -3.5 -16.5t9 -11t15.5 -8t16 -6.5q3 16 17 23.5t30.5 11.5t32.5 7t23 9l50 -42q-12 0 -27 1.5t-23 -10.5v-17q-52 2 -98 -3.5 t-88 -11.5t-81.5 -8.5t-78 5t-77.5 29.5t-80 65l-7 -8q2 17 -5.5 36t-17.5 38l-20 38t-13 37t3 34.5t28 31.5l-52 9l43 53q-7 12 -13 14t-12 2q-7 33 9 62.5t39 60.5l47 64.5t33 72.5q19 23 40.5 30.5t43 6.5t42.5 -5t40.5 -3.5t37 10.5t30.5 38l25 -52zM311 621l18 -34h-86 q-26 0 -40.5 -18t-23.5 -41.5t-15 -46.5t-16 -33q3 -7 -4 -17.5t-13.5 -21.5t-7 -21.5t15.5 -16.5q-12 -47 -12 -92.5t12 -98.5h18q-10 29 -10.5 61t6 62.5t19 59t28.5 51.5q7 -8 11 -14.5t-2 -11.5q0 22 10 43t24.5 40t31 35l29.5 28q21 22 40.5 29t38 4.5t36.5 -12l37 -20 l38.5 -20.5t41.5 -14q2 17 -5 27.5t-19 18t-25.5 13.5t-24 14t-15 18.5t1.5 28.5q-19 -17 -35.5 -21.5t-33 -2t-33.5 9.5t-36 14zM562 421l-8 70q-13 -23 -18.5 -52.5l-10 -55.5t-12.5 -42.5t-27 -13.5v-35q-17 -13 -15.5 -27.5t9 -26.5t14 -19t0.5 -4q32 13 48 36t24 51.5 t12 59t11 59.5h-27zM363 465q-26 -46 -51.5 -81.5l-51.5 -74.5l44 -94q26 0 48 15.5t37 39t22.5 51t4.5 50.5q-20 0 -25 9.5t-2.5 21.5t9 23t9.5 14q-7 14 -18.5 17t-25.5 9z" />
<glyph unicode="A" horiz-adv-x="724" d="M421 609q0 -26 8 -55.5t34 -48.5q-19 -10 -19 -20t7.5 -20.5l15.5 -22t5 -24.5q3 -26 8 -53.5t15 -54.5t25.5 -50.5t38.5 -40.5q-10 -10 -10 -23.5t3.5 -28.5t8.5 -30.5t5 -27.5q33 -14 60 -35.5t53 -34.5q-13 -26 -31 -36.5t-38.5 -12t-43.5 3t-46.5 7.5t-46.5 1.5 t-44 -14.5q-13 10 -16 22t-2 25t2.5 25t-1.5 22q6 7 11.5 8t10 2t9.5 4t11 13q-25 45 -64 60t-91 15q-26 7 -37 -1.5t-17.5 -23t-14 -29.5t-26.5 -21l105 -87q-33 -9 -67 -16.5t-68 -9.5t-68 3.5t-66 22.5q14 26 29.5 43t48.5 17q39 64 61.5 141t41 154.5t39.5 151t56 131.5 q19 6 34.5 3.5t27.5 -10.5t22.5 -20zM325 540l25 -18q-19 -23 -30.5 -50.5t-16 -56t-3 -55t8.5 -45.5l-36 -42q23 -13 40 -12.5t32.5 5.5t31 9t35.5 -2q-7 9 -6.5 17t2 16t1.5 16.5t-7 18.5q-10 26 -17 55.5t-15 57t-18.5 50.5t-26.5 36z" />
<glyph unicode="B" horiz-adv-x="638" d="M551 609q17 -39 18.5 -72.5t-4 -64.5t-12.5 -60t-7 -58t12 -59.5t44 -65.5q-13 -178 -181 -215l-371 8q-16 13 -19.5 23t0.5 19.5t12 20t14 24.5q17 -17 31.5 -16t27 11.5t22 26.5t15.5 29q3 58 2 118.5t-6 120.5t-12.5 117.5t-17.5 109.5q-10 0 -22 -2t-23.5 -2t-20.5 4 t-13 16q-6 30 5 37t29 6t38 -2.5t33 11.5h98.5t108 -7t106 -24.5t93.5 -53.5zM222 548q6 -20 3 -37.5t-4 -34t7.5 -31t37.5 -27.5q23 3 41.5 0t35 -5t33.5 -0.5t37 14.5q10 16 27.5 27.5t31 24.5t16.5 30.5t-16 46.5q-22 22 -56.5 36t-71 15t-70 -13t-52.5 -46zM248 332 q-23 -20 -30 -45t-7 -52.5t3 -55.5t0 -53q19 -23 41.5 -29t45.5 -5t47 3.5t47 -4.5q52 7 85 44.5t27 102.5q-9 32 -26.5 49t-40.5 24.5t-49.5 8.5t-52.5 0.5t-49.5 1t-40.5 10.5z" />
<glyph unicode="C" horiz-adv-x="552" d="M245 704q19 7 38 3t37.5 -12t36.5 -17t36.5 -13t37.5 -0.5t38 20.5q-3 -32 0.5 -61.5t8 -58.5t8 -59t0.5 -62q-35 0 -58.5 19.5t-43 46.5l-39.5 54.5t-49 44.5q-19 28 -42 29.5t-44 -8t-37.5 -21t-22.5 -8.5q-29 -39 -41.5 -85t-16 -95t-0.5 -98l6 -94q13 -33 35 -57.5 t50.5 -37.5t62 -12t68.5 20q13 29 30.5 57t39.5 49.5t47.5 35t54.5 13.5q23 -16 26 -36.5t-3 -43t-14.5 -46t-8.5 -45.5q-20 -29 -46 -49t-56 -33t-61.5 -20t-60.5 -10q-49 -10 -82.5 8.5t-59.5 47.5t-47 60t-44 47q0 91 3.5 195t23.5 202q10 32 28.5 52.5t43 34.5 t54.5 23.5z" />
<glyph unicode="D" horiz-adv-x="649" d="M579 548q-6 -29 4.5 -66.5l21 -78t13 -81t-20.5 -76.5h-9q22 -23 17.5 -51t-24.5 -54.5t-49.5 -49t-55.5 -35.5q-13 -22 -35 -28t-46.5 -6t-47 0.5t-35.5 -8.5l-258 8q-13 24 -12.5 38t9 23t22 15.5t26.5 14.5t22.5 21t9.5 34q-6 61 -1 116l9.5 106.5t3 103t-20.5 107.5 l-95 33q-3 22 3.5 31t17 12t22 5.5t18.5 11.5q39 -6 84 -5l91.5 2t93 -2t88 -17t76 -43t58.5 -81zM218 548q8 -35 8 -75.5t-1.5 -83.5t-0.5 -86.5t10.5 -82.5t31.5 -72.5t64 -56.5v26q10 -3 16.5 4l13 14t13 9.5t16.5 -10.5q39 22 62 59t34 79.5t14 87.5t3 84 q-7 30 -24.5 59.5t-42 53.5t-53.5 39t-58.5 16.5t-57 -13t-48.5 -51.5z" />
<glyph unicode="E" horiz-adv-x="681" d="M160 701q63 -10 122.5 -9.5t119 0.5t119 -6t122.5 -28l16 -71l-62 -27q24 -11 32.5 -19t7 -15.5t-10 -15.5t-17.5 -18t-15.5 -23t-4.5 -31q-33 4 -49 17t-22.5 31t-5.5 38.5l2 40t-0.5 35t-11.5 22.5t-32.5 4t-63.5 -21q-10 22 -21.5 21.5t-23 -9t-22.5 -15.5t-21 3 q0 -22 -10.5 -31.5t-24 -12t-27 -2t-19 -1t0 -8.5t29.5 -25h25q-2 -13 -9 -16.5t-16 -4t-18 0.5t-15.5 -2.5t-8 -13.5t5.5 -32l106 -53q-11 15 -10 26.5t8 21t16.5 17.5t15 16t3.5 17.5t-17 22.5l44 35l61 -85h-7q6 -20 3 -42t-6.5 -43.5t-3 -40.5t13.5 -32h-17 q-10 -16 -6.5 -29.5t7.5 -26t2.5 -24.5t-20.5 -25q-13 9 -21.5 25t-16 34t-15.5 35t-21 28t-33 12.5t-50 -11.5q0 -17 -8 -26.5t-16.5 -18.5t-13 -20.5t1.5 -30.5q7 -10 18.5 -12t22 -5t17 -10t3.5 -28q-9 -6 -16 -1.5t-12.5 9t-11 5t-12.5 -12.5q0 -6 0.5 -13.5t3 -13.5 t8 -10.5t15.5 -4.5h17l-53 -17l70 -62q16 23 31 22.5t30 -9t30 -16t32 2.5q36 -15 57 -12.5t32 16t15.5 34.5t7.5 43t7 42t14.5 32t30.5 12t55 -18q-14 -14 -26 -18.5t-20 -16.5l46 -52q-14 -7 -26 -9t-20 -8l53 -54q-69 -33 -143 -43.5t-149 -9.5t-149 8.5t-143 10.5h-9 q0 20 9.5 30t24 15.5t30.5 8.5t29.5 9t21.5 17t6 33q-3 59 0 120.5t2 121.5t-10 116t-35 106q-16 -4 -32 0t-31 11.5t-28 16l-23 14.5q4 30 17.5 39.5t33 11t42.5 1.5t46 10z" />
<glyph unicode="F" horiz-adv-x="642" d="M613 652l-7.5 -36.5t-7.5 -48.5t-4 -52t3 -45l-78 -17q-7 19 -7.5 41t-3.5 42.5t-13.5 37.5t-36.5 27q8 -7 7 -16t-6.5 -19t-12.5 -20t-8.5 -18.5t4 -14.5t25.5 -8q-15 -15 -19.5 -33t-3.5 -37t4.5 -39t3.5 -40t-6 -39.5t-23 -36.5l26 -42q-6 -7 -16.5 -14.5t-22.5 -10.5 t-24.5 -0.5t-22.5 16.5q3 16 2.5 35.5t-7 35.5t-20 25.5t-35.5 6.5q-30 13 -44 11.5t-18.5 -11.5t-3 -27t2 -35t-3.5 -34t-19 -24q-7 -33 4.5 -53t32.5 -33t46 -22t46.5 -19.5t34 -24.5t8.5 -38q-49 -3 -94.5 -7t-90 -4.5t-89 3.5t-89.5 16q2 20 10.5 29.5t20 13.5t25 5.5 t27.5 5.5t26 13.5t21 28.5q-9 38 -6.5 81t8.5 87.5t11 88.5t2.5 85t-17.5 77t-49 64l-79 25l9 43q75 -6 149 -1t147 8t143.5 -1.5t138.5 -30.5zM441 582q-15 -4 -33.5 -1t-37.5 8t-38 9t-36 1.5t-31 -14t-23 -37.5q9 -11 10 -24.5t0 -28t-2 -27.5t3 -23t15 -15t35 -3l34 43 l-26 18l61 68q20 0 37.5 2.5t31.5 -10.5v34z" />
<glyph unicode="G" horiz-adv-x="678" d="M525 592q-12 -17 -19.5 -38.5t-7.5 -44.5t8 -44.5t28 -37.5q-20 -9 -40 -4t-38 17.5t-31.5 30.5t-20.5 34q10 22 3 39t-22.5 29t-34.5 21l-32 15q-39 11 -66.5 5.5t-47 -21t-33.5 -39.5t-26.5 -50.5l-24.5 -53.5t-27 -48q0 -33 3.5 -72t16 -77t37 -71.5t66.5 -55.5 l85 -35l26 43q7 -6 12.5 -7t13.5 -1q13 10 13 19t-6 17t-13.5 13.5t-10.5 8.5q3 -6 7.5 -7t10 0t12 2t13.5 -2q8 15 3.5 27t-14.5 22.5t-22.5 20.5t-19.5 21.5t-4.5 24.5t21.5 31q23 6 41.5 14.5t36 13.5t34.5 3.5t37 -14.5q6 3 8 9.5t2 13.5t-1.5 15t-1.5 14 q5 -24 14.5 -35t22.5 -15.5t27.5 -5t29.5 -4t29 -13t25 -30.5q-37 2 -56.5 -12t-29 -37t-12.5 -53t-8 -60.5t-15.5 -58.5t-33.5 -47q-17 13 -32 18t-29.5 5t-29.5 -4t-31 -11v-16q-78 -20 -151 -0.5t-126 77.5q-48 65 -63 139t-6 148t37.5 144.5t67.5 129.5q30 26 59.5 36.5 t59 12t59 -3.5t60 -11t61.5 -9.5t64 0.5z" />
<glyph unicode="H" horiz-adv-x="692" d="M247 694q20 -13 39 -22.5t39 -29.5q-10 -3 -21 -12.5t-23 -18t-25.5 -13t-26.5 2.5q7 -14 -0.5 -28.5l-16 -30t-10 -31.5t17.5 -32l-16 -35q32 -19 66 -26.5t67.5 -7.5t67.5 5.5t66 11.5q16 19 18 40t-2 42.5t-10 42t-6 40.5q-10 3 -30 6t-38.5 11t-29.5 23.5t-4 44.5 l250 8l41 -43q-25 -15 -49 -41t-40.5 -57t-21.5 -64t9 -62q11 -28 9 -62t-6.5 -70t-7.5 -71.5t5.5 -66.5t33.5 -55t77 -37q-2 -32 -13 -47t-26.5 -18.5t-35 0.5t-40 9t-39.5 7.5t-34 -3.5q-10 10 -29 8t-37.5 -3.5t-32 3t-13.5 27.5q13 26 36.5 36.5l45.5 20t35 26t4 55.5 q3 23 1.5 57.5t-13 64t-35.5 44t-66 -1.5q-15 -17 -34.5 -19.5t-39 0.5t-38 8t-31.5 3t-19.5 -15t-1.5 -45q-3 -33 -2 -71t12.5 -69.5t35.5 -51.5t66 -17q16 -19 12.5 -28.5t-15.5 -15.5t-27.5 -12.5t-21.5 -19.5q-26 13 -60 12.5t-67 -1.5t-61.5 3.5t-43.5 27.5 q29 19 49 46t33.5 58t22.5 64t15 66q-17 32 -20.5 68.5t-2.5 73t1.5 72t-9 66t-34.5 54t-74 36.5q11 28 26 38.5t33 11.5t38 -3.5t41.5 -7.5t43 0.5t43.5 20.5z" />
<glyph unicode="I" horiz-adv-x="519" d="M40 660q57 0 116 8t117 8.5t112.5 -12.5t102.5 -55q-2 -13 -21 -16.5t-43.5 -3l-49.5 1t-39.5 -4.5t-13.5 -19.5t29 -44.5q-26 13 -37.5 13t-15 -8.5t-2 -22.5t2.5 -29t-1.5 -28.5t-15.5 -19.5q15 -6 16.5 -14.5t-2.5 -17t-11 -17.5t-9.5 -16.5t3.5 -13t28 -7.5 q-9 -23 -10 -46t4 -45.5t13.5 -45t18.5 -44.5q-26 0 -26 -26q11 -30 32.5 -43t45.5 -18t45.5 -6.5t32.5 -9t6.5 -25t-32.5 -54.5h-380l-25 36q13 16 27.5 31t33 25.5t41.5 14.5t52 -3q10 45 13.5 97t3 106.5t-5 108.5t-11.5 102q20 10 20 19.5t-7 20t-15.5 22t-5.5 24.5 l-137 19v59v0z" />
<glyph unicode="J" horiz-adv-x="596" d="M378 669q52 0 93.5 -10.5t87.5 -41.5q10 -7 5.5 -14.5t-16 -14.5t-26 -13t-24.5 -9q-6 9 -15 11.5t-19.5 2t-21 -3t-19.5 -2.5q-20 -6 -25.5 -15.5t-4 -20.5t6 -22t4.5 -21h-7q-14 -61 -12.5 -125l3 -127t-4 -124t-32.5 -115q-22 -23 -47.5 -31t-53.5 -8t-59 5t-64 9 q-23 16 -44 39t-35 51.5t-19 60t4 64.5q3 23 15.5 36.5t30.5 19.5t39.5 7t44.5 -2q19 -15 21 -34.5t-3.5 -39.5t-13 -38.5t-6 -32.5t16 -22t53.5 -6q42 45 54.5 99t12 113t-6 121t0.5 124q0 7 -11.5 14.5t-28.5 14.5t-36.5 13t-35.5 10l-17 -25l-43 51q16 26 46.5 33.5 t66.5 8t74.5 0.5t70.5 10z" />
<glyph unicode="K" horiz-adv-x="758" d="M50 647q15 13 39.5 21t52.5 10.5t57.5 0.5t54 -9t42 -19.5t21.5 -30.5q-48 14 -72 0t-34.5 -41.5t-13.5 -61.5t-9 -60l26 -87q19 4 32.5 16t24 28t19 34.5t18.5 34.5l9 -8l95 111l-22.5 12.5t-15.5 14t-7.5 20.5t1.5 32q46 12 93.5 17t94 1t89 -17t78.5 -36 q-20 -17 -45 -26t-53 -13.5t-56 -7t-54 -5.5l-155 -172q13 -7 14.5 -15t-1.5 -17t-8 -18.5t-5 -19.5q26 -13 45 -35.5t35.5 -48.5l32.5 -53t36 -49.5t46 -37.5t63 -17q23 -16 30 -31.5t13 -27t17.5 -17.5t44.5 -2q-45 -26 -91.5 -35t-92 -6t-89 16.5t-82.5 33.5 q-6 16 -1 22.5t14.5 9t21 4t17.5 7.5q0 32 -13 65.5t-32 66t-42 63l-42 56.5q-32 -7 -49.5 -29.5t-24 -53t-4 -66t8.5 -67.5q7 -3 19 -9.5l25.5 -14.5t27 -17t23.5 -18q-7 -21 -18.5 -34t-24.5 -19q-17 9 -38.5 9.5t-45 -1.5l-47 -4t-45 2t-39 16.5t-28.5 38.5 q13 -3 30 -2.5t32.5 6t27.5 17t15 30.5l17 482q-16 16 -34 20.5t-33.5 7t-25.5 8t-10 25.5z" />
<glyph unicode="L" horiz-adv-x="716" d="M20 630q49 6 92.5 13.5t87 13t90 8.5t101.5 0q-5 -26 -15 -49t-36 -30q-16 13 -29.5 14.5t-25.5 -2.5t-24 -10.5t-25 -9.5q4 -13 0.5 -25t-10 -23.5t-13 -21.5t-8 -19.5t5 -17.5t25.5 -14q-6 -13 -14.5 -25.5t-2.5 -25.5l17 -26l-34 -26q13 -39 18.5 -79.5t12.5 -76 t21 -63t43 -40.5q26 3 46 6.5t39 6.5t37.5 5.5l41.5 5.5q9 9 13.5 24.5t8.5 33t9.5 34.5t16 28.5t27.5 15t45 -4.5q13 -13 23 -26.5t20.5 -25t24.5 -18.5t36 -7q-3 -29 -8.5 -65t-19 -67.5t-39.5 -53t-71 -21.5q-68 3 -129 8.5l-122 11.5t-123.5 10t-133.5 4 q-7 22 -4.5 32.5t11 14.5t21 4t26 0.5t26.5 3.5t21 14q10 58 17.5 125.5t8.5 137.5t-6.5 137.5t-26.5 125.5l-113 35v0z" />
<glyph unicode="M" horiz-adv-x="761" d="M46 638q6 26 17.5 36.5t25.5 12t30 -3t32.5 -7t32 -1t29.5 14.5l68 -176q-6 8 -8 3t-8 -11q26 -32 34.5 -73t15 -83.5t19 -83.5t45.5 -74q-13 18 -11.5 30.5t10 23t21 19.5t20.5 19t8.5 21.5t-14.5 26.5q10 22 22.5 54t23.5 69.5t20 79.5t13 84q15 28 34.5 40t40.5 13.5 t43.5 -5l44.5 -13.5t42.5 -12.5t38.5 -3.5q-14 -13 -24.5 -24.5t-22 -20.5t-25.5 -15.5t-33 -9.5q9 -14 7.5 -20t-9 -12l-17.5 -14t-16 -24q6 -4 10 -8.5t7 -7.5t7 -4t11 2v-26q-7 7 -9 11.5t-9 -2.5l18 -79q-7 0 -9 4t-9 4q26 -29 22.5 -57t-13.5 -54.5t-13.5 -53 t22.5 -52.5q-17 -7 -19 -16.5t2.5 -20t10.5 -21.5t6 -21v-17h-9q-10 -7 -8.5 -13t8 -12t15 -10.5t11.5 -8.5l45 26q6 -10 9 -26t0.5 -30.5t-11.5 -24t-25 -6.5q-23 0 -53 -0.5t-59.5 4t-54 15t-34.5 33.5q40 10 56 29.5t22 44.5t7 55.5t11 63.5h18q-20 13 -22.5 30.5t2 37.5 t12 40.5t7 40.5t-13 37.5t-47.5 30.5l9 -78q-6 3 -12.5 11t-13 15t-13.5 8.5t-14 -8.5q0 -14 -2 -29.5t11 -22.5h35q-31 4 -43.5 -1t-15.5 -16t0.5 -26t5 -31t-2.5 -31t-21 -26v-26h-10l-17 -183q-35 -9 -55.5 -2t-31 25t-15 44t-7.5 54t-7.5 56t-15.5 50l-34 156h-26 q10 17 13.5 29t3 21t-5 15.5t-11.5 13.5h9q10 10 8.5 14.5t-7 7.5t-12 7.5t-6.5 14.5h-18q-7 -26 -4 -51t7 -50t5.5 -49.5t-8.5 -50.5h18q-23 -17 -28.5 -43t-1.5 -54.5t13.5 -56.5l16.5 -47q10 -10 24 -17.5t25.5 -16.5t16 -21.5t-5.5 -32.5q-20 -17 -38.5 -21.5 t-37.5 -2.5t-37.5 7.5t-37.5 7.5t-38 -2.5t-38 -22.5q-3 7 -12.5 19t-15 26t-3.5 28t22 23l9 -9q39 33 58 72t24.5 82t1.5 90t-9 95t-8.5 96.5t3.5 96.5zM544 488h-18l18 -34v34z" />
<glyph unicode="N" horiz-adv-x="714" d="M98 698q23 7 47 4.5t46.5 -10.5t43 -20t37.5 -25l41 -52l-6 -9q19 -19 31.5 -45.5t24 -55.5l24 -59t32.5 -56l-19 -16l60 -34q-12 -14 -10.5 -30.5t21.5 -21.5q19 32 24 64.5t3 66.5t-6.5 70.5t-4.5 75.5q0 19 -11 29.5t-26 18t-31.5 13.5t-28 14.5t-14.5 23t8 38.5 q33 -6 78 -1t89.5 5.5t81 -12t52.5 -54.5q-26 -6 -40.5 -14.5t-23 -20.5t-15 -28.5l-15.5 -38.5l25 -26q-19 -2 -25.5 -9.5t-6.5 -18t4.5 -22.5t6 -23.5t-2.5 -22t-19 -16.5q4 -4 11 -7.5t13.5 -8t10 -11.5t0.5 -17q-7 0 -13 5.5t-12 12.5q-10 -7 -14.5 -15t-5.5 -17 t-0.5 -18.5t0.5 -19.5l45 -9l-45 -51l62 -25q-13 0 -28.5 -6.5t-23.5 -19.5q19 -14 26.5 -24.5t6 -22t-10.5 -25l-22 -32.5l35 -16q-3 -10 -20 -25.5t-39 -24.5t-43.5 -6t-34.5 29l-29.5 69t-25.5 57t-29 52t-38 54q0 27 -11.5 46t-23.5 36t-19 34t2 40q-9 7 -17.5 15.5 t-17.5 16t-19.5 11t-23.5 0.5q15 -16 17.5 -31t-0.5 -30t-8.5 -30t-7 -30.5t5.5 -30.5t29 -30q-7 10 -13.5 8.5t-12.5 -8t-11 -14.5t-8 -11q3 -6 5.5 -13.5t6 -15t9 -13.5t16.5 -9q-20 -13 -24.5 -23t-1 -18t13 -15t18 -14t12.5 -15.5t-2 -18.5q16 3 26.5 -6t19.5 -23 l17.5 -28.5t22.5 -20.5l-302 -10q-10 4 -15 12t-5.5 17t2.5 18t9 15q16 3 33.5 10t32 17.5t25.5 25t14 33.5q-13 39 -14 84.5t2 93t4.5 94.5t-5.5 88.5t-28 75.5t-64 56q-6 29 -1.5 34.5t15 4t23.5 -2t23 14.5z" />
<glyph unicode="O" horiz-adv-x="543" d="M465 586q0 -32 7.5 -63l15.5 -61.5t12.5 -61.5t-1.5 -64q13 -20 16.5 -39t2.5 -39.5t-3 -41.5t1 -43q-6 3 -11 2t-10 -4.5t-10 -8t-11 -7.5q17 -11 21 -19t-0.5 -15t-13 -14t-16.5 -14.5t-11.5 -17t2.5 -22.5q-26 -20 -58 -37t-66.5 -26.5t-70.5 -10t-72 12.5 q-32 9 -54.5 26.5t-39.5 40t-31 49.5l-30 56q-4 45 -9 93t-5.5 96.5t5.5 97t25 94.5q23 19 46.5 44t48.5 46.5t53 35.5t60 11q26 -20 54.5 -27l56 -13.5t52.5 -17.5t44 -38zM319 578q-42 13 -70 1.5t-48.5 -35t-37 -53t-35.5 -51.5q-23 -32 -23.5 -74t12 -85.5t32.5 -86 t40 -75.5q19 -15 46 -24t53 -10t46.5 7t27.5 27q-3 13 3.5 23.5t16 19t19.5 16t14.5 15.5t1 17.5t-20.5 22.5q6 6 13 15.5t14 9.5v156q-14 16 -24.5 41l-22 50t-25 45.5t-32.5 27.5z" />
<glyph unicode="P" horiz-adv-x="621" d="M286 647q36 -3 71.5 1t69.5 4.5t65.5 -7t60.5 -33.5q26 -16 33.5 -45t7.5 -62.5t-2 -69t5 -65.5q-19 -26 -42.5 -44t-49.5 -31t-53.5 -22t-53.5 -15q-13 6 -33.5 7t-42.5 0.5t-41 -1t-29 3.5q-3 -23 -7.5 -43t-7 -39.5t-1.5 -39.5t7 -42q13 -3 26 -15t26 -21t26 -9.5 t26 19.5q0 -17 13 -30.5t22 -25.5t4.5 -24t-39.5 -24q-42 -6 -87.5 -2.5t-88.5 11.5t-80.5 18t-62.5 16q3 26 18.5 36t36 15t41 11t33.5 25q0 97 1 191.5t8 179.5q3 35 -7.5 60t-30 41t-45.5 24.5t-55 11.5q-10 22 -3 28.5t20.5 8t29 4.5t21.5 19q23 -16 47 -14.5t48.5 5.5 t48 3.5t46.5 -19.5zM312 586q-3 -15 -12 -18.5t-18.5 -2t-18 4t-11.5 -0.5l-9 -86h-8l25 -120q33 3 53 -4t38 -12.5t38 -4.5t52 21q26 12 45.5 30.5t28.5 41.5t5 48.5t-26 51.5q-23 19 -44.5 23.5t-43 5.5t-45 4t-49.5 18z" />
<glyph unicode="Q" horiz-adv-x="645" d="M505 515q3 -26 1 -54t-1 -52.5t7.5 -42.5t26.5 -25q0 -16 -7.5 -29.5t-12.5 -26t-2.5 -24t22.5 -24.5l-15.5 -35.5t-17.5 -46t-14 -49.5t-6 -44q-13 -23 -29.5 -38t-26 -28.5t-7 -30t28.5 -43.5q24 4 34.5 14.5t14 23.5t4 27t4 26t14 21t34.5 12q7 -21 22.5 -37t28.5 -16 l11 7q-16 0 -22.5 -10.5t-8.5 -27t-1 -37t2.5 -41t0.5 -38t-7 -28.5l-44 25q-6 -23 -17 -28.5t-24 -4.5t-27 3.5t-27 -3.5l-10 33q-16 -12 -26.5 -12t-19.5 5.5t-18.5 13.5t-22.5 11q4 24 -2.5 39.5t-19.5 25t-30 14.5t-33 8.5t-29 7t-17 10.5q-6 -10 -14.5 -2.5l-18.5 16.5 t-21.5 11t-24.5 -17q4 19 -9 39.5t-31 41.5t-34.5 44t-19.5 49h-18q3 33 4 74t3.5 82t8 78t18.5 64l-25 27l51.5 66t56 60t67.5 40.5t86 7.5q36 -3 65 -18t53.5 -34.5t46.5 -41.5t45 -38zM243 550q-33 -23 -56.5 -57t-39 -73t-24 -80t-11.5 -77q-3 -13 4 -23.5l13.5 -20.5 t7 -20t-15.5 -23q13 -20 22 -20t17 7.5l17 15.5t22 5q4 -3 8.5 -5t8.5 -4.5t6.5 -6t2.5 -10.5q0 30 10.5 38.5t27.5 5t39 -14t44.5 -17.5t43 -6t36.5 20q13 -6 10 -14t-7.5 -15.5t-4.5 -13.5t20 -9q-4 19 -1.5 43t6.5 48.5l8 48t4 43.5h34q-26 9 -36 20.5t-12 24.5t1 28 t4 30.5t-4 31.5t-22 31q-13 26 -34.5 41t-46.5 22.5t-52 8t-50 -2.5zM250 114l-51 -43l22.5 -6.5t25 -5.5t23 -3.5t16.5 -1.5q-3 6 -3.5 16.5t-3.5 20t-9.5 16.5t-19.5 7z" />
<glyph unicode="R" horiz-adv-x="656" d="M609 497q0 -38 -19.5 -72.5t-41 -67.5t-35 -66t-1.5 -69h-8q-11 -24 -7 -43.5t16 -36t29.5 -32l34.5 -31.5t30.5 -33.5t17.5 -39.5q-16 -29 -33.5 -32.5t-36 2.5t-37.5 15t-38 5q-22 22 -33.5 56.5t-20 72t-18.5 72.5t-28.5 58.5t-50 30.5t-83.5 -13q-30 -2 -40.5 -9.5 t-9.5 -18t8 -23.5t11.5 -27t1.5 -27t-23 -24l25 -36l-16 -15q19 -22 34.5 -27.5t29 -9t26.5 -12.5t29 -38q-18 -4 -35.5 -15.5t-34 -18.5t-31 -4t-27.5 28l-77 -7v-8q0 6 -8 6.5t-20 -1t-25 -2.5t-22.5 3t-13.5 14.5t3 32.5l103 59l-17 474q-15 -13 -23 -13t-11.5 7t-6 17 t-7 18t-13 11t-25.5 -6q13 42 44 56.5t70.5 15.5t82.5 -5.5t79 -6.5q51 4 96 -3t83.5 -26.5t69 -52.5t53.5 -82zM246 584q-3 -10 -16 -23.5t-21 -26t-4.5 -23t32.5 -14.5l-34 -33q19 -14 23 -35t-16 -34q13 -22 26.5 -28.5t26.5 -5t26.5 7.5t27.5 10.5t28.5 3.5t29.5 -14 q26 0 37.5 5t15 13t2.5 17.5t1 18t10 15t30 8.5q-4 16 -2.5 28.5t3 23.5t0.5 23t-11 28q-23 16 -51 24t-56.5 10t-56.5 1.5t-51 -0.5z" />
<glyph unicode="S" horiz-adv-x="601" d="M306 721q28 -6 41 -16.5t22.5 -16.5t22.5 -4t42 21v-18q29 20 49 8.5t34 -36t23 -52t16 -40.5q-7 -10 -6.5 -21t2 -22t1.5 -22t-7 -21l-25 26l-15 -37t-20 -24l-27.5 40.5t-20 33t-15.5 30.5t-14 34q-23 26 -42.5 28t-35.5 -1.5t-28.5 -2t-22.5 27.5v-17q-20 10 -32.5 6 t-22.5 -11.5t-19.5 -13t-22.5 0.5q0 6 -3 8t-3 10q-7 -17 -27 -29t-36 -24t-18 -26t27 -33l9 9l-9 -35q33 -20 72.5 -31.5t81.5 -19t85 -11.5t82 -7q0 -17 5.5 -23.5t13.5 -7.5t17 0t15.5 -1t9 -10t-1.5 -27l69 -52l-26 -44q29 -9 32.5 -25t-3.5 -32.5t-18 -29.5t-11 -16 l-25 -26q13 -8 19 -19.5t6 -31.5q-4 -13 -11 -16t-15.5 -1t-16 6t-13 4.5t-7 -4.5t2.5 -22q-58 -17 -110 -18t-100 8.5t-92.5 28t-86.5 40.5q0 -26 -17 -37.5t-43 -6.5q-13 26 -12 56t6 61.5t9 63.5t-3 61q24 -4 35.5 -16t17 -27.5t7.5 -31.5t6.5 -28.5t14.5 -20t32 -5.5 q10 -17 33.5 -30.5t49 -22t49 -9.5t33.5 8l-9 -7q22 -9 43 -3t40 21.5t35 36.5t29 41q32 32 25.5 56.5t-31 43t-56.5 32t-51 23.5l-34 -27q-7 26 -20.5 31.5t-29 4l-30 -3t-23.5 11.5v-17q-27 6 -51 22.5t-44.5 37.5t-36.5 43.5t-25 41.5q-13 23 -10.5 45.5t13 44.5t24.5 43 t24 41q23 22 48.5 29t52.5 8.5t54 2t54 10.5z" />
<glyph unicode="T" horiz-adv-x="631" d="M537 680q19 -7 33.5 -27.5t33.5 -33.5q-12 -20 -15.5 -38t15.5 -32q-16 -9 -18 -28.5t-0.5 -44t2 -50.5t-8.5 -49q-16 -7 -33.5 -1.5t-31.5 16.5t-21 26t-1 28q-6 19 -2 44.5t5 50t-7 43.5t-38 25q-39 14 -63 0t-36 -41.5t-14.5 -61.5t0.5 -60q13 -30 13.5 -72.5 t-2.5 -87.5t-3.5 -88.5t12.5 -76.5t44 -51t91 -12q15 -21 16 -33t-7.5 -17.5t-23 -7.5t-30 -3t-29.5 -4.5t-20 -11.5q-22 13 -49.5 13t-56 -4.5l-57 -9t-51 0t-37.5 21.5t-17 56l130 50q7 58 8 115.5t0 116t-1.5 119t3.5 125.5q-23 16 -43 19.5t-38.5 -0.5t-37 -12.5 t-37.5 -15.5q10 -10 10.5 -17t-4.5 -13t-14 -13t-19 -16q26 -20 31 -34t-1 -27t-16 -27t-14 -33l-26 -36q-20 36 -27.5 71t-8 71t3.5 75.5t7 84.5q67 13 129.5 14t123 -1.5t122 -3t126.5 9.5z" />
<glyph unicode="U" horiz-adv-x="718" d="M124 667q26 0 54 0.5t55.5 -3.5t52.5 -15t45 -33q-26 -13 -50 -30t-40 -39.5t-21 -52.5t8 -69q13 -19 9 -43.5t-9 -50.5t-2.5 -51t28.5 -44q-26 -16 -28 -32.5t6.5 -33.5t19.5 -35t11 -37q19 -20 40 -27.5t42.5 -7t44 7.5t45.5 17q30 22 43 47.5t16 54t-0.5 59.5t-6.5 63 t-3 65t11 65l-25 19q28 16 25.5 30.5t-15.5 28l-25 26.5t-2 27q-10 -7 -23.5 -8.5t-24.5 2.5t-18 13.5t-4 25.5l13.5 30.5t20.5 30.5q29 -7 65 -6t73.5 -0.5t73 -10t64.5 -34.5q-54 -20 -80.5 -52t-36.5 -72.5t-9 -87.5t3.5 -96t1 -98.5t-17.5 -94.5q-19 -40 -43 -68.5 l-49 -60.5q-14 13 -28.5 9t-30 -13t-31.5 -17t-32 -5q-32 3 -65 15.5t-61 32.5t-49.5 47.5t-31.5 59.5q-7 61 -3.5 121t4 117.5t-7.5 112.5t-37 107q-10 -10 -18 -10t-15 6t-13.5 14.5t-13.5 14.5q-3 29 5.5 37.5t23 10l32.5 3.5t34 18z" />
<glyph unicode="V" horiz-adv-x="658" d="M635 632q-6 -17 -20.5 -25.5t-32.5 -13l-37 -9t-34 -13t-23.5 -24.5t-6.5 -44l-20 -139t-26 -131.5t-42 -123.5t-68 -115q-41 45 -63.5 99t-37.5 111.5t-28 116t-33.5 112.5t-54.5 101t-92 82q3 19 18 31t36 19.5t43.5 11.5l39.5 7q29 -20 56 -20h49.5t39.5 -10t27 -49 q-42 7 -64 -11t-29.5 -47t-2.5 -63t18 -60q-6 -13 3 -23t18 -18.5t10 -17t-22 -17.5l96 -79q-4 42 10 76t30 68t27 72t1 87l-23 7t-24.5 12t-18 21.5t-2.5 35.5q10 23 32.5 27t50.5 3t58 1t56 22z" />
<glyph unicode="W" horiz-adv-x="741" d="M20 650q7 24 22 35t34.5 12.5t42 -5t43.5 -17.5t39 -24.5t29 -26.5q2 -13 -6 -24t-19 -21.5l-22 -21.5t-15.5 -23.5t0.5 -27t27 -31.5l-44 -16q16 -26 20.5 -55t6 -59t5.5 -59t21 -55q15 29 25 69t17 84.5l14 91t17.5 87t26 73t39.5 50.5q23 3 32 -10t13.5 -29.5l8 -30 t16.5 -10.5h-17q-10 -6 -10 -11t5 -10t12 -10.5t10 -12.5h35q-10 -10 -21 -22.5t-16 -25t0 -25t27 -22.5q-12 6 -19.5 -2t-13.5 -15q0 -13 7 -26t17.5 -24.5t22.5 -21l21 -16.5q27 10 35 33.5t10.5 48t5.5 44.5t20 23q-13 13 -14 29.5t-1.5 33t-5 30t-24.5 20.5 q0 10 -1 19.5t0 17.5t5 14.5t15 10.5q22 0 50 1.5t56 -2t52.5 -15t41.5 -37.5l-18 -17l9 -10q-23 -19 -37.5 -42.5t-24.5 -45.5t-15.5 -40.5t-8.5 -27.5q6 -17 1 -23.5t-14.5 -9t-21 -4t-17.5 -7.5q6 -17 16.5 -41t14.5 -46.5t-3.5 -40t-36.5 -20.5l16 -18q-26 -33 -36 -72 t10 -85q-13 0 -20.5 -2t-13.5 11q6 -17 6.5 -29t-3.5 -23.5t-12.5 -23.5t-18.5 -28q-39 26 -56 59t-23.5 69t-8 73t-8.5 71t-26 63t-60 49l-17 -18l25 -36q-21 -7 -26 -16t-1.5 -19t11 -21.5t11 -21.5t-1.5 -19.5t-27 -15.5l26 -26q-13 7 -22 -3.5t-15 -30.5t-11 -45 t-10 -47t-12 -37.5t-17.5 -15.5t-25.5 18.5t-36 64.5q-13 75 -23 147.5t-24 143t-35 139t-57 137.5zM448 362q-13 -17 -7 -26t18 -14.5t23 -10t8 -10.5q3 20 -0.5 27t-10.5 10.5t-16 7t-15 16.5z" />
<glyph unicode="X" horiz-adv-x="664" d="M21 624q17 33 49 44.5t71 11.5t80 -7.5l77 -14.5q3 -13 -0.5 -22.5t-9 -17t-11 -12.5t-5.5 -8q11 -2 14.5 -11.5t4 -22.5l1 -26.5t5.5 -23.5t16.5 -14t35.5 3q17 13 18 31.5t-3 40.5l-8.5 45.5t1.5 46.5q39 7 80 10.5t79.5 0t71.5 -18t56 -43.5q-15 -18 -37 -23.5 t-45.5 -7t-45.5 -2t-38 -8.5t-23.5 -26.5t-0.5 -54.5q-26 0 -39.5 -7t-19 -18.5t-7 -26t-4.5 -28.5t-10.5 -27t-24.5 -22q30 -26 49.5 -60t36.5 -70.5l35 -72t44 -64.5q6 10 19.5 8t28 -9.5t27.5 -18t19 -16.5l10 -50q-33 9 -69 4.5t-72 -9.5t-69 -3t-59 25q9 26 19.5 48 t16 43.5t4 45t-14.5 52.5l-51 78q-51 -65 -65.5 -133.5t23.5 -133.5q-29 -19 -57 -22t-54.5 -2.5t-52.5 -1t-51 -17.5q-20 6 -27.5 18.5t-8.5 26.5t2.5 29.5t7.5 27.5q30 -7 53.5 2.5t42.5 29t34 45t29 52l27.5 50.5t28.5 39q10 25 11.5 54.5t-5.5 56t-21.5 47.5t-36.5 30 q0 19 -9 37t-24.5 32.5t-36 25.5t-42.5 17q-19 -12 -37.5 -7t-32.5 25z" />
<glyph unicode="Y" horiz-adv-x="734" d="M358 598q6 38 23.5 56t42 22.5t54 -0.5t60 -11t59.5 -10t53 3l62 -60q-9 -9 -22 -19.5t-29 -18t-34 -10t-37 4.5q-38 -35 -70.5 -80t-59 -92t-47.5 -92l-37 -81q-16 -35 -14.5 -60.5t13.5 -45.5t32 -35t42.5 -27l44 -23.5t36.5 -24.5q-42 -26 -85.5 -26t-87 7.5t-87 13 t-85.5 -10.5v59l34 -8q3 19 14.5 23t25.5 5t27 3.5t19 18.5q24 39 26.5 75.5t-8.5 71.5t-31.5 69.5t-44 69.5l-45.5 71t-35 75q-11 17 -28.5 26.5t-37 15.5t-38 11t-30.5 14.5t-14 26t11 44.5q45 0 87 6.5t82.5 7t80 -12.5t78.5 -52zM340 581q-3 -17 -17.5 -22.5t-28.5 -10 t-21 -13.5t6 -32q16 -3 22 -17t11 -28.5t14 -25t32 -7.5l43 95q-9 6 -11.5 20t-5.5 26t-12 18t-32 -3z" />
<glyph unicode="Z" horiz-adv-x="634" d="M547 624q0 -29 -15 -54.5t-35 -50.5l-40 -51.5t-30 -58.5l-43 8q2 -26 -6.5 -45.5t-23.5 -36t-33.5 -31t-35.5 -30.5t-30.5 -35.5t-17.5 -45.5q-13 -13 -28.5 -25l-31.5 -24t-31.5 -25.5t-28.5 -30.5q5 -20 21.5 -33.5t29.5 -25.5q36 10 63.5 15t53 5.5t53 -2.5t62.5 -10 q13 4 33 9t40.5 11t38 14t27.5 19t9 25.5t-18 33.5q13 -6 23 4.5t2 30.5v26q4 -6 10 -9t12 -4.5t10.5 -4t4.5 -8.5l-18 -26q23 -13 28 -23.5t0 -20t-15 -18.5t-17 -19t-6 -21.5t19 -26.5q-7 -3 -14.5 -3h-15t-14 -2.5t-9.5 -11.5v-18l-353 -8v8q-8 5 -23 4t-31 -3 t-31.5 -2.5t-26 4.5t-14 18.5t4.5 39.5q-3 12 7 24t23.5 24t25.5 25.5t12 29.5q39 42 66 77.5t49.5 71.5l46 75t55.5 87l43 60q-32 33 -64.5 41t-64 5.5t-62 -8.5t-59.5 -3q3 -20 2.5 -45.5t-7 -48t-20 -38t-36.5 -15.5l-42 8q13 21 13.5 42t-3.5 41.5t-10 40t-6.5 38 t7.5 36.5t32 35z" />
<glyph unicode="_" horiz-adv-x="833" d="M642 -46q29 -9 47.5 -24l35 -29t34.5 -24t47 -10h9q-6 -6 -23 -18.5t-38.5 -25.5t-46.5 -22.5t-47 -9.5q-71 6 -150.5 6h-161t-162.5 3t-156 17q-5 36 5.5 55t30 27t45.5 9t53 1t53 3.5t45 16.5q36 -7 84 -8t99 1t100.5 4.5t88.5 2.5l8 25v0z" />
<glyph unicode="a" horiz-adv-x="540" d="M423 323q4 -26 2.5 -56.5l-3 -61t0 -59.5t11.5 -52.5t31.5 -41t60.5 -23.5l8 -26q-23 -16 -45.5 -20t-45 0t-45 14t-45.5 23q-29 -13 -62 -23t-67 -14t-67.5 0t-62.5 20q-45 29 -64 67.5t-14.5 77t29 73t66.5 57.5q36 10 69.5 10.5t65 2t60.5 11t55 38.5 q-12 42 -36.5 63.5t-54.5 28.5t-62.5 4t-61.5 -10q-16 -20 -18 -41.5t-4.5 -41.5t-13 -37.5t-43.5 -27.5q-24 28 -34.5 64t9.5 75q28 37 67.5 57t81.5 24.5t83.5 -5.5t74.5 -33t53.5 -57.5t20.5 -79.5zM85 194q-18 -11 -22.5 -22.5t-2.5 -23t9.5 -23l14.5 -22.5t10.5 -21 t-0.5 -18q16 3 31 7t29.5 5t29.5 -3.5t32 -17.5q22 0 47.5 9t46.5 25t33.5 38.5t9.5 48.5q-11 35 -28 48t-39 12.5t-47 -9.5l-51.5 -18.5t-52.5 -15.5t-50 1z" />
<glyph unicode="b" horiz-adv-x="562" d="M214 598q-16 -12 -19.5 -26.5t-2.5 -29t2.5 -29t-4.5 -27.5q29 10 58 11t58 -2t58 -8.5t58 -8.5q39 -20 60 -45.5t31.5 -56t14 -66t6.5 -74.5q10 -49 -2 -84.5t-35.5 -63.5t-53.5 -52t-55 -50q-32 -13 -64.5 -4t-64 21.5t-62.5 21t-59 -4.5q-20 78 -27 171.5t1 190.5 q13 47 10.5 97t-2.5 103q-10 13 -27.5 16.5l-34 7t-29 10t-12.5 25.5q16 16 45 25t60 5.5t57 -20.5t35 -53zM335 417q-32 -16 -58.5 -33t-46 -37t-30 -45t-10.5 -58q9 -29 19.5 -58t27 -53t40 -40.5t58.5 -19.5q35 19 57 43.5t33 55.5t13.5 68.5t-0.5 82.5q-13 10 -22 23.5 t-19.5 27t-24.5 25.5t-37 18z" />
<glyph unicode="c" horiz-adv-x="467" d="M82 453q24 28 56.5 44t68 20.5t71.5 -2.5t67.5 -24t55.5 -44.5t35 -64.5q3 -19 0 -39t-13 -36.5t-26.5 -27t-38.5 -10.5q-30 2 -43.5 18.5t-18.5 38.5t-7.5 45.5t-10.5 41.5t-27 25.5t-58 -3.5q-29 -17 -53 -44t-39.5 -61t-19 -73t9.5 -81q26 -46 63.5 -68t82.5 -35 q26 0 50 13t45 33t38.5 44t30.5 47q26 -6 33 -24.5t5.5 -40.5t-7 -42.5t-5.5 -29.5q-20 -23 -45 -42t-54 -31t-61 -16.5t-64 2.5q-42 3 -67 23t-43 47.5t-33.5 57.5t-37.5 53q0 33 -2.5 72.5t0.5 79.5t16.5 75t45.5 59z" />
<glyph unicode="d" horiz-adv-x="512" d="M377 650q19 -22 20 -48.5t-3 -54.5t-5.5 -54.5t14.5 -48.5q-13 -53 -8.5 -110.5t17.5 -123.5q-15 -11 -18.5 -19.5t-0.5 -16.5t9.5 -15.5t11.5 -15.5t6 -17t-8 -20l113 -77q-26 -33 -51 -39.5t-50.5 0t-50.5 20t-51 21.5t-52.5 4t-54.5 -32q-26 0 -53 9t-50.5 24.5 t-42.5 35.5t-29 43q-12 42 -18.5 91.5t-1.5 98t24 91.5t58 73q3 16 15.5 15t25 -4t22 -1t6.5 24q13 -6 37 -14t50.5 -12t52 -1t41.5 18q-6 20 -11.5 40.5t-5.5 47.5q-9 11 -25 13.5t-34 2.5t-34.5 -0.5t-27 4.5t-12 17.5t12.5 38.5zM145 400q-26 -13 -36.5 -33.5 t-14.5 -43.5t-6 -48t-12 -47q10 -26 21.5 -52.5t28.5 -48.5t40 -36.5t56 -17.5q16 3 26.5 14.5t19 25t15.5 26.5t17 19l9 -17q13 23 16 43t3 38.5v36.5t7 38q6 42 -15.5 72t-53.5 44.5t-67 12t-54 -25.5z" />
<glyph unicode="e" horiz-adv-x="537" d="M498 340q15 -34 11.5 -53.5t-19.5 -28.5t-40.5 -10.5t-50.5 -1l-50 1t-39 -3.5q-26 -3 -54 2.5t-56.5 8.5t-57.5 -1t-58 -26q6 -33 24 -54t42 -36t50.5 -28t49.5 -29q16 16 33.5 15t32.5 -2.5t25 4t10 34.5q23 -6 34.5 4.5t22 23.5t26 21t47.5 -5l-44 -139 q-12 0 -28.5 -2t-34 -7.5t-34.5 -15.5t-30 -26q-30 3 -63 11.5t-65 23t-61.5 35.5t-52.5 50q-32 73 -42 144.5t16 149.5q39 46 81 73t99 47q55 10 96.5 -8.5t74 -49t57.5 -65.5t48 -57zM230 453q-87 -13 -129 -104q30 -10 65 -11t72 0.5l75 3t74 -1.5q0 29 -17 51.5 t-41.5 37t-51.5 21t-47 3.5z" />
<glyph unicode="f" horiz-adv-x="535" d="M287 658q58 13 108.5 -0.5t89.5 -32.5q4 -20 12 -38t13.5 -35.5t5.5 -36t-13 -37.5q-10 -20 -23 -22t-26.5 2.5t-27.5 12t-27 7.5q-13 13 -14 24.5t3 22t10.5 20.5t8 19t-5 17.5t-27.5 16.5l-96 -25q3 -10 6 -26.5t8.5 -34t16 -34t29.5 -25.5q-13 -14 -24.5 -17t-22.5 -3 h-22.5t-24.5 -7q-10 -48 -15 -86t-5 -73.5t5 -73.5t15 -87q19 -12 44.5 -16.5t48 -11t38 -20.5t15.5 -46q-42 -13 -88 -19.5t-93.5 -6.5t-95.5 6.5t-93 19.5l26 69q9 -3 18.5 -8.5t19.5 -8.5t19.5 -2t18.5 11q30 29 36.5 65t2.5 77t-12 85.5t-8 89.5q-8 11 -22.5 16 t-29.5 7.5t-30 5.5t-24.5 9.5t-12.5 20t6 37.5l18 15t25 2q7 -9 19 -10t26 4.5t27.5 16t22.5 23.5q6 20 16 41.5t25 39t34.5 29t45.5 11.5z" />
<glyph unicode="g" horiz-adv-x="575" d="M508 522q10 -29 24 -49t20.5 -37t0 -35.5t-36.5 -44.5l-68 9q-10 -29 -15.5 -58t-15.5 -54.5t-28.5 -46t-54.5 -32.5q-26 6 -53 -6t-34 -39q16 -3 40 -5.5t47 -1.5t40.5 6.5t20.5 18.5q0 -20 4.5 -26.5t12 -6t17.5 4.5t19.5 6t19 -2t16.5 -19q29 -23 44.5 -45.5t21 -47 t3 -53t-8.5 -64.5q-35 -37 -74 -54.5t-79.5 -21.5t-82.5 3t-82.5 18t-79 24t-73.5 22q-20 13 -35.5 38.5t-19.5 54.5t6.5 56t40.5 44q-17 3 -27.5 12t-16 21t-5.5 26t3 28q28 28 41 65t20 76l13.5 76.5t22.5 68t46.5 50t84.5 21.5q30 -26 66 -29t72 3.5t68 16t55 9.5z M281 444q-7 -7 -23 -8.5l-33.5 -3t-33.5 -6t-23 -17.5q-17 -13 -21.5 -39.5t3 -54.5t27.5 -51t53 -30q26 0 46 7.5t35.5 20t27 28t21.5 32.5q0 19 -5 39.5t-14.5 37.5t-24.5 29.5t-35 15.5zM65 155l16 -26q19 -6 42.5 -6.5t46.5 3.5t43.5 11.5t33.5 17.5q-15 -4 -31 0.5 t-32 11.5l-32 14.5t-31 8.5t-29 -6t-27 -29zM300 68q-18 -13 -39 -16t-43 -2t-44 2.5t-40.5 -3t-32.5 -18t-20 -41.5q0 -36 18.5 -56t43.5 -31.5t51.5 -18t43.5 -16.5h43q23 19 50 23t55 5.5t54.5 8.5t49.5 34q9 30 3 49.5t-21 32t-37.5 19t-46.5 10.5l-47.5 8t-40.5 10z " />
<glyph unicode="h" horiz-adv-x="629" d="M188 582q-9 -10 -7.5 -24t9 -29.5t17 -31t16.5 -28.5q19 16 43 24.5t49 12t50 2t47 -4.5q30 -9 50 -30t32 -47t17 -53.5t5 -49.5q-9 -17 -9 -41.5t3 -51l6 -52.5t0 -46q0 -19 10.5 -29.5t25 -17t29 -11.5t23.5 -12.5t8 -21t-18 -37.5q-68 -9 -133.5 -10.5t-131 1 t-132.5 6t-138 3.5h-34q-4 22 6 38.5t26 31t33.5 28t28.5 29t10.5 35t-19.5 45.5l15 112.5t5 119.5t-24 111t-73 88q2 2 17.5 9t36 12.5t43 7t39 -5.5t23 -26.5t-3.5 -55.5zM361 426q-15 -18 -36.5 -30.5t-44 -24t-42 -23t-30.5 -26t-11 -33.5t17 -45h-9l9 -138 q3 -16 21 -19t36.5 -6.5t31 -13t5.5 -38.5q23 19 46 42t39 49t22.5 55t-3.5 61h9l-9 146q3 16 -3 21.5t-16 7t-19.5 3.5t-12.5 12z" />
<glyph unicode="i" horiz-adv-x="476" d="M175 641q10 3 28.5 8t36.5 4t30.5 -11t9.5 -36q3 -9 0 -19.5t-10 -20.5t-16 -18t-19 -11q-17 7 -34 17t-28.5 23t-12.5 29t15 35zM114 503q11 -9 27 -9.5t33.5 1.5l35.5 4t32.5 -2t24.5 -16t13 -37q-4 -48 -3 -91.5t6 -86t12.5 -85.5t17.5 -91q13 -13 36.5 -15t46 -5 t39 -14.5t16.5 -43.5q-52 -7 -102.5 -15t-101.5 -12t-103 -1t-107 19q-10 10 -10.5 21t4 21.5t13.5 20t19 15.5q32 -26 64.5 -16.5t63.5 41.5q14 78 13.5 150.5t-20.5 143.5l-147 26q-10 29 -4 40t20 15t31 6.5t30 15.5z" />
<glyph unicode="j" horiz-adv-x="405" d="M321 693q20 -13 26.5 -26t7 -26.5t-1 -28t1.5 -30.5q-19 -6 -45.5 -10t-49 -0.5t-36 17.5t-7.5 43q6 13 16 33t23 33.5t29.5 15t35.5 -20.5zM355 390q-10 -15 -11.5 -28t-1.5 -25t-1.5 -24.5t-11.5 -25.5q20 -35 23.5 -86t-1.5 -108t-14.5 -116.5t-15.5 -110.5 q-45 -33 -100 -41t-107 6l-41 41.5t-37.5 47.5t-19.5 52.5t12 56.5q9 16 23 25t28.5 12.5t28.5 2t24 -4.5q10 -9 12.5 -22t1.5 -28t-4 -30.5t-3 -29t5.5 -23.5t20.5 -14q16 -3 33.5 1t32.5 14t25.5 24t13.5 30q-6 58 -1 117.5l10 117t3.5 112t-20.5 102.5q-26 3 -43 1.5 t-31.5 -2.5t-31 2t-42.5 17q4 42 28.5 56t57.5 13t68.5 -11l60.5 -17z" />
<glyph unicode="k" horiz-adv-x="612" d="M40 663q23 3 45.5 2.5t39.5 -8.5t25 -25t2 -46q3 -36 -0.5 -66t-6.5 -59t-3 -59t10 -66q29 -10 52 -2.5t42.5 24t36 37t32.5 36.5q-19 10 -19.5 22t8.5 23.5t23 20.5t24 12q21 -17 44 -20t46.5 0t46.5 7t43.5 1t38.5 -17.5t31 -48.5q-112 0 -187.5 -38t-115.5 -110 q23 -16 36.5 -35t23 -38l19 -38t25.5 -35l8 9q10 -23 34.5 -37.5l52 -30t52 -35.5t34.5 -52q-32 0 -69.5 -1t-74.5 0.5t-71.5 7.5t-61.5 19q-3 9 2 17.5t13.5 15.5l17 14t12.5 13q3 26 -10 45t-32 37l-37 36.5t-25 44.5l-9 -8q-3 -9 -2.5 -7.5t0.5 7t-2.5 11.5t-12.5 6 q-6 -6 -23 -14.5t-31.5 -20.5t-21.5 -28.5t7 -39.5q-3 -23 2 -35.5t15 -22.5t22 -20t22 -26l8 9q10 10 18.5 5.5t13.5 -16t4 -25.5t-10 -24q-36 13 -73 12.5t-69.5 -1t-56.5 4t-34 27.5q47 7 68.5 28.5t27 52.5t0.5 68.5l-10 76.5t-5.5 76.5t14.5 67.5q3 36 -0.5 72.5 t-12.5 70.5t-23 63.5t-33 52.5z" />
<glyph unicode="l" horiz-adv-x="535" d="M149 672q17 -10 32 -8t29 3.5t27 -3t26 -27.5q3 -58 0 -128.5t-3.5 -146t4.5 -151t24 -143.5q33 0 65 0.5t61 -2.5t54.5 -12.5t44.5 -28.5q-6 -19 -24.5 -29t-44 -13t-55 -2t-59 2.5t-56 2t-45.5 -3.5l-45 6.5l-53 7.5t-56 9t-53 12q2 21 16.5 30t34.5 12t42 3t38.5 4.5 t24 16t-0.5 37.5l25 17q-6 36 -5.5 78t3 85.5t4 87t-4 84t-20.5 76.5t-45 64q-14 -10 -27 -10.5t-26 4t-25.5 13.5l-25.5 18q7 10 20.5 15.5t30.5 8.5t35 5.5t33 5.5z" />
<glyph unicode="m" horiz-adv-x="701" d="M618 431l26 -87l-52 17q0 -15 -2 -30.5t0.5 -28t12 -20t32.5 -7.5q-13 0 -24.5 -2t-18.5 10q8 -19 8 -40.5t-2.5 -43t-5.5 -41.5t0 -36.5t14.5 -28.5t37.5 -16q9 -6 19 -18t15 -25t1.5 -25t-19.5 -18l-206 -9q-17 13 -41.5 12.5t-52 -4t-55 -4t-50.5 12.5q-29 0 -58 -3.5 t-58 -6t-58 -1.5t-58 11q-10 19 -6 29t14.5 15.5t23 10t18.5 14.5l18 397q9 17 20 21.5t24 3t27 -7t28.5 -7t29 3t27.5 21.5q32 -24 65 -27t65.5 3t64.5 15t62.5 9.5t59 -14t54.5 -55.5zM221 344l-27 17l-16 -25q15 -17 16.5 -33.5t-3 -32.5t-12.5 -32t-12.5 -31t-1 -30.5 t20.5 -30.5l-33 8q0 -13 5.5 -20.5t12 -13.5t13.5 -13.5t10 -20.5l-41 -9q19 -10 39 -11.5t37 -1.5t29 -1.5t15 -11.5q22 39 25 83t-1.5 88.5t-11 87t-3.5 78.5q-23 9 -29.5 2t-8 -18t-4.5 -21t-19 -7zM489 388q-20 -20 -36.5 -26.5t-42.5 -0.5q-3 -19 4 -35.5t12.5 -33 t4 -33t-20.5 -35.5q-19 0 -26 4t-7 10.5t4.5 14.5t8 16.5t4 16.5t-8.5 14h-9q6 -26 1 -51.5l-9.5 -50t-3.5 -49t21 -46.5l17 104l8 -9q16 -17 19.5 -31.5t0.5 -29t-10 -29.5t-10 -31q13 -10 26 -9.5t24.5 4.5t21 9t15.5 5q-9 25 -7.5 51.5t7 52.5t12 52t9 51t-3.5 49t-25 46 zM652 240h-34l26 -33z" />
<glyph unicode="n" horiz-adv-x="615" d="M94 500q30 -22 70.5 -24t83.5 2.5t85 9.5t77 -3t59 -36t31 -88q7 -39 7 -81.5t5.5 -83.5t23.5 -78.5t60 -66.5q-7 -26 -22 -38t-35.5 -16t-45.5 -1.5t-50.5 5.5t-50.5 3.5t-47 -5.5q-13 28 -8 45.5t19 29t32.5 20.5t32.5 20.5t19 28.5t-8 45q-3 30 -2 64.5t-1.5 68.5 t-13 65t-35.5 54q-33 6 -63 -2t-57 -25t-49 -40t-38 -45q6 -26 4.5 -55t-3.5 -57.5t-2 -56t9.5 -51t31.5 -40.5t64 -26h16q4 -17 -6.5 -26t-30.5 -12.5t-46 -3.5t-53.5 0.5t-53 -1.5t-42.5 -8q-20 6 -29.5 18t-21.5 25q16 19 37 33.5t40.5 30t33.5 34.5t17 48 q-17 29 -19.5 70.5t-2.5 86t-3 87.5t-19 76z" />
<glyph unicode="o" horiz-adv-x="525" d="M460 388q7 -36 18 -65t19 -57.5t9.5 -59t-10.5 -69.5q-17 -23 -34 -48.5t-36.5 -48t-42.5 -39t-52 -19.5q-42 -7 -88 -4.5t-88.5 18t-76.5 46t-50 78.5q-3 22 -2 50t2.5 57.5t2 57.5t-2.5 51q3 39 25.5 66t54 45.5t68.5 30.5l69 22q29 6 58 -3.5t56 -27t52.5 -40z M287 404q-13 -9 -37 -9t-47.5 -2.5t-39.5 -13.5t-13 -43l-26 8q0 -26 -8 -52t-8 -52q-3 -35 5.5 -59t25.5 -42.5t40 -35l49 -35.5q13 -3 34 -2.5t44.5 8t46 22.5t37.5 41q26 46 26 99.5t-26 99.5q-15 -3 -24.5 7t-19 23.5t-23 25.5t-36.5 12z" />
<glyph unicode="p" horiz-adv-x="568" d="M198 440q30 19 63.5 31.5t66.5 15t64 -6.5t57 -31q36 -20 54 -45.5t25.5 -54.5t7.5 -61v-64q-10 -39 -23.5 -77t-34 -70t-49 -57t-67.5 -38q-19 -20 -42 -20.5t-46.5 8.5t-45.5 23l-38 24q3 -20 0.5 -39.5t-2 -38t7.5 -36t29 -33.5q16 -7 32 -2.5t29.5 7t24.5 -4 t18 -35.5q-33 -22 -72.5 -31t-82 -9.5t-87 6.5t-86.5 16q-11 18 -12 26.5t4 12t14.5 4t18.5 2.5t17 7.5t10 18.5q12 0 24 2t19 -11q12 68 21 134.5t11 134.5t-5.5 138t-26.5 145q-7 -16 -15 -18t-16.5 3t-18 13t-19.5 11q10 9 14.5 17t9 14.5t12.5 11.5t24 8q13 -6 29.5 -9 t32.5 -7t29.5 -11.5t19.5 -23.5zM303 388q-9 3 -25.5 -3t-33 -18t-29.5 -29.5t-17 -37.5q-3 -23 -5 -49.5t0.5 -53.5t11.5 -54t29 -49q19 -13 37 -23t37 -14t39 0t43 20q35 10 47 37.5t13 62.5t-4.5 71t-5.5 62q-6 19 -21.5 43.5t-35 40.5t-40.5 18t-40 -24z" />
<glyph unicode="q" horiz-adv-x="569" d="M441 419q0 -79 -5 -149t-9 -136t-4.5 -130.5t9.5 -133.5q9 -7 13.5 -17.5t9.5 -19.5t13 -14.5t25 -2.5l17 18q4 -7 10 -12.5t10.5 -11t7 -12.5t-1.5 -17q-33 -19 -69.5 -20.5t-72.5 3.5t-69 10.5t-60 -0.5q-11 22 -10 31.5t8 12.5t18.5 3t23 3.5t20.5 13.5t11 32l34 -18 q6 16 7 36.5t0.5 40.5l-1 38.5t2.5 32.5q-33 -16 -69.5 -31.5t-72.5 -21t-69 5.5t-58 47q-36 43 -56 92.5t-24.5 101.5t7 105t37.5 102q39 30 87.5 45t99 16.5t97.5 -9.5t83 -34zM178 349q-20 -20 -37 -44t-26.5 -52t-10.5 -58.5t13 -63.5l41.5 -42t44.5 -37.5t47.5 -20 t50.5 11.5v45q28 4 41 15.5t16.5 28.5t0.5 38l-6.5 43.5t-5 46t5.5 45.5q-16 20 -38 35.5t-46 22.5t-47.5 4.5t-43.5 -18.5z" />
<glyph unicode="r" horiz-adv-x="610" d="M44 457q0 28 13.5 44.5t35 23t48 4.5t52.5 -10.5t48 -22.5t35 -31q78 58 146 54t139 -62q13 -17 14.5 -33.5t0 -34.5t-2.5 -37.5t6 -41.5l-39 -7.5t-37 -3t-33.5 8.5t-28.5 28l-35 68q-46 -6 -85 -36t-53 -76q3 -20 0 -46t-4 -55t5 -58.5t26 -55.5q13 0 33.5 -1 t40.5 -5.5t35.5 -15.5t18.5 -30q-9 -23 -27.5 -27.5t-39.5 -3.5t-42.5 1t-37.5 -13q-26 10 -56 10.5t-61.5 0.5t-63 3.5t-59.5 20.5q-10 9 -5.5 20t15 20.5t23 17.5t18.5 11q16 -13 23 -9.5t12.5 11.5t14 14.5t28.5 0.5q13 39 17 78t3 77.5t-4.5 77t-6.5 76.5 q-9 9 -21.5 10.5t-26 0t-27.5 -3.5t-25.5 0t-19.5 10t-10 28z" />
<glyph unicode="s" horiz-adv-x="502" d="M443 516q3 -29 7 -58.5t6.5 -58t2 -54t-6.5 -45.5q-7 8 -23 18t-30 10q25 -17 44 -46t28 -64t7 -72t-19 -69q-16 -13 -33 -19.5t-32 -13t-27.5 -16.5t-18.5 -29q-39 7 -80.5 18t-82 19t-78.5 9.5t-70 -11.5q-13 11 -14 21t3.5 19.5t10.5 18t7.5 16.5t-5 15t-28.5 13h18 l8 70q21 6 37 -1.5t29 -22.5t24 -33t24 -32.5t29 -22.5t37 -1q23 -10 41 -8t34.5 8.5t33.5 14.5t39 11q-4 10 0 18t11.5 14.5t16 11.5t14.5 8q-12 29 -32 43.5t-43.5 21.5t-48.5 10.5t-47 10.5q-16 -10 -35.5 -5.5t-39.5 14l-41 20t-40 13.5q-26 20 -31.5 44t-0.5 49 t15.5 50t16.5 48q28 21 56 29.5t56 9.5t57 -3.5l60 -9t64 -6t70 4.5zM243 449q-16 -3 -35.5 -9t-36.5 -16t-28.5 -25.5t-11.5 -37.5q20 -3 53 -12.5t66.5 -16.5t63 -8.5t41.5 12.5q6 24 2.5 38.5t-14 23t-25 13.5t-29 9.5t-27 11t-19.5 17.5z" />
<glyph unicode="t" horiz-adv-x="503" d="M200 689l12 -60.5t18 -57.5t33 -42t57 -13q26 14 55.5 10.5t48.5 -35.5q0 -10 -5.5 -18t-14 -15l-17 -13.5t-14.5 -13.5q-11 13 -29 17t-39 2.5t-42.5 -7t-38.5 -12.5q0 -39 -7 -79t-11 -79t0 -75.5t27 -69.5q16 -13 32.5 -16.5t32 -1t29.5 10t27 16.5q20 19 26.5 40.5 t13.5 41t19.5 35t44.5 21.5q13 -29 16 -50t2.5 -40.5t-2.5 -40.5t2 -50q-16 -16 -42.5 -35.5t-57 -34.5t-63.5 -23t-61 -2q-26 13 -51 31t-43.5 40.5t-28.5 50t-6 59.5q-5 22 -3 48.5t5.5 54t5 54.5t-3.5 49.5t-20 39t-45 23.5q-13 -7 -25 -9t-18 -9l-8 78q38 -15 60.5 -8.5 t35.5 25t20 44.5t15.5 51t21 44.5t36.5 23.5z" />
<glyph unicode="u" horiz-adv-x="599" d="M557 12h26q13 -26 6 -35t-22.5 -11.5t-33.5 -3.5t-28 -11q-15 -9 -26 -4.5t-21 14.5t-20 22t-22 20t-28 7.5t-37 -15.5q-27 -13 -50.5 -22t-46 -10.5t-45.5 5.5t-49 27q-33 30 -43.5 67t-11.5 77t2 80.5t-1 77t-22 68t-61 53.5v25q13 0 27.5 4t29.5 7.5t31 5.5t32 -1 q28 -38 35.5 -76t6.5 -75t-4.5 -73t1.5 -71t24.5 -68.5t65.5 -65.5q3 6 7.5 9.5t8 6.5t4.5 7t-3 10l-9 8q13 -6 22.5 4.5t19.5 23.5t22.5 22.5t31.5 3.5v43q6 -4 11 -3t10 4t10 7.5t12 7.5q-15 8 -17.5 20.5t0.5 26.5t8.5 28t5.5 25.5t-8 19t-32 9.5l43 18l-120 87 q13 32 35.5 41t49 6.5t54 -11t50.5 -11.5q6 -51 8.5 -101.5t3.5 -100t1.5 -98t3.5 -97.5z" />
<glyph unicode="v" horiz-adv-x="610" d="M433 495q16 -10 38.5 -8.5t45 1.5t42 -8t29.5 -37q-50 -17 -78.5 -47.5t-45.5 -69t-26 -83.5t-19.5 -91.5t-26.5 -91t-46 -83.5q-26 -13 -44 -11.5t-30.5 12.5t-20.5 29t-14.5 38l-13 39t-14.5 32q-15 23 -24 54t-16.5 64t-16.5 64.5t-25 57.5t-42 42.5t-66 19.5v50 l72 17t86 10.5t78 -16t47 -61.5q-12 0 -20.5 -7t-15.5 -17t-12.5 -20.5t-11.5 -17.5q7 -8 11 -22l8 -28.5t9 -27.5t13.5 -19.5t21 -4.5t32.5 17q17 19 17 44.5t-6 52.5l-12 52.5t-1 44t26.5 27.5t71.5 3z" />
<glyph unicode="w" horiz-adv-x="648" d="M507 331q2 13 -1 31.5l-6 37.5t-2.5 36.5t9.5 29.5t29 16t57 -5q0 -14 10.5 -22t22.5 -21q0 -15 -8 -36.5t-19 -44.5t-22.5 -44.5t-17.5 -37.5q6 -27 3 -50.5t-10.5 -47.5l-16 -50.5t-11.5 -59.5q7 -12 2 -23.5t-14 -23l-18.5 -23t-12.5 -24.5q-19 -7 -30 -0.5t-18 17.5 t-13.5 24t-16.5 20q10 36 5.5 61.5t-15.5 47t-25.5 42t-24.5 46.5h-26q-11 -19 -18 -45l-14 -53.5t-14.5 -53.5t-19.5 -45t-29 -29.5t-43 -5.5q-26 51 -36 105.5l-20 107.5t-26.5 104t-55.5 96h-18l9 60q11 7 21 3.5t19 -10.5t16.5 -15t13.5 -10t10.5 4.5t6.5 27.5 q20 -13 44.5 -11t50.5 2q-13 -19 -22.5 -44t-13.5 -51.5t-2 -53t12 -48.5l26 -26q24 6 36.5 32t20 58l14.5 63.5t19 50.5t33 18.5t58 -32.5q19 -23 20 -50.5t0 -55t5 -52.5t35 -41v-51q22 2 32.5 11.5t14 23t2.5 30t-2.5 33t-1.5 31.5t7 26z" />
<glyph unicode="x" horiz-adv-x="599" d="M247 416q13 2 21 -4t14.5 -15.5t11 -18.5t10 -11.5t13 3.5t18.5 28q-4 7 -8.5 17.5t-7 21.5t-1.5 21.5t7 17.5q29 24 59 26t61 -4l64 -12t69 1q6 -26 -6.5 -38.5t-35 -18.5t-49 -10.5t-48.5 -14t-33.5 -29.5t-2.5 -57q-13 10 -23 4.5t-17.5 -18.5t-12 -28.5l-7.5 -25.5 q16 -17 29.5 -37l26.5 -39t27 -34.5t31 -22.5q3 -3 -0.5 -6t-6.5 -6.5t-3 -6.5t10 -6q6 -15 14.5 -19t17 -3.5t16.5 3t14.5 1.5t10.5 -8.5t4 -26.5q-19 -16 -41.5 -22t-47.5 -6.5t-51 2t-51 2.5q5 14 -2.5 20t-15.5 14q7 0 19.5 6t22 15t12.5 19.5t-10 19.5q-15 -2 -23 3.5 t-12.5 14.5t-7 19.5t-6 18.5t-10.5 10.5t-20 -4.5q-13 -3 -31.5 -19t-29.5 -35.5t-9.5 -38.5t27.5 -29q6 -13 -1.5 -22.5t-20.5 -15.5t-27.5 -8t-20.5 1l-149 11q43 9 71 35.5t51 61t45 71.5t52 67q-8 51 -42.5 92t-79.5 73q-20 -7 -33 -2.5t-23.5 12.5l-21.5 16t-27 8 q0 17 11 22t26 5t29.5 -2t20.5 1v28q26 -14 49.5 -11l45 6t43.5 -0.5t45 -30.5z" />
<glyph unicode="y" horiz-adv-x="612" d="M286 418q22 29 55.5 43t72 17t77.5 -3t72 -16q0 -12 7 -24.5t12 -24.5t2.5 -23t-21.5 -21q-23 13 -40.5 6t-31.5 -22.5t-26 -34t-25 -27.5q-26 -59 -48 -117l-44.5 -116.5t-47.5 -117t-56 -116.5q-33 -39 -80.5 -45.5t-94.5 20.5q-12 6 -24 17t-20 25.5t-10.5 32 t4.5 37.5l50 61q28 2 41 -9t18.5 -27.5t6.5 -35t6.5 -30.5t18 -14.5t40.5 12.5l-26 35q33 9 43.5 30t10 47t-6 53t-5.5 50q-25 49 -42 94t-35.5 86.5t-43.5 78.5t-67 69q0 19 10 27.5t23.5 13.5l28 10t23.5 18q26 -7 51.5 -8.5t48 -5.5t41.5 -13.5t32 -31.5zM286 408 q0 -16 -8.5 -27t-20 -18t-23 -8.5t-18.5 1.5q0 -26 2 -54t16 -48q10 -3 20 -11.5t20.5 -15.5t21.5 -8.5t23 8.5q3 23 14.5 52t15 56t-8.5 47t-54 26z" />
<glyph unicode="z" horiz-adv-x="500" d="M409 477q26 0 38.5 -11.5t15.5 -27.5t-1 -33.5t-10 -29.5q-36 -39 -75 -77l-76 -76.5t-69.5 -79.5t-55.5 -86q19 -17 39.5 -23t45 -7.5t54.5 -1.5t69 -4l16 36q0 -8 4.5 -14.5t4.5 -11.5h34q0 12 -1 30t-1 37.5t2.5 38t8.5 32.5q20 -16 26.5 -36.5t5.5 -43t-6.5 -46.5 t-8.5 -47q-51 -4 -108 -10t-113.5 -7t-110.5 7.5t-99 34.5l69 96l-8 9q32 22 66 50.5t64 62t52.5 70t32.5 75.5q-23 0 -44.5 1.5t-43.5 1.5t-45 -2t-49 -9q-9 -17 -16.5 -36t-18 -31.5t-26 -15.5t-41.5 14q0 29 -2 54.5t1 47t14.5 39t37.5 30.5h328v0z" />
<glyph unicode="&#xa2;" horiz-adv-x="467" d="M402 629q-24 -28 -23 -53.5t12.5 -49t28 -46t23.5 -45t-2.5 -45t-47.5 -46.5q-10 3 -18 10.5t-16.5 16.5l-16.5 18t-18 16q2 -22 -5.5 -47.5t-18 -51.5l-20 -51t-11 -46.5t8 -38t37.5 -25.5q15 0 28 9.5t24.5 22.5l21.5 25t19.5 17t18 -1t17.5 -29q-9 -41 -30 -61.5 t-47.5 -30.5t-54.5 -15.5t-51 -16t-37 -31t-12 -61.5q-13 -7 -18 -21t-11 -27.5t-16.5 -23t-33.5 -6.5q20 42 21 81t-9.5 75.5t-28.5 71l-36 68.5t-32 68t-16.5 68.5t10.5 70.5t49 75q17 32 44 51t57 31.5t60 23.5t53.5 28t36 44t8.5 72q19 2 27.5 -1.5t10.5 -11t0.5 -18 t-2.5 -21.5t2 -22t14 -20zM229 466q-26 4 -39.5 -0.5t-20 -14.5t-8.5 -24t-4.5 -29t-9 -29t-21.5 -25q-7 -23 -4 -42.5t12 -35.5t21 -28.5t23 -22.5q13 16 16.5 36l7 40t10.5 38.5t27 31.5l-20 26q-3 7 0 9.5t8 4t10.5 4t7.5 9.5q0 6 2.5 15t2.5 17t-4 14t-17 6z" />
<glyph unicode="&#xa3;" horiz-adv-x="578" d="M516 629q-19 -19 -19.5 -41t0 -43t-5 -40t-34.5 -32q-26 14 -45.5 8.5t-33.5 -25.5q7 6 5.5 15.5t-5.5 21t-7 24t0 25.5q6 13 18.5 20l24 13.5t18 15.5t0.5 28q-17 -15 -34.5 -11t-36 16t-38 26.5t-38.5 20.5q6 -19 2 -30t-13.5 -18t-22.5 -11.5t-25 -11.5t-20 -18 t-8 -30q13 -4 17.5 -14t3.5 -22.5t-5 -24t-7 -18.5l145 -17q-3 -29 -17 -37t-32.5 -7t-37.5 4.5t-32 -2.5q6 -20 5 -40.5l-2 -41.5t3 -42t20 -40l-26 -18l63.5 -61.5t55.5 -41.5q14 -14 32.5 -23t37.5 -3l18 52q13 -13 20.5 -14.5t13 3.5t9 13.5t9 15.5t13 10t20.5 -3 q-3 -19 -8.5 -39.5t-15 -37.5t-24.5 -29.5t-37 -15.5q-23 10 -47.5 14t-48.5 9.5t-48 17.5t-46 38l-103 -86q-20 3 -35.5 7t-31 9l-32 10t-38.5 8q-10 22 -10.5 46t7.5 45t23.5 38t37.5 27q16 -7 31 -3t28 8t24.5 3t20.5 -17q20 13 21.5 33t-3.5 42.5l-10.5 45.5t0.5 42 q-11 15 -22.5 19t-24.5 2.5t-26.5 -5.5t-27 -4.5t-27 6t-26.5 26.5v27q16 3 39.5 0t44.5 -2.5t34.5 9.5t10.5 35q-10 23 -4 46.5t17 46t23.5 43t15.5 36.5q32 26 76 34.5t88.5 1t83.5 -29.5t61 -57zM121 180h-18l26 -35z" />
<glyph unicode="&#xad;" d="M387 375q29 -3 51 -12.5t41.5 -21.5t38.5 -26.5t41 -27.5q-21 -41 -55 -60t-74.5 -24t-86 -0.5t-90.5 11.5t-86 12t-74 1q-20 7 -35 18t-23 24.5t-7 29t13 32.5q22 6 49 15.5t55.5 14.5t57.5 1.5t56 -22.5q16 16 30.5 19.5t29.5 3.5t31.5 1t36.5 11z" />
<glyph unicode="&#x2000;" horiz-adv-x="471" />
<glyph unicode="&#x2001;" horiz-adv-x="942" />
<glyph unicode="&#x2002;" horiz-adv-x="471" />
<glyph unicode="&#x2003;" horiz-adv-x="942" />
<glyph unicode="&#x2004;" horiz-adv-x="314" />
<glyph unicode="&#x2005;" horiz-adv-x="235" />
<glyph unicode="&#x2006;" horiz-adv-x="157" />
<glyph unicode="&#x2007;" horiz-adv-x="157" />
<glyph unicode="&#x2008;" horiz-adv-x="117" />
<glyph unicode="&#x2009;" horiz-adv-x="188" />
<glyph unicode="&#x200a;" horiz-adv-x="52" />
<glyph unicode="&#x2010;" d="M387 375q29 -3 51 -12.5t41.5 -21.5t38.5 -26.5t41 -27.5q-21 -41 -55 -60t-74.5 -24t-86 -0.5t-90.5 11.5t-86 12t-74 1q-20 7 -35 18t-23 24.5t-7 29t13 32.5q22 6 49 15.5t55.5 14.5t57.5 1.5t56 -22.5q16 16 30.5 19.5t29.5 3.5t31.5 1t36.5 11z" />
<glyph unicode="&#x2011;" d="M387 375q29 -3 51 -12.5t41.5 -21.5t38.5 -26.5t41 -27.5q-21 -41 -55 -60t-74.5 -24t-86 -0.5t-90.5 11.5t-86 12t-74 1q-20 7 -35 18t-23 24.5t-7 29t13 32.5q22 6 49 15.5t55.5 14.5t57.5 1.5t56 -22.5q16 16 30.5 19.5t29.5 3.5t31.5 1t36.5 11z" />
<glyph unicode="&#x2013;" horiz-adv-x="500" d="M28 200v175h450v-175h-450z" />
<glyph unicode="&#x2014;" horiz-adv-x="1000" d="M28 200v175h950v-175h-950z" />
<glyph unicode="&#x2018;" horiz-adv-x="273" d="M31 679q17 39 49 50t65 3t60 -32t33 -56q-20 -15 -29 -42.5t-14.5 -59t-9.5 -62.5t-13 -54t-25.5 -33.5t-46.5 0.5q-18 40 -30 83.5t-12 90.5q-20 18 -27 49t0 63z" />
<glyph unicode="&#x2019;" horiz-adv-x="260" d="M31 679q17 39 49 50t65 3t60 -32t33 -56q-20 -15 -29 -42.5t-14.5 -59t-9.5 -62.5t-13 -54t-25.5 -33.5t-46.5 0.5q-18 40 -30 83.5t-12 90.5q-20 18 -27 49t0 63z" />
<glyph unicode="&#x201c;" horiz-adv-x="487" d="M340 632q19 -23 41 -38t39.5 -31.5t27 -38t3.5 -56.5q-13 -17 -19.5 -40t-11.5 -46.5l-10 -45.5t-14 -38.5t-24.5 -24.5t-41.5 -4q11 35 2 71t-24.5 71.5l-31 68.5t-18 61.5t14.5 52t67 38.5zM97 615q23 -13 40.5 -24t30.5 -24t21 -30.5t12 -43.5l-43 -16l26 -60 q-26 0 -38 -15.5t-16.5 -36.5t-4.5 -42t-3 -32.5t-12 -8.5t-30 31q6 22 -3 44t-22.5 44.5t-25.5 46.5t-12 50t17 55t63 62z" />
<glyph unicode="&#x201d;" horiz-adv-x="466" d="M314 615q20 -7 36.5 -8.5t30.5 -5t27 -11.5t26 -28l-67 -284q-10 -7 -14.5 -2t-9 14t-10.5 18.5t-19 12.5q9 22 5 45.5t-12.5 48.5t-18.5 50.5t-12.5 51t5 50t33.5 48.5zM134 588q22 -4 29.5 -16t9 -27.5t2.5 -31.5t10 -28q-18 -26 -25 -52t-9.5 -51.5l-5 -51.5 t-11.5 -52q-23 16 -34 40t-20 49.5t-21.5 50t-37.5 42.5q14 14 17.5 39.5t10.5 48.5t25 36.5t60 3.5z" />
<glyph unicode="&#x2026;" horiz-adv-x="894" d="M729 209q27 3 51 -4t42.5 -22t31 -35.5t15.5 -42.5q0 -33 -23.5 -61.5t-55.5 -41.5q-26 -14 -50.5 -11.5t-46.5 15t-39 34t-26 46.5q-14 23 -4.5 40t29 31t42 26t34.5 26zM431 209q27 3 51 -4t42.5 -22t31 -35.5t15.5 -42.5q0 -33 -23.5 -61.5t-55.5 -41.5 q-26 -14 -50.5 -11.5t-46.5 15t-39 34t-26 46.5q-14 23 -4.5 40t29 31t42 26t34.5 26zM133 209q27 3 51 -4t42.5 -22t31 -35.5t15.5 -42.5q0 -33 -23.5 -61.5t-55.5 -41.5q-26 -14 -50.5 -11.5t-46.5 15t-39 34t-26 46.5q-14 23 -4.5 40t29 31t42 26t34.5 26z" />
<glyph unicode="&#x202f;" horiz-adv-x="188" />
<glyph unicode="&#x205f;" horiz-adv-x="235" />
<glyph unicode="&#x2122;" horiz-adv-x="1392" d="M677 638q6 26 17.5 36.5t25.5 12t30 -3t32.5 -7t32 -1t29.5 14.5l68 -176q-6 8 -8 3t-8 -11q26 -32 34.5 -73t15 -83.5t19 -83.5t45.5 -74q-13 18 -11.5 30.5t10 23t21 19.5t20.5 19t8.5 21.5t-14.5 26.5q10 22 22.5 54t23.5 69.5t20 79.5t13 84q15 28 34.5 40t40.5 13.5 t43.5 -5l44.5 -13.5t42.5 -12.5t38.5 -3.5q-14 -13 -24.5 -24.5t-22 -20.5t-25.5 -15.5t-33 -9.5q9 -14 7.5 -20t-9 -12l-17.5 -14t-16 -24q6 -4 10 -8.5t7 -7.5t7 -4t11 2v-26q-7 7 -9 11.5t-9 -2.5l18 -79q-7 0 -9 4t-9 4q26 -29 22.5 -57t-13.5 -54.5t-13.5 -53 t22.5 -52.5q-17 -7 -19 -16.5t2.5 -20t10.5 -21.5t6 -21v-17h-9q-10 -7 -8.5 -13t8 -12t15 -10.5t11.5 -8.5l45 26q6 -10 9 -26t0.5 -30.5t-11.5 -24t-25 -6.5q-23 0 -53 -0.5t-59.5 4t-54 15t-34.5 33.5q40 10 56 29.5t22 44.5t7 55.5t11 63.5h18q-20 13 -22.5 30.5t2 37.5 t12 40.5t7 40.5t-13 37.5t-47.5 30.5l9 -78q-6 3 -12.5 11t-13 15t-13.5 8.5t-14 -8.5q0 -14 -2 -29.5t11 -22.5h35q-31 4 -43.5 -1t-15.5 -16t0.5 -26t5 -31t-2.5 -31t-21 -26v-26h-10l-17 -183q-35 -9 -55.5 -2t-31 25t-15 44t-7.5 54t-7.5 56t-15.5 50l-34 156h-26 q10 17 13.5 29t3 21t-5 15.5t-11.5 13.5h9q10 10 8.5 14.5t-7 7.5t-12 7.5t-6.5 14.5h-18q-7 -26 -4 -51t7 -50t5.5 -49.5t-8.5 -50.5h18q-23 -17 -28.5 -43t-1.5 -54.5t13.5 -56.5l16.5 -47q10 -10 24 -17.5t25.5 -16.5t16 -21.5t-5.5 -32.5q-20 -17 -38.5 -21.5 t-37.5 -2.5t-37.5 7.5t-37.5 7.5t-38 -2.5t-38 -22.5q-3 7 -12.5 19t-15 26t-3.5 28t22 23l9 -9q39 33 58 72t24.5 82t1.5 90t-9 95t-8.5 96.5t3.5 96.5zM1175 488h-18l18 -34v34zM537 680q19 -7 33.5 -27.5t33.5 -33.5q-12 -20 -15.5 -38t15.5 -32q-16 -9 -18 -28.5 t-0.5 -44t2 -50.5t-8.5 -49q-16 -7 -33.5 -1.5t-31.5 16.5t-21 26t-1 28q-6 19 -2 44.5t5 50t-7 43.5t-38 25q-39 14 -63 0t-36 -41.5t-14.5 -61.5t0.5 -60q13 -30 13.5 -72.5t-2.5 -87.5t-3.5 -88.5t12.5 -76.5t44 -51t91 -12q15 -21 16 -33t-7.5 -17.5t-23 -7.5t-30 -3 t-29.5 -4.5t-20 -11.5q-22 13 -49.5 13t-56 -4.5l-57 -9t-51 0t-37.5 21.5t-17 56l130 50q7 58 8 115.5t0 116t-1.5 119t3.5 125.5q-23 16 -43 19.5t-38.5 -0.5t-37 -12.5t-37.5 -15.5q10 -10 10.5 -17t-4.5 -13t-14 -13t-19 -16q26 -20 31 -34t-1 -27t-16 -27t-14 -33 l-26 -36q-20 36 -27.5 71t-8 71t3.5 75.5t7 84.5q67 13 129.5 14t123 -1.5t122 -3t126.5 9.5z" />
</font>
</defs>
</svg>
